<?xml version="1.0" encoding="utf-8"?>
<!-- Generator: Adobe Illustrator 27.2.0, SVG Export Plug-In . SVG Version: 6.00 Build 0)  -->
<svg version="1.1" id="Camada_1" xmlns="http://www.w3.org/2000/svg" xmlns:xlink="http://www.w3.org/1999/xlink" x="0px" y="0px"
	 viewBox="0 0 720 420" style="enable-background:new 0 0 720 420;" xml:space="preserve">
<style type="text/css">
	.st0{fill:#211C19;}
	.st1{opacity:0.5;fill:#484443;}
	.st2{fill:#211B1A;}
	.st3{fill:#FA6701;}
	.st4{fill:#FFFFFF;}
</style>
<g>
	<path class="st0" d="M46.05,38.23c1.34,0,2.81,0.26,4.43,0.78c0.36,0.28,0.54,0.58,0.54,0.91c0,0.33-0.16,0.62-0.49,0.87
		c-0.33,0.25-0.7,0.37-1.12,0.37c-1.08-0.28-2.08-0.42-3.02-0.42c-2.15,0-3.79,0.64-4.9,1.91c-1.12,1.28-1.67,3.17-1.67,5.68
		c0,2.51,0.66,4.48,1.97,5.89c0.68,0.74,1.48,1.11,2.42,1.11c0.94,0,2.43-0.5,4.49-1.5c0.72-0.34,1.2-0.51,1.44-0.51
		c0.52,0,0.78,0.27,0.78,0.81c0,0.54-0.25,0.99-0.75,1.35c-1.71,0.9-3.05,1.5-4.01,1.81c-0.96,0.31-1.78,0.46-2.48,0.46
		c-1.44,0-2.66-0.53-3.68-1.58c-1.81-1.95-2.72-4.62-2.72-8s0.86-5.88,2.59-7.51C41.57,39.04,43.64,38.23,46.05,38.23z"/>
	<path class="st0" d="M61.54,37.9c1.4,0,2.58,0.45,3.56,1.35c1.91,1.71,2.87,4.42,2.87,8.12c0,3.7-1.06,6.6-3.17,8.72
		c-1.1,1.06-2.36,1.63-3.8,1.73c-1.89,0-3.37-0.65-4.43-1.94c-1.06-1.3-1.81-2.75-2.26-4.35c-0.45-1.6-0.67-3.16-0.67-4.65
		c0-2.55,0.61-4.65,1.82-6.31C56.74,38.79,58.77,37.9,61.54,37.9z M61.33,40.38c-2.67,0-4.34,1.27-4.99,3.8
		c-0.2,0.68-0.3,1.55-0.3,2.6s0.2,2.28,0.6,3.68c0.54,1.87,1.34,3.19,2.39,3.95c0.62,0.48,1.37,0.72,2.24,0.72
		c0.88,0,1.66-0.39,2.36-1.18s1.18-1.79,1.44-3.01c0.26-1.22,0.39-2.44,0.39-3.68c0-2.19-0.31-3.89-0.94-5.08
		C63.89,40.98,62.83,40.38,61.33,40.38z"/>
	<path class="st0" d="M84.36,37.87c0.48,0,0.79,0.35,0.93,1.05c0.1,3.25,0.15,6.79,0.15,10.63c0,3.84-0.02,6.06-0.06,6.65
		c-0.04,0.6-0.17,1.02-0.39,1.26s-0.62,0.36-1.2,0.36c-0.52,0-0.78-0.32-0.78-0.96V50.1c0-1.1-0.02-2.22-0.06-3.38
		c-0.04-1.16-0.06-1.88-0.06-2.18c-0.68,1.16-1.58,2.11-2.69,2.86c-1.12,0.75-2.36,1.12-3.74,1.12c-1.38,0-2.53-0.57-3.47-1.7
		c-0.04,1.22-0.06,2.66-0.06,4.32c0,1.67,0.01,3.41,0.03,5.25c0,0.5-0.16,0.86-0.49,1.09c-0.33,0.23-0.7,0.34-1.12,0.34
		c-0.54,0-0.81-0.33-0.81-0.99c0.02-1.79,0.03-4.64,0.03-8.52v-8.49c0-0.34,0.11-0.67,0.34-0.99c0.23-0.32,0.5-0.48,0.81-0.48
		c0.31,0,0.59,0.08,0.85,0.25c0.26,0.17,0.4,0.42,0.42,0.76c0.08,2.21,0.44,3.86,1.08,4.93c0.64,1.08,1.4,1.62,2.27,1.62
		c0.88,0,1.63-0.14,2.26-0.43c0.63-0.29,1.15-0.62,1.56-1c0.41-0.38,0.8-0.92,1.18-1.62c0.54-1,1.06-2.22,1.56-3.68
		C83.19,38.31,83.68,37.87,84.36,37.87z"/>
	<path class="st0" d="M88.51,54.74c-0.14-2.05-0.21-4.83-0.21-8.33s0.05-5.77,0.15-6.8c0.1-0.64,0.54-1.06,1.32-1.27
		c0.78-0.21,1.8-0.31,3.08-0.31c1.87,0,3.45,0.4,4.74,1.21c1.29,0.81,1.93,2,1.93,3.57c0,1.3-0.18,2.38-0.54,3.24
		s-0.81,1.51-1.35,1.93c-0.88,0.68-2.17,1.02-3.89,1.02c-0.74,0-1.71-0.1-2.9-0.3c0.1,3.99,0.14,6.5,0.12,7.54
		c-0.02,1.04-0.37,1.56-1.05,1.56c-0.44,0-0.72-0.08-0.84-0.24c-0.12-0.16-0.2-0.27-0.24-0.34c-0.04-0.07-0.08-0.17-0.12-0.31
		c-0.04-0.14-0.07-0.25-0.09-0.34c-0.02-0.09-0.04-0.22-0.04-0.4c-0.01-0.18-0.02-0.32-0.04-0.42
		C88.52,55.42,88.51,55.1,88.51,54.74z M97.04,42.88c0-0.81-0.44-1.45-1.32-1.91c-0.88-0.47-1.81-0.7-2.81-0.7
		c-1,0-1.69,0.09-2.09,0.27c-0.08,1.18-0.12,2.26-0.12,3.24s0.04,1.88,0.12,2.68c0.54,0.06,0.91,0.11,1.11,0.15
		c0.52,0.06,0.96,0.09,1.33,0.09c0.37,0,0.62,0,0.75-0.02c0.13-0.01,0.38-0.04,0.75-0.09c0.37-0.05,0.63-0.13,0.79-0.25
		s0.36-0.28,0.6-0.48c0.24-0.2,0.41-0.43,0.51-0.69C96.91,44.45,97.04,43.69,97.04,42.88z"/>
	<path class="st0" d="M110.35,37.9c1.4,0,2.58,0.45,3.56,1.35c1.91,1.71,2.87,4.42,2.87,8.12c0,3.7-1.06,6.6-3.17,8.72
		c-1.1,1.06-2.36,1.63-3.8,1.73c-1.89,0-3.37-0.65-4.43-1.94c-1.06-1.3-1.81-2.75-2.26-4.35c-0.45-1.6-0.67-3.16-0.67-4.65
		c0-2.55,0.61-4.65,1.82-6.31C105.55,38.79,107.57,37.9,110.35,37.9z M110.14,40.38c-2.67,0-4.34,1.27-4.99,3.8
		c-0.2,0.68-0.3,1.55-0.3,2.6s0.2,2.28,0.6,3.68c0.54,1.87,1.34,3.19,2.39,3.95c0.62,0.48,1.37,0.72,2.24,0.72
		c0.88,0,1.66-0.39,2.36-1.18s1.18-1.79,1.44-3.01c0.26-1.22,0.39-2.44,0.39-3.68c0-2.19-0.31-3.89-0.94-5.08
		C112.69,40.98,111.63,40.38,110.14,40.38z"/>
	<path class="st0" d="M125.78,37.99c1.3,0,2.4,0.22,3.3,0.66c0.91,0.44,1.36,1,1.36,1.67c0,0.3-0.07,0.56-0.22,0.78
		c-0.15,0.22-0.37,0.33-0.66,0.33c-0.29,0-0.91-0.22-1.87-0.67s-1.83-0.67-2.62-0.67c-0.79,0-1.6,0.25-2.44,0.75
		c-0.84,0.5-1.26,1.11-1.26,1.82c0,0.98,0.51,1.7,1.52,2.15c0.76,0.34,1.84,0.64,3.26,0.91c1.42,0.27,2.57,0.82,3.47,1.65
		c0.9,0.83,1.35,2.08,1.35,3.75c0,2.55-0.77,4.44-2.3,5.65c-0.86,0.68-2.07,1.02-3.63,1.02c-1.57,0-3.12-0.43-4.68-1.29
		c-1.02-0.54-1.53-1.08-1.53-1.61c0-0.2,0.08-0.42,0.25-0.66c0.17-0.24,0.4-0.44,0.7-0.6c0.3-0.16,0.57-0.18,0.82-0.08
		c0.25,0.11,0.65,0.3,1.21,0.58s0.97,0.47,1.23,0.57c0.84,0.32,1.62,0.48,2.36,0.48c0.74,0,1.45-0.36,2.14-1.09
		c0.69-0.73,1.03-1.62,1.03-2.68c0-1.4-0.7-2.37-2.09-2.93c-0.68-0.28-1.45-0.49-2.3-0.63c-1.77-0.32-3.11-0.85-4.01-1.6
		c-0.9-0.75-1.35-1.88-1.35-3.39c0-1.51,0.65-2.71,1.94-3.57C122.08,38.42,123.74,37.99,125.78,37.99z"/>
	<path class="st0" d="M134.52,38.77c0.31-0.2,0.66-0.3,1.06-0.3s0.65,0.23,0.75,0.69c0.02,2.31,0.06,5.77,0.12,10.38
		c0,2.81-0.08,5.19-0.24,7.15c-0.04,0.3-0.22,0.56-0.55,0.79c-0.33,0.23-0.66,0.34-1,0.34c-0.56,0-0.84-0.29-0.84-0.87
		c0.2-1.99,0.3-4.47,0.3-7.42l-0.18-10.05C134.02,39.21,134.22,38.97,134.52,38.77z"/>
	<path class="st0" d="M148.72,58.29l0.99-0.12c0.44,0,0.8,0.08,1.08,0.24c0.42,0.24,0.7,0.73,0.84,1.47
		c0.06,0.32,0.09,0.61,0.09,0.87c0,0.66-0.25,1.24-0.75,1.73c-0.5,0.5-1.21,0.75-2.14,0.75c-0.93,0-1.67-0.13-2.24-0.39
		c-0.57-0.26-0.85-0.56-0.85-0.9s0.08-0.61,0.24-0.81c0.16-0.2,0.32-0.3,0.48-0.3s0.49,0.13,0.99,0.39c0.5,0.26,0.95,0.39,1.35,0.39
		c0.4,0,0.72-0.1,0.97-0.3c0.25-0.2,0.37-0.4,0.37-0.6c0-0.58-0.15-0.92-0.45-1.02c-0.08-0.02-0.24-0.03-0.48-0.03
		s-0.6,0.02-1.08,0.06c-0.9,0-1.35-0.53-1.35-1.58v-0.42c-0.12,0.02-0.3,0.03-0.54,0.03c-1.44,0-2.66-0.53-3.68-1.58
		c-1.81-1.95-2.72-4.62-2.72-8s0.86-5.88,2.59-7.51c1.72-1.62,3.79-2.44,6.21-2.44c1.34,0,2.81,0.26,4.43,0.78
		c0.36,0.28,0.54,0.58,0.54,0.91c0,0.33-0.16,0.62-0.49,0.87c-0.33,0.25-0.7,0.37-1.12,0.37c-1.08-0.28-2.08-0.42-3.02-0.42
		c-2.15,0-3.79,0.64-4.9,1.91c-1.12,1.28-1.67,3.17-1.67,5.68c0,2.51,0.66,4.48,1.97,5.89c0.68,0.74,1.48,1.11,2.42,1.11
		c0.94,0,2.43-0.5,4.49-1.5c0.72-0.34,1.2-0.51,1.44-0.51c0.52,0,0.78,0.27,0.78,0.81c0,0.54-0.25,0.99-0.75,1.35
		c-1.61,0.84-3.01,1.46-4.19,1.85c-0.02,0.16-0.03,0.36-0.03,0.6S148.58,58.29,148.72,58.29z"/>
	<path class="st0" d="M162.71,38.08c0.5,0,0.92,0.22,1.26,0.66c0.34,0.44,0.78,1.35,1.32,2.72c1.26,3.25,2.48,8.34,3.68,15.28
		c0.02,0.08,0.03,0.19,0.03,0.34c0,0.15-0.09,0.31-0.28,0.48s-0.46,0.25-0.81,0.25c-0.35,0-0.64-0.08-0.88-0.25s-0.4-0.45-0.48-0.84
		c-0.08-0.39-0.23-1.15-0.45-2.29c-0.48-2.53-0.8-3.85-0.96-3.95c-0.24-0.14-1.03-0.29-2.38-0.45s-2.24-0.24-2.68-0.24
		s-0.7,0.04-0.78,0.12c-0.36,0.32-0.85,2.74-1.47,7.27c-0.08,0.38-0.46,0.57-1.14,0.57s-1.02-0.29-1.02-0.87
		c0-1.44,0.53-4.18,1.58-8.22c1.06-4.05,1.93-6.73,2.63-8.04C160.78,38.93,161.71,38.08,162.71,38.08z M158.55,35.04
		c0-0.41,0.29-0.85,0.88-1.33c0.59-0.48,1.15-0.72,1.67-0.72s0.95,0.08,1.27,0.24c0.32,0.16,0.54,0.34,0.66,0.54
		c0.32,0.52,0.61,0.78,0.87,0.78c0.26,0,0.54-0.24,0.85-0.72c0.31-0.48,0.6-0.72,0.87-0.72s0.5,0.12,0.7,0.36s0.3,0.49,0.3,0.75
		c0,0.72-0.29,1.27-0.88,1.64c-0.59,0.38-1.16,0.57-1.7,0.57c-0.55,0-0.97-0.11-1.27-0.34c-0.3-0.23-0.56-0.46-0.78-0.69
		c-0.22-0.23-0.46-0.34-0.72-0.34c-0.12,0-0.37,0.22-0.75,0.67c-0.38,0.45-0.7,0.67-0.96,0.67c-0.26,0-0.49-0.12-0.7-0.37
		C158.66,35.78,158.55,35.45,158.55,35.04z M162.59,41.4c-0.3,0-0.82,0.88-1.56,2.65c-0.74,1.76-1.11,2.86-1.11,3.27
		c0,0.1,0.02,0.17,0.06,0.21c0.16,0.16,0.79,0.3,1.88,0.42c1.1,0.12,1.82,0.18,2.18,0.18s0.56-0.02,0.6-0.07s0.06-0.21,0.06-0.48
		s-0.27-1.37-0.81-3.29C163.37,42.36,162.93,41.4,162.59,41.4z"/>
	<path class="st0" d="M178.71,37.9c1.4,0,2.58,0.45,3.56,1.35c1.91,1.71,2.87,4.42,2.87,8.12c0,3.7-1.06,6.6-3.17,8.72
		c-1.1,1.06-2.36,1.63-3.8,1.73c-1.89,0-3.37-0.65-4.43-1.94c-1.06-1.3-1.81-2.75-2.26-4.35c-0.45-1.6-0.67-3.16-0.67-4.65
		c0-2.55,0.61-4.65,1.82-6.31C173.92,38.79,175.94,37.9,178.71,37.9z M178.5,40.38c-2.67,0-4.34,1.27-4.99,3.8
		c-0.2,0.68-0.3,1.55-0.3,2.6s0.2,2.28,0.6,3.68c0.54,1.87,1.34,3.19,2.39,3.95c0.62,0.48,1.37,0.72,2.24,0.72
		c0.88,0,1.66-0.39,2.36-1.18s1.18-1.79,1.44-3.01c0.26-1.22,0.39-2.44,0.39-3.68c0-2.19-0.31-3.89-0.94-5.08
		C181.06,40.98,180,40.38,178.5,40.38z"/>
	<path class="st0" d="M194.83,56.83c-0.3-0.22-0.45-0.46-0.45-0.73c0-0.27,0.11-0.49,0.33-0.67c-0.38-2.85-0.57-6.12-0.57-9.81
		c0-1.12,0.05-3.29,0.15-6.52c0.1-0.3,0.3-0.56,0.61-0.78c0.31-0.22,0.6-0.33,0.88-0.33c0.28,0,0.45,0.01,0.51,0.03
		c2.85,0.8,5.33,2.34,7.45,4.62c2.11,2.28,3.22,5.02,3.32,8.21c0,3.51-1.46,5.71-4.37,6.61c-0.84,0.26-1.72,0.39-2.65,0.39
		c-0.93,0-1.74-0.07-2.44-0.21c0.08,0.16,0.12,0.37,0.12,0.64c0,0.27-0.16,0.53-0.49,0.78c-0.33,0.25-0.72,0.37-1.17,0.37
		c-0.45,0-0.73-0.27-0.85-0.81L194.83,56.83z M196.62,45.38c0,3.49,0.2,6.8,0.6,9.93c0.48,0.14,1.29,0.21,2.42,0.21
		c1.14,0,2.23-0.19,3.27-0.57c1.05-0.38,1.6-0.94,1.66-1.67c0.06-0.56,0.09-0.99,0.09-1.29c0-2.59-0.69-4.88-2.08-6.88
		c-1.39-1.99-3.33-3.51-5.82-4.55C196.67,42.91,196.62,44.52,196.62,45.38z"/>
	<path class="st0" d="M216.42,37.9c1.4,0,2.58,0.45,3.56,1.35c1.91,1.71,2.87,4.42,2.87,8.12c0,3.7-1.06,6.6-3.17,8.72
		c-1.1,1.06-2.36,1.63-3.8,1.73c-1.89,0-3.37-0.65-4.43-1.94c-1.06-1.3-1.81-2.75-2.26-4.35c-0.45-1.6-0.67-3.16-0.67-4.65
		c0-2.55,0.61-4.65,1.82-6.31C211.63,38.79,213.65,37.9,216.42,37.9z M216.21,40.38c-2.67,0-4.34,1.27-4.99,3.8
		c-0.2,0.68-0.3,1.55-0.3,2.6s0.2,2.28,0.6,3.68c0.54,1.87,1.34,3.19,2.39,3.95c0.62,0.48,1.37,0.72,2.24,0.72
		c0.88,0,1.66-0.39,2.36-1.18s1.18-1.79,1.44-3.01c0.26-1.22,0.39-2.44,0.39-3.68c0-2.19-0.31-3.89-0.94-5.08
		C218.77,40.98,217.71,40.38,216.21,40.38z"/>
	<path class="st0" d="M231.85,37.99c1.3,0,2.4,0.22,3.3,0.66c0.91,0.44,1.36,1,1.36,1.67c0,0.3-0.07,0.56-0.22,0.78
		c-0.15,0.22-0.37,0.33-0.66,0.33c-0.29,0-0.91-0.22-1.87-0.67s-1.83-0.67-2.62-0.67c-0.79,0-1.6,0.25-2.44,0.75
		c-0.84,0.5-1.26,1.11-1.26,1.82c0,0.98,0.51,1.7,1.52,2.15c0.76,0.34,1.84,0.64,3.26,0.91c1.42,0.27,2.57,0.82,3.47,1.65
		c0.9,0.83,1.35,2.08,1.35,3.75c0,2.55-0.77,4.44-2.3,5.65c-0.86,0.68-2.07,1.02-3.63,1.02c-1.57,0-3.12-0.43-4.68-1.29
		c-1.02-0.54-1.53-1.08-1.53-1.61c0-0.2,0.08-0.42,0.25-0.66c0.17-0.24,0.4-0.44,0.7-0.6c0.3-0.16,0.57-0.18,0.82-0.08
		c0.25,0.11,0.65,0.3,1.21,0.58s0.97,0.47,1.23,0.57c0.84,0.32,1.62,0.48,2.36,0.48c0.74,0,1.45-0.36,2.14-1.09
		c0.69-0.73,1.03-1.62,1.03-2.68c0-1.4-0.7-2.37-2.09-2.93c-0.68-0.28-1.45-0.49-2.3-0.63c-1.77-0.32-3.11-0.85-4.01-1.6
		c-0.9-0.75-1.35-1.88-1.35-3.39c0-1.51,0.65-2.71,1.94-3.57C228.15,38.42,229.82,37.99,231.85,37.99z"/>
	<path class="st0" d="M254.55,38.23c1.34,0,2.81,0.26,4.43,0.78c0.36,0.28,0.54,0.58,0.54,0.91c0,0.33-0.16,0.62-0.49,0.87
		c-0.33,0.25-0.7,0.37-1.12,0.37c-1.08-0.28-2.08-0.42-3.02-0.42c-2.15,0-3.79,0.64-4.9,1.91c-1.12,1.28-1.67,3.17-1.67,5.68
		c0,2.51,0.66,4.48,1.97,5.89c0.68,0.74,1.48,1.11,2.42,1.11c0.94,0,2.43-0.5,4.49-1.5c0.72-0.34,1.2-0.51,1.44-0.51
		c0.52,0,0.78,0.27,0.78,0.81c0,0.54-0.25,0.99-0.75,1.35c-1.71,0.9-3.05,1.5-4.01,1.81c-0.96,0.31-1.78,0.46-2.48,0.46
		c-1.44,0-2.66-0.53-3.68-1.58c-1.81-1.95-2.72-4.62-2.72-8s0.86-5.88,2.59-7.51C250.07,39.04,252.14,38.23,254.55,38.23z"/>
	<path class="st0" d="M270.04,37.9c1.4,0,2.58,0.45,3.56,1.35c1.91,1.71,2.87,4.42,2.87,8.12c0,3.7-1.06,6.6-3.17,8.72
		c-1.1,1.06-2.36,1.63-3.8,1.73c-1.89,0-3.37-0.65-4.43-1.94c-1.06-1.3-1.81-2.75-2.26-4.35c-0.45-1.6-0.67-3.16-0.67-4.65
		c0-2.55,0.61-4.65,1.82-6.31C265.25,38.79,267.27,37.9,270.04,37.9z M269.83,40.38c-2.67,0-4.34,1.27-4.99,3.8
		c-0.2,0.68-0.3,1.55-0.3,2.6s0.2,2.28,0.6,3.68c0.54,1.87,1.34,3.19,2.39,3.95c0.62,0.48,1.37,0.72,2.24,0.72
		c0.88,0,1.66-0.39,2.36-1.18s1.18-1.79,1.44-3.01c0.26-1.22,0.39-2.44,0.39-3.68c0-2.19-0.31-3.89-0.94-5.08
		C272.39,40.98,271.33,40.38,269.83,40.38z"/>
	<path class="st0" d="M290.95,37.99c0.32,0,0.61,0.13,0.87,0.4c0.26,0.27,0.39,0.58,0.39,0.94c0,7.8,0.03,12.51,0.1,14.13
		s0.1,2.46,0.1,2.5c0,0.44-0.12,0.85-0.36,1.24c-0.24,0.39-0.5,0.58-0.79,0.58s-0.51-0.02-0.66-0.04s-0.28-0.06-0.4-0.1
		s-0.24-0.12-0.36-0.24l-0.3-0.3c-0.08-0.08-0.18-0.23-0.31-0.46c-0.13-0.23-0.23-0.41-0.31-0.55c-0.08-0.14-0.21-0.38-0.37-0.73
		c-0.17-0.35-0.54-1.06-1.11-2.14c-0.57-1.08-1.08-2.04-1.54-2.9c-1.58-2.89-3.04-5.17-4.4-6.85c0,6.48-0.18,10.98-0.54,13.49
		c-0.06,0.48-0.43,0.72-1.11,0.72c-0.32,0-0.58-0.08-0.79-0.24c-0.21-0.16-0.31-0.42-0.31-0.78s0.07-2.33,0.22-5.92
		c0.15-3.59,0.22-5.83,0.22-6.71c0-0.89,0-1.45,0-1.69c0-1.44,0.11-2.24,0.33-2.42c0.22-0.18,0.45-0.27,0.69-0.27
		c1.1,0,2.77,1.79,5.02,5.38c0.44,0.7,1.28,2.16,2.51,4.38c1.24,2.22,1.97,3.59,2.21,4.11L289.6,41.1c0-1.71,0.19-2.69,0.57-2.93
		C290.37,38.05,290.63,37.99,290.95,37.99z"/>
	<path class="st0" d="M301.39,37.99c1.3,0,2.4,0.22,3.3,0.66c0.91,0.44,1.36,1,1.36,1.67c0,0.3-0.07,0.56-0.22,0.78
		c-0.15,0.22-0.37,0.33-0.66,0.33c-0.29,0-0.91-0.22-1.87-0.67s-1.83-0.67-2.62-0.67c-0.79,0-1.6,0.25-2.44,0.75
		c-0.84,0.5-1.26,1.11-1.26,1.82c0,0.98,0.51,1.7,1.52,2.15c0.76,0.34,1.84,0.64,3.26,0.91c1.42,0.27,2.57,0.82,3.47,1.65
		c0.9,0.83,1.35,2.08,1.35,3.75c0,2.55-0.77,4.44-2.3,5.65c-0.86,0.68-2.07,1.02-3.63,1.02c-1.57,0-3.12-0.43-4.68-1.29
		c-1.02-0.54-1.53-1.08-1.53-1.61c0-0.2,0.08-0.42,0.25-0.66c0.17-0.24,0.4-0.44,0.7-0.6c0.3-0.16,0.57-0.18,0.82-0.08
		c0.25,0.11,0.65,0.3,1.21,0.58s0.97,0.47,1.23,0.57c0.84,0.32,1.62,0.48,2.36,0.48c0.74,0,1.45-0.36,2.14-1.09
		c0.69-0.73,1.03-1.62,1.03-2.68c0-1.4-0.7-2.37-2.09-2.93c-0.68-0.28-1.45-0.49-2.3-0.63c-1.77-0.32-3.11-0.85-4.01-1.6
		c-0.9-0.75-1.35-1.88-1.35-3.39c0-1.51,0.65-2.71,1.94-3.57C297.69,38.42,299.35,37.99,301.39,37.99z"/>
	<path class="st0" d="M308.8,47.5c-0.28-0.18-0.42-0.44-0.42-0.78c0-0.34,0.11-0.65,0.33-0.93c-0.08-1.99-0.12-4.1-0.12-6.31
		c0.12-0.48,0.3-0.83,0.55-1.05c0.25-0.22,0.61-0.36,1.09-0.42c2.63,0.12,5.48,0.18,8.55,0.18c0.76,0.16,1.14,0.49,1.14,0.99
		c0,0.84-0.82,1.33-2.45,1.47c-0.44,0.02-0.92,0.03-1.44,0.03h-1.94c-0.38,0-1.43-0.08-3.14-0.24c0,2.49,0.04,4.21,0.12,5.14
		c1.06,0.02,3.09,0.03,6.1,0.03c0.72,0.14,1.08,0.46,1.08,0.97c0,0.51-0.29,0.9-0.87,1.18c-0.06,0.04-0.17,0.08-0.33,0.12
		l-5.17-0.09c-0.32,0-0.58,0.02-0.78,0.06l0.12,5.14c0,1.16-0.03,1.98-0.09,2.48l6.94-0.09c0.64,0.1,0.96,0.37,0.96,0.81
		c0,0.3-0.13,0.6-0.4,0.9c-0.27,0.3-0.58,0.49-0.94,0.57l-7.66,0.12c-0.46,0-0.78-0.08-0.96-0.25c-0.18-0.17-0.27-0.45-0.27-0.85
		c0.08-0.56,0.12-1.46,0.12-2.69V51.9L308.8,47.5z"/>
	<path class="st0" d="M321.18,53.63l0.03-2.33l0.27-12.5c0-0.24,0.13-0.43,0.39-0.57c0.26-0.14,0.59-0.21,0.99-0.21
		c0.96,0,1.44,0.34,1.44,1.02c0,0.22-0.11,1.89-0.34,5.02c-0.23,3.13-0.34,5-0.34,5.62v3.17c0,1.5,0.1,2.31,0.3,2.45
		c0.3,0.1,0.65,0.15,1.05,0.15l4.31-0.3c0.94,0,1.41,0.34,1.41,1.02c0,0.54-0.25,0.93-0.76,1.18c-0.51,0.25-1.01,0.39-1.51,0.42
		c-0.5,0.03-1.11,0.04-1.82,0.04c-3.13,0-4.83-0.1-5.08-0.3c-0.14-0.12-0.22-0.57-0.24-1.36c-0.02-0.79-0.04-1.34-0.04-1.66
		C321.19,54.18,321.18,53.89,321.18,53.63z"/>
	<path class="st0" d="M335.45,46.33c1.56,0.26,2.98,0.39,4.28,0.39s2.12-0.01,2.48-0.03c-0.04-1.52-0.06-2.97-0.06-4.37
		s0-2.34,0-2.84c0-0.5,0.02-0.81,0.06-0.94c0.04-0.13,0.17-0.25,0.39-0.37c0.22-0.12,0.54-0.18,0.96-0.18c0.6,0,0.9,0.36,0.9,1.08
		v10.59c0,2.19-0.05,4.61-0.15,7.24c-0.02,0.58-0.51,0.87-1.47,0.87c-0.48,0-0.72-0.29-0.72-0.87l0.12-7.93
		c-0.64,0.04-1.51,0.06-2.62,0.06s-2.5-0.12-4.17-0.36c0,2.63,0.12,5.38,0.36,8.25c0.02,0.32-0.12,0.56-0.42,0.73
		c-0.3,0.17-0.67,0.25-1.12,0.25c-0.45,0-0.69-0.23-0.73-0.69c-0.26-2.83-0.39-5.62-0.39-8.37l0.18-9.33c0-0.4,0.15-0.69,0.45-0.88
		c0.3-0.19,0.62-0.28,0.96-0.28c0.56,0,0.84,0.27,0.84,0.81L335.45,46.33z"/>
	<path class="st0" d="M354.65,37.9c1.4,0,2.58,0.45,3.56,1.35c1.91,1.71,2.87,4.42,2.87,8.12c0,3.7-1.06,6.6-3.17,8.72
		c-1.1,1.06-2.36,1.63-3.8,1.73c-1.89,0-3.37-0.65-4.43-1.94c-1.06-1.3-1.81-2.75-2.26-4.35c-0.45-1.6-0.67-3.16-0.67-4.65
		c0-2.55,0.61-4.65,1.82-6.31C349.85,38.79,351.88,37.9,354.65,37.9z M354.44,40.38c-2.67,0-4.34,1.27-4.99,3.8
		c-0.2,0.68-0.3,1.55-0.3,2.6s0.2,2.28,0.6,3.68c0.54,1.87,1.34,3.19,2.39,3.95c0.62,0.48,1.37,0.72,2.24,0.72
		c0.88,0,1.66-0.39,2.36-1.18s1.18-1.79,1.44-3.01c0.26-1.22,0.39-2.44,0.39-3.68c0-2.19-0.31-3.89-0.94-5.08
		C357,40.98,355.93,40.38,354.44,40.38z"/>
	<path class="st0" d="M370.08,37.99c1.3,0,2.4,0.22,3.3,0.66c0.91,0.44,1.36,1,1.36,1.67c0,0.3-0.07,0.56-0.22,0.78
		s-0.37,0.33-0.66,0.33s-0.91-0.22-1.87-0.67s-1.83-0.67-2.62-0.67c-0.79,0-1.6,0.25-2.44,0.75c-0.84,0.5-1.26,1.11-1.26,1.82
		c0,0.98,0.51,1.7,1.52,2.15c0.76,0.34,1.84,0.64,3.26,0.91c1.42,0.27,2.57,0.82,3.47,1.65c0.9,0.83,1.35,2.08,1.35,3.75
		c0,2.55-0.77,4.44-2.3,5.65c-0.86,0.68-2.07,1.02-3.63,1.02c-1.56,0-3.12-0.43-4.68-1.29c-1.02-0.54-1.53-1.08-1.53-1.61
		c0-0.2,0.08-0.42,0.25-0.66c0.17-0.24,0.4-0.44,0.7-0.6s0.57-0.18,0.82-0.08c0.25,0.11,0.65,0.3,1.21,0.58
		c0.56,0.28,0.97,0.47,1.23,0.57c0.84,0.32,1.62,0.48,2.36,0.48c0.74,0,1.45-0.36,2.14-1.09c0.69-0.73,1.03-1.62,1.03-2.68
		c0-1.4-0.7-2.37-2.09-2.93c-0.68-0.28-1.45-0.49-2.3-0.63c-1.78-0.32-3.11-0.85-4.01-1.6c-0.9-0.75-1.35-1.88-1.35-3.39
		c0-1.51,0.65-2.71,1.94-3.57S368.04,37.99,370.08,37.99z"/>
	<path class="st0" d="M384.37,47.5c-0.28-0.18-0.42-0.44-0.42-0.78c0-0.34,0.11-0.65,0.33-0.93c-0.08-1.99-0.12-4.1-0.12-6.31
		c0.12-0.48,0.3-0.83,0.55-1.05c0.25-0.22,0.61-0.36,1.09-0.42c2.63,0.12,5.48,0.18,8.55,0.18c0.76,0.16,1.14,0.49,1.14,0.99
		c0,0.84-0.82,1.33-2.45,1.47c-0.44,0.02-0.92,0.03-1.44,0.03h-1.94c-0.38,0-1.43-0.08-3.14-0.24c0,2.49,0.04,4.21,0.12,5.14
		c1.06,0.02,3.09,0.03,6.1,0.03c0.72,0.14,1.08,0.46,1.08,0.97c0,0.51-0.29,0.9-0.87,1.18c-0.06,0.04-0.17,0.08-0.33,0.12
		l-5.17-0.09c-0.32,0-0.58,0.02-0.78,0.06L386.8,53c0,1.16-0.03,1.98-0.09,2.48l6.94-0.09c0.64,0.1,0.96,0.37,0.96,0.81
		c0,0.3-0.13,0.6-0.4,0.9c-0.27,0.3-0.58,0.49-0.94,0.57l-7.66,0.12c-0.46,0-0.78-0.08-0.96-0.25c-0.18-0.17-0.27-0.45-0.27-0.85
		c0.08-0.56,0.12-1.46,0.12-2.69V51.9L384.37,47.5z"/>
	<path class="st0" d="M412.87,38.23c1.33,0,2.81,0.26,4.43,0.78c0.36,0.28,0.54,0.58,0.54,0.91c0,0.33-0.16,0.62-0.49,0.87
		c-0.33,0.25-0.7,0.37-1.12,0.37c-1.08-0.28-2.08-0.42-3.02-0.42c-2.15,0-3.79,0.64-4.91,1.91c-1.12,1.28-1.67,3.17-1.67,5.68
		c0,2.51,0.66,4.48,1.97,5.89c0.68,0.74,1.49,1.11,2.42,1.11c0.94,0,2.43-0.5,4.49-1.5c0.72-0.34,1.2-0.51,1.44-0.51
		c0.52,0,0.78,0.27,0.78,0.81c0,0.54-0.25,0.99-0.75,1.35c-1.71,0.9-3.05,1.5-4.01,1.81c-0.96,0.31-1.79,0.46-2.48,0.46
		c-1.44,0-2.66-0.53-3.68-1.58c-1.81-1.95-2.72-4.62-2.72-8s0.86-5.88,2.59-7.51C408.39,39.04,410.46,38.23,412.87,38.23z"/>
	<path class="st0" d="M428.37,37.9c1.4,0,2.58,0.45,3.56,1.35c1.91,1.71,2.87,4.42,2.87,8.12c0,3.7-1.06,6.6-3.17,8.72
		c-1.1,1.06-2.36,1.63-3.8,1.73c-1.89,0-3.37-0.65-4.43-1.94c-1.06-1.3-1.81-2.75-2.26-4.35c-0.45-1.6-0.67-3.16-0.67-4.65
		c0-2.55,0.61-4.65,1.82-6.31C423.57,38.79,425.59,37.9,428.37,37.9z M428.16,40.38c-2.67,0-4.34,1.27-5,3.8
		c-0.2,0.68-0.3,1.55-0.3,2.6s0.2,2.28,0.6,3.68c0.54,1.87,1.33,3.19,2.39,3.95c0.62,0.48,1.37,0.72,2.24,0.72s1.67-0.39,2.36-1.18
		c0.7-0.79,1.18-1.79,1.44-3.01c0.26-1.22,0.39-2.44,0.39-3.68c0-2.19-0.31-3.89-0.94-5.08C430.71,40.98,429.65,40.38,428.16,40.38z
		"/>
	<path class="st0" d="M449.27,37.99c0.32,0,0.61,0.13,0.87,0.4c0.26,0.27,0.39,0.58,0.39,0.94c0,7.8,0.04,12.51,0.11,14.13
		c0.07,1.62,0.1,2.46,0.1,2.5c0,0.44-0.12,0.85-0.36,1.24c-0.24,0.39-0.5,0.58-0.79,0.58c-0.29,0-0.51-0.02-0.66-0.04
		s-0.28-0.06-0.4-0.1c-0.12-0.04-0.24-0.12-0.36-0.24l-0.3-0.3c-0.08-0.08-0.18-0.23-0.31-0.46c-0.13-0.23-0.23-0.41-0.31-0.55
		c-0.08-0.14-0.21-0.38-0.37-0.73c-0.17-0.35-0.54-1.06-1.11-2.14s-1.08-2.04-1.54-2.9c-1.58-2.89-3.04-5.17-4.4-6.85
		c0,6.48-0.18,10.98-0.54,13.49c-0.06,0.48-0.43,0.72-1.11,0.72c-0.32,0-0.58-0.08-0.79-0.24c-0.21-0.16-0.31-0.42-0.31-0.78
		s0.07-2.33,0.22-5.92c0.15-3.59,0.22-5.83,0.22-6.71c0-0.89,0-1.45,0-1.69c0-1.44,0.11-2.24,0.33-2.42
		c0.22-0.18,0.45-0.27,0.69-0.27c1.1,0,2.77,1.79,5.02,5.38c0.44,0.7,1.28,2.16,2.51,4.38s1.97,3.59,2.21,4.11l-0.36-12.41
		c0-1.71,0.19-2.69,0.57-2.93C448.69,38.05,448.95,37.99,449.27,37.99z"/>
	<path class="st0" d="M458.03,38.41l3.32-0.06c1.48,0,2.21,0.39,2.21,1.17c0,0.28-0.04,0.47-0.12,0.58
		c-0.08,0.11-0.14,0.19-0.18,0.25c-0.04,0.06-0.12,0.11-0.24,0.15c-0.24,0.08-0.44,0.13-0.6,0.15c-0.16,0.02-0.27,0.03-0.33,0.03
		c-0.22,0.04-0.59,0.07-1.11,0.09c-0.52,0.02-1.27,0.03-2.26,0.03c-0.99,0-2.2-0.04-3.63-0.12v5.5h6.1c0.22,0,0.42,0.1,0.61,0.3
		c0.19,0.2,0.28,0.42,0.28,0.66c0,0.92-0.39,1.38-1.17,1.38h-5.83l0.12,7.84c0,1.02-0.34,1.53-1.03,1.53s-1.09-0.46-1.21-1.38
		c-0.06-0.3-0.1-2.84-0.11-7.61s-0.03-7.52-0.07-8.24c-0.74,0.08-1.11-0.34-1.11-1.26c0-0.24,0.1-0.5,0.3-0.79
		c0.2-0.29,0.37-0.44,0.52-0.46c0.15-0.02,0.34-0.03,0.57-0.03c0.23,0,0.79,0.04,1.69,0.12C456.01,38.35,457.09,38.41,458.03,38.41z
		"/>
	<path class="st0" d="M464.61,47.5c-0.28-0.18-0.42-0.44-0.42-0.78c0-0.34,0.11-0.65,0.33-0.93c-0.08-1.99-0.12-4.1-0.12-6.31
		c0.12-0.48,0.3-0.83,0.55-1.05c0.25-0.22,0.61-0.36,1.09-0.42c2.63,0.12,5.48,0.18,8.55,0.18c0.76,0.16,1.14,0.49,1.14,0.99
		c0,0.84-0.82,1.33-2.45,1.47c-0.44,0.02-0.92,0.03-1.44,0.03h-1.94c-0.38,0-1.43-0.08-3.14-0.24c0,2.49,0.04,4.21,0.12,5.14
		c1.06,0.02,3.09,0.03,6.1,0.03c0.72,0.14,1.08,0.46,1.08,0.97c0,0.51-0.29,0.9-0.87,1.18c-0.06,0.04-0.17,0.08-0.33,0.12
		l-5.17-0.09c-0.32,0-0.58,0.02-0.78,0.06l0.12,5.14c0,1.16-0.03,1.98-0.09,2.48l6.94-0.09c0.64,0.1,0.96,0.37,0.96,0.81
		c0,0.3-0.13,0.6-0.4,0.9c-0.27,0.3-0.58,0.49-0.94,0.57l-7.66,0.12c-0.46,0-0.78-0.08-0.96-0.25c-0.18-0.17-0.27-0.45-0.27-0.85
		c0.08-0.56,0.12-1.46,0.12-2.69V51.9L464.61,47.5z"/>
	<path class="st0" d="M479.26,57.47c-0.32,0.29-0.66,0.43-1.03,0.43c-0.37,0-0.62-0.24-0.76-0.72c-0.06-2.63-0.09-5.25-0.09-7.87
		l-0.09-7.54c0-1.51,0.67-2.55,2-3.11c1.08-0.5,2.35-0.75,3.83-0.75c0.76,0,1.57,0.18,2.44,0.55c0.87,0.37,1.64,0.91,2.33,1.62
		c0.69,0.71,1.03,1.48,1.03,2.3c0,0.83-0.38,1.71-1.14,2.66c-0.76,0.95-1.69,1.78-2.81,2.51c-1.12,0.73-2.2,1.27-3.26,1.63
		c1.85,1.3,3.47,2.69,4.85,4.17c1.38,1.49,2.06,2.64,2.06,3.45c0,0.26-0.13,0.5-0.39,0.73c-0.26,0.23-0.57,0.34-0.94,0.34
		c-0.37,0-0.68-0.16-0.94-0.48c-0.44-1.06-1.27-2.17-2.5-3.33s-2.66-2.28-4.29-3.33l0.18,5.74
		C479.74,56.86,479.58,57.18,479.26,57.47z M484.12,45.85c1.66-1.06,2.5-2.01,2.5-2.86c0-0.85-0.42-1.5-1.26-1.96
		c-0.84-0.46-1.83-0.69-2.98-0.69s-2.06,0.14-2.74,0.42c-0.02,1.02-0.03,3.27-0.03,6.76C480.96,47.47,482.46,46.91,484.12,45.85z"/>
	<path class="st0" d="M491.41,47.5c-0.28-0.18-0.42-0.44-0.42-0.78c0-0.34,0.11-0.65,0.33-0.93c-0.08-1.99-0.12-4.1-0.12-6.31
		c0.12-0.48,0.3-0.83,0.55-1.05c0.25-0.22,0.61-0.36,1.09-0.42c2.63,0.12,5.48,0.18,8.55,0.18c0.76,0.16,1.14,0.49,1.14,0.99
		c0,0.84-0.82,1.33-2.45,1.47c-0.44,0.02-0.92,0.03-1.44,0.03h-1.94c-0.38,0-1.43-0.08-3.14-0.24c0,2.49,0.04,4.21,0.12,5.14
		c1.06,0.02,3.09,0.03,6.1,0.03c0.72,0.14,1.08,0.46,1.08,0.97c0,0.51-0.29,0.9-0.87,1.18c-0.06,0.04-0.17,0.08-0.33,0.12
		l-5.17-0.09c-0.32,0-0.58,0.02-0.78,0.06l0.12,5.14c0,1.16-0.03,1.98-0.09,2.48l6.94-0.09c0.64,0.1,0.96,0.37,0.96,0.81
		c0,0.3-0.13,0.6-0.4,0.9c-0.27,0.3-0.58,0.49-0.94,0.57l-7.66,0.12c-0.46,0-0.78-0.08-0.96-0.25c-0.18-0.17-0.27-0.45-0.27-0.85
		c0.08-0.56,0.12-1.46,0.12-2.69V51.9L491.41,47.5z M493.08,35.16c0-0.31,0.51-0.86,1.53-1.66s1.75-1.2,2.2-1.2s1.16,0.37,2.14,1.12
		c0.98,0.75,1.46,1.35,1.46,1.81c0,0.28-0.12,0.52-0.36,0.72c-0.24,0.2-0.44,0.3-0.6,0.3s-0.6-0.32-1.32-0.96
		c-0.72-0.64-1.17-0.96-1.36-0.96s-0.62,0.33-1.29,0.99c-0.67,0.66-1.14,0.99-1.42,0.99s-0.51-0.11-0.7-0.34
		S493.08,35.47,493.08,35.16z"/>
	<path class="st0" d="M516.41,37.99c0.32,0,0.61,0.13,0.87,0.4c0.26,0.27,0.39,0.58,0.39,0.94c0,7.8,0.04,12.51,0.11,14.13
		c0.07,1.62,0.1,2.46,0.1,2.5c0,0.44-0.12,0.85-0.36,1.24c-0.24,0.39-0.5,0.58-0.79,0.58c-0.29,0-0.51-0.02-0.66-0.04
		s-0.28-0.06-0.4-0.1c-0.12-0.04-0.24-0.12-0.36-0.24l-0.3-0.3c-0.08-0.08-0.18-0.23-0.31-0.46c-0.13-0.23-0.23-0.41-0.31-0.55
		c-0.08-0.14-0.21-0.38-0.37-0.73c-0.17-0.35-0.54-1.06-1.11-2.14s-1.08-2.04-1.54-2.9c-1.58-2.89-3.04-5.17-4.4-6.85
		c0,6.48-0.18,10.98-0.54,13.49c-0.06,0.48-0.43,0.72-1.11,0.72c-0.32,0-0.58-0.08-0.79-0.24c-0.21-0.16-0.31-0.42-0.31-0.78
		s0.07-2.33,0.22-5.92c0.15-3.59,0.22-5.83,0.22-6.71c0-0.89,0-1.45,0-1.69c0-1.44,0.11-2.24,0.33-2.42
		c0.22-0.18,0.45-0.27,0.69-0.27c1.1,0,2.77,1.79,5.02,5.38c0.44,0.7,1.28,2.16,2.51,4.38s1.97,3.59,2.21,4.11l-0.36-12.41
		c0-1.71,0.19-2.69,0.57-2.93C515.83,38.05,516.09,37.99,516.41,37.99z"/>
	<path class="st0" d="M528.94,38.23c1.33,0,2.81,0.26,4.43,0.78c0.36,0.28,0.54,0.58,0.54,0.91c0,0.33-0.16,0.62-0.49,0.87
		c-0.33,0.25-0.7,0.37-1.12,0.37c-1.08-0.28-2.08-0.42-3.02-0.42c-2.15,0-3.79,0.64-4.91,1.91c-1.12,1.28-1.67,3.17-1.67,5.68
		c0,2.51,0.66,4.48,1.97,5.89c0.68,0.74,1.49,1.11,2.42,1.11c0.94,0,2.43-0.5,4.49-1.5c0.72-0.34,1.2-0.51,1.44-0.51
		c0.52,0,0.78,0.27,0.78,0.81c0,0.54-0.25,0.99-0.75,1.35c-1.71,0.9-3.05,1.5-4.01,1.81c-0.96,0.31-1.79,0.46-2.48,0.46
		c-1.44,0-2.66-0.53-3.68-1.58c-1.81-1.95-2.72-4.62-2.72-8s0.86-5.88,2.59-7.51C524.46,39.04,526.53,38.23,528.94,38.23z"/>
	<path class="st0" d="M538.25,38.77c0.31-0.2,0.66-0.3,1.06-0.3s0.65,0.23,0.75,0.69c0.02,2.31,0.06,5.77,0.12,10.38
		c0,2.81-0.08,5.19-0.24,7.15c-0.04,0.3-0.22,0.56-0.55,0.79c-0.33,0.23-0.66,0.34-1,0.34c-0.56,0-0.84-0.29-0.84-0.87
		c0.2-1.99,0.3-4.47,0.3-7.42l-0.18-10.05C537.75,39.21,537.94,38.97,538.25,38.77z"/>
	<path class="st0" d="M550.05,38.08c0.5,0,0.92,0.22,1.26,0.66c0.34,0.44,0.78,1.35,1.32,2.72c1.26,3.25,2.48,8.34,3.68,15.28
		c0.02,0.08,0.03,0.19,0.03,0.34c0,0.15-0.09,0.31-0.28,0.48c-0.19,0.17-0.46,0.25-0.81,0.25c-0.35,0-0.64-0.08-0.88-0.25
		s-0.4-0.45-0.48-0.84c-0.08-0.39-0.23-1.15-0.45-2.29c-0.48-2.53-0.8-3.85-0.96-3.95c-0.24-0.14-1.03-0.29-2.38-0.45
		c-1.35-0.16-2.24-0.24-2.68-0.24c-0.44,0-0.7,0.04-0.78,0.12c-0.36,0.32-0.85,2.74-1.46,7.27c-0.08,0.38-0.46,0.57-1.14,0.57
		s-1.02-0.29-1.02-0.87c0-1.44,0.53-4.18,1.58-8.22c1.06-4.05,1.93-6.73,2.63-8.04C548.12,38.93,549.06,38.08,550.05,38.08z
		 M549.93,41.4c-0.3,0-0.82,0.88-1.55,2.65c-0.74,1.76-1.11,2.86-1.11,3.27c0,0.1,0.02,0.17,0.06,0.21c0.16,0.16,0.79,0.3,1.88,0.42
		s1.82,0.18,2.18,0.18c0.36,0,0.56-0.02,0.6-0.07s0.06-0.21,0.06-0.48s-0.27-1.37-0.81-3.29C550.71,42.36,550.27,41.4,549.93,41.4z"
		/>
	<path class="st0" d="M564.86,37.99c1.3,0,2.4,0.22,3.3,0.66c0.91,0.44,1.36,1,1.36,1.67c0,0.3-0.07,0.56-0.22,0.78
		s-0.37,0.33-0.66,0.33s-0.91-0.22-1.87-0.67s-1.83-0.67-2.62-0.67c-0.79,0-1.6,0.25-2.44,0.75c-0.84,0.5-1.26,1.11-1.26,1.82
		c0,0.98,0.51,1.7,1.53,2.15c0.76,0.34,1.84,0.64,3.26,0.91c1.42,0.27,2.57,0.82,3.47,1.65c0.9,0.83,1.35,2.08,1.35,3.75
		c0,2.55-0.77,4.44-2.3,5.65c-0.86,0.68-2.07,1.02-3.63,1.02c-1.57,0-3.13-0.43-4.68-1.29c-1.02-0.54-1.53-1.08-1.53-1.61
		c0-0.2,0.08-0.42,0.25-0.66c0.17-0.24,0.4-0.44,0.7-0.6s0.57-0.18,0.82-0.08c0.25,0.11,0.65,0.3,1.21,0.58
		c0.56,0.28,0.97,0.47,1.23,0.57c0.84,0.32,1.62,0.48,2.36,0.48c0.74,0,1.45-0.36,2.14-1.09c0.69-0.73,1.03-1.62,1.03-2.68
		c0-1.4-0.7-2.37-2.09-2.93c-0.68-0.28-1.45-0.49-2.3-0.63c-1.77-0.32-3.11-0.85-4.01-1.6c-0.9-0.75-1.35-1.88-1.35-3.39
		c0-1.51,0.65-2.71,1.94-3.57C561.16,38.42,562.82,37.99,564.86,37.99z"/>
	<path class="st0" d="M579.27,56.83c-0.3-0.22-0.45-0.46-0.45-0.73c0-0.27,0.11-0.49,0.33-0.67c-0.38-2.85-0.57-6.12-0.57-9.81
		c0-1.12,0.05-3.29,0.15-6.52c0.1-0.3,0.3-0.56,0.61-0.78c0.31-0.22,0.6-0.33,0.88-0.33c0.28,0,0.45,0.01,0.51,0.03
		c2.85,0.8,5.33,2.34,7.45,4.62c2.11,2.28,3.22,5.02,3.32,8.21c0,3.51-1.46,5.71-4.37,6.61c-0.84,0.26-1.72,0.39-2.65,0.39
		c-0.93,0-1.74-0.07-2.44-0.21c0.08,0.16,0.12,0.37,0.12,0.64c0,0.27-0.16,0.53-0.49,0.78c-0.33,0.25-0.72,0.37-1.17,0.37
		c-0.45,0-0.73-0.27-0.85-0.81L579.27,56.83z M581.06,45.38c0,3.49,0.2,6.8,0.6,9.93c0.48,0.14,1.29,0.21,2.42,0.21
		c1.14,0,2.23-0.19,3.28-0.57c1.05-0.38,1.6-0.94,1.66-1.67c0.06-0.56,0.09-0.99,0.09-1.29c0-2.59-0.69-4.88-2.08-6.88
		s-3.33-3.51-5.82-4.55C581.11,42.91,581.06,44.52,581.06,45.38z"/>
	<path class="st0" d="M593.36,47.5c-0.28-0.18-0.42-0.44-0.42-0.78c0-0.34,0.11-0.65,0.33-0.93c-0.08-1.99-0.12-4.1-0.12-6.31
		c0.12-0.48,0.3-0.83,0.55-1.05c0.25-0.22,0.61-0.36,1.09-0.42c2.63,0.12,5.48,0.18,8.55,0.18c0.76,0.16,1.14,0.49,1.14,0.99
		c0,0.84-0.82,1.33-2.45,1.47c-0.44,0.02-0.92,0.03-1.44,0.03h-1.94c-0.38,0-1.43-0.08-3.14-0.24c0,2.49,0.04,4.21,0.12,5.14
		c1.06,0.02,3.09,0.03,6.1,0.03c0.72,0.14,1.08,0.46,1.08,0.97c0,0.51-0.29,0.9-0.87,1.18c-0.06,0.04-0.17,0.08-0.33,0.12
		l-5.17-0.09c-0.32,0-0.58,0.02-0.78,0.06l0.12,5.14c0,1.16-0.03,1.98-0.09,2.48l6.94-0.09c0.64,0.1,0.96,0.37,0.96,0.81
		c0,0.3-0.13,0.6-0.4,0.9c-0.27,0.3-0.58,0.49-0.94,0.57l-7.66,0.12c-0.46,0-0.78-0.08-0.96-0.25c-0.18-0.17-0.27-0.45-0.27-0.85
		c0.08-0.56,0.12-1.46,0.12-2.69V51.9L593.36,47.5z"/>
	<path class="st0" d="M619.76,37.99c1.3,0,2.4,0.22,3.3,0.66c0.91,0.44,1.36,1,1.36,1.67c0,0.3-0.07,0.56-0.22,0.78
		s-0.37,0.33-0.66,0.33s-0.91-0.22-1.87-0.67s-1.83-0.67-2.62-0.67c-0.79,0-1.6,0.25-2.44,0.75c-0.84,0.5-1.26,1.11-1.26,1.82
		c0,0.98,0.51,1.7,1.53,2.15c0.76,0.34,1.84,0.64,3.26,0.91c1.42,0.27,2.57,0.82,3.47,1.65c0.9,0.83,1.35,2.08,1.35,3.75
		c0,2.55-0.77,4.44-2.3,5.65c-0.86,0.68-2.07,1.02-3.63,1.02c-1.57,0-3.13-0.43-4.68-1.29c-1.02-0.54-1.53-1.08-1.53-1.61
		c0-0.2,0.08-0.42,0.25-0.66c0.17-0.24,0.4-0.44,0.7-0.6s0.57-0.18,0.82-0.08c0.25,0.11,0.65,0.3,1.21,0.58
		c0.56,0.28,0.97,0.47,1.23,0.57c0.84,0.32,1.62,0.48,2.36,0.48c0.74,0,1.45-0.36,2.14-1.09c0.69-0.73,1.03-1.62,1.03-2.68
		c0-1.4-0.7-2.37-2.09-2.93c-0.68-0.28-1.45-0.49-2.3-0.63c-1.77-0.32-3.11-0.85-4.01-1.6c-0.9-0.75-1.35-1.88-1.35-3.39
		c0-1.51,0.65-2.71,1.94-3.57C616.06,38.42,617.73,37.99,619.76,37.99z"/>
	<path class="st0" d="M633.28,38.08c0.5,0,0.92,0.22,1.26,0.66c0.34,0.44,0.78,1.35,1.32,2.72c1.26,3.25,2.48,8.34,3.68,15.28
		c0.02,0.08,0.03,0.19,0.03,0.34c0,0.15-0.09,0.31-0.28,0.48c-0.19,0.17-0.46,0.25-0.81,0.25c-0.35,0-0.64-0.08-0.88-0.25
		s-0.4-0.45-0.48-0.84c-0.08-0.39-0.23-1.15-0.45-2.29c-0.48-2.53-0.8-3.85-0.96-3.95c-0.24-0.14-1.03-0.29-2.38-0.45
		c-1.35-0.16-2.24-0.24-2.68-0.24c-0.44,0-0.7,0.04-0.78,0.12c-0.36,0.32-0.85,2.74-1.46,7.27c-0.08,0.38-0.46,0.57-1.14,0.57
		s-1.02-0.29-1.02-0.87c0-1.44,0.53-4.18,1.58-8.22c1.06-4.05,1.93-6.73,2.63-8.04C631.35,38.93,632.28,38.08,633.28,38.08z
		 M633.16,41.4c-0.3,0-0.82,0.88-1.55,2.65c-0.74,1.76-1.11,2.86-1.11,3.27c0,0.1,0.02,0.17,0.06,0.21c0.16,0.16,0.79,0.3,1.88,0.42
		s1.82,0.18,2.18,0.18c0.36,0,0.56-0.02,0.6-0.07s0.06-0.21,0.06-0.48s-0.27-1.37-0.81-3.29C633.94,42.36,633.5,41.4,633.16,41.4z"
		/>
	<path class="st0" d="M653.08,38.35c0.28-0.32,0.59-0.48,0.93-0.48c0.34,0,0.63,0.17,0.87,0.51c0.34,1.73,0.51,3.68,0.51,5.83v2.27
		c0,1.71-0.03,2.73-0.09,3.04c-0.06,0.31-0.12,0.65-0.18,1.03c-0.06,0.38-0.12,0.67-0.17,0.87c-0.05,0.2-0.12,0.47-0.22,0.81
		c-0.22,0.74-0.53,1.4-0.93,1.97c-0.6,1.12-1.39,1.99-2.36,2.63c-0.98,0.64-1.97,0.96-2.98,0.96c-1.01,0-2.04-0.44-3.11-1.32
		c-1.07-0.88-1.94-1.97-2.62-3.29c-1.04-2.03-1.55-4.38-1.55-7.03c0-0.94,0.14-3.16,0.42-6.67c0.14-0.32,0.35-0.6,0.64-0.85
		c0.29-0.25,0.58-0.37,0.88-0.37c0.44,0,0.71,0.3,0.81,0.9c-0.28,3.45-0.42,5.63-0.42,6.55c0,2.19,0.43,4.14,1.29,5.83
		c0.54,1.12,1.2,2.05,1.99,2.8c0.79,0.75,1.56,1.12,2.32,1.12c1.26,0,2.33-0.98,3.23-2.93c0.38-0.68,0.59-1.76,0.63-3.26
		c0-0.4,0.02-0.68,0.06-0.84l0.06-3.95c0-1.83-0.14-3.51-0.42-5.02C652.66,39.04,652.8,38.67,653.08,38.35z M648.44,32.07
		c0.12-0.34,0.37-0.51,0.76-0.51c0.39,0,0.7,0.12,0.93,0.36c0.23,0.24,0.34,0.43,0.34,0.58c0,0.15-0.02,0.27-0.06,0.37
		c-0.32,0.9-0.85,1.75-1.6,2.54c-0.75,0.8-1.32,1.2-1.72,1.2c-0.4,0-0.7-0.1-0.9-0.3c-0.2-0.2-0.3-0.43-0.3-0.7
		c0-0.27,0.15-0.53,0.45-0.79C647.42,33.96,648.12,33.04,648.44,32.07z"/>
	<path class="st0" d="M658.34,56.83c-0.3-0.22-0.45-0.46-0.45-0.73c0-0.27,0.11-0.49,0.33-0.67c-0.38-2.85-0.57-6.12-0.57-9.81
		c0-1.12,0.05-3.29,0.15-6.52c0.1-0.3,0.3-0.56,0.61-0.78c0.31-0.22,0.6-0.33,0.88-0.33c0.28,0,0.45,0.01,0.51,0.03
		c2.85,0.8,5.33,2.34,7.45,4.62c2.11,2.28,3.22,5.02,3.32,8.21c0,3.51-1.46,5.71-4.37,6.61c-0.84,0.26-1.72,0.39-2.65,0.39
		c-0.93,0-1.74-0.07-2.44-0.21c0.08,0.16,0.12,0.37,0.12,0.64c0,0.27-0.16,0.53-0.49,0.78c-0.33,0.25-0.72,0.37-1.17,0.37
		c-0.45,0-0.73-0.27-0.85-0.81L658.34,56.83z M660.13,45.38c0,3.49,0.2,6.8,0.6,9.93c0.48,0.14,1.29,0.21,2.42,0.21
		c1.14,0,2.23-0.19,3.28-0.57c1.05-0.38,1.6-0.94,1.66-1.67c0.06-0.56,0.09-0.99,0.09-1.29c0-2.59-0.69-4.88-2.08-6.88
		s-3.33-3.51-5.82-4.55C660.18,42.91,660.13,44.52,660.13,45.38z"/>
	<path class="st0" d="M672.43,47.5c-0.28-0.18-0.42-0.44-0.42-0.78c0-0.34,0.11-0.65,0.33-0.93c-0.08-1.99-0.12-4.1-0.12-6.31
		c0.12-0.48,0.3-0.83,0.55-1.05c0.25-0.22,0.61-0.36,1.09-0.42c2.63,0.12,5.48,0.18,8.55,0.18c0.76,0.16,1.14,0.49,1.14,0.99
		c0,0.84-0.82,1.33-2.45,1.47c-0.44,0.02-0.92,0.03-1.44,0.03h-1.94c-0.38,0-1.43-0.08-3.14-0.24c0,2.49,0.04,4.21,0.12,5.14
		c1.06,0.02,3.09,0.03,6.1,0.03c0.72,0.14,1.08,0.46,1.08,0.97c0,0.51-0.29,0.9-0.87,1.18c-0.06,0.04-0.17,0.08-0.33,0.12
		l-5.17-0.09c-0.32,0-0.58,0.02-0.78,0.06l0.12,5.14c0,1.16-0.03,1.98-0.09,2.48l6.94-0.09c0.64,0.1,0.96,0.37,0.96,0.81
		c0,0.3-0.13,0.6-0.4,0.9c-0.27,0.3-0.58,0.49-0.94,0.57l-7.66,0.12c-0.46,0-0.78-0.08-0.96-0.25c-0.18-0.17-0.27-0.45-0.27-0.85
		c0.08-0.56,0.12-1.46,0.12-2.69V51.9L672.43,47.5z"/>
</g>
<path class="st1" d="M192,109c-75.11,0-136,60.89-136,136c0,75.11,60.89,136,136,136V109z"/>
<path class="st2" d="M331.98,243.17C330.99,168.9,270.5,109,196,109v134.17H331.98z"/>
<path class="st3" d="M331.98,247C330.99,321.26,270.5,381.17,196,381.17V247H331.98z"/>
<g>
	<g>
		<path d="M415.76,161.69l-0.31,0.38c-0.88,1.03-2.17,1.54-3.87,1.54c-1.51,0-2.69-0.5-3.55-1.5s-1.3-2.41-1.32-4.24v-2.74
			c0-1.95,0.39-3.42,1.17-4.39c0.78-0.97,1.95-1.46,3.51-1.46c1.33,0,2.37,0.37,3.12,1.11s1.16,1.79,1.24,3.16H414
			c-0.07-0.87-0.31-1.55-0.72-2.03s-1.04-0.73-1.87-0.73c-1,0-1.74,0.33-2.2,0.98s-0.71,1.7-0.73,3.14v2.84
			c0,1.4,0.27,2.48,0.8,3.23c0.54,0.75,1.3,1.12,2.31,1.12c0.94,0,1.66-0.23,2.15-0.69l0.26-0.24v-3.2h-2.55v-1.5h4.3V161.69z"/>
		<path d="M422.09,163.61c-1.29,0-2.28-0.38-2.97-1.15c-0.69-0.77-1.04-1.9-1.05-3.38v-1.25c0-1.54,0.34-2.76,1.01-3.63
			c0.67-0.88,1.61-1.32,2.82-1.32c1.21,0,2.12,0.39,2.72,1.16c0.6,0.77,0.91,1.98,0.92,3.61v1.11h-5.78v0.24
			c0,1.11,0.21,1.92,0.63,2.42c0.42,0.5,1.02,0.76,1.8,0.76c0.5,0,0.94-0.09,1.32-0.28c0.38-0.19,0.74-0.49,1.07-0.9l0.88,1.07
			C424.71,163.1,423.59,163.61,422.09,163.61z M421.9,154.33c-0.7,0-1.22,0.24-1.56,0.72c-0.34,0.48-0.53,1.23-0.57,2.25h4.08v-0.23
			c-0.04-0.98-0.22-1.69-0.53-2.11S422.53,154.33,421.9,154.33z"/>
		<path d="M432.6,160.77c0-0.36-0.14-0.68-0.41-0.94c-0.27-0.26-0.8-0.57-1.59-0.92c-0.91-0.38-1.56-0.7-1.93-0.97
			c-0.37-0.27-0.65-0.57-0.84-0.91c-0.19-0.34-0.28-0.75-0.28-1.22c0-0.84,0.31-1.54,0.92-2.1c0.62-0.56,1.4-0.84,2.36-0.84
			c1.01,0,1.82,0.29,2.43,0.88s0.92,1.34,0.92,2.26h-1.68c0-0.47-0.16-0.86-0.47-1.19c-0.31-0.33-0.71-0.49-1.2-0.49
			c-0.5,0-0.89,0.13-1.17,0.39c-0.28,0.26-0.43,0.6-0.43,1.04c0,0.34,0.1,0.62,0.31,0.83c0.21,0.21,0.71,0.49,1.5,0.83
			c1.26,0.49,2.11,0.97,2.57,1.44s0.68,1.07,0.68,1.79c0,0.9-0.31,1.62-0.93,2.16c-0.62,0.54-1.45,0.81-2.49,0.81
			c-1.08,0-1.95-0.31-2.62-0.93c-0.67-0.62-1-1.4-1-2.36h1.7c0.02,0.57,0.19,1.02,0.53,1.35s0.8,0.49,1.4,0.49
			c0.56,0,0.99-0.13,1.28-0.38C432.45,161.54,432.6,161.2,432.6,160.77z"/>
		<path d="M438.72,150.55v2.51h1.56v1.37h-1.56v6.43c0,0.41,0.07,0.72,0.2,0.93s0.36,0.32,0.69,0.32c0.22,0,0.45-0.04,0.68-0.11
			l-0.02,1.43c-0.38,0.13-0.78,0.19-1.18,0.19c-0.67,0-1.18-0.24-1.53-0.72c-0.35-0.48-0.53-1.16-0.53-2.03v-6.43h-1.58v-1.37h1.58
			v-2.51H438.72z"/>
		<path d="M441.74,157.76c0-1.51,0.37-2.7,1.1-3.58c0.73-0.88,1.7-1.32,2.9-1.32s2.17,0.43,2.9,1.28c0.73,0.86,1.11,2.02,1.12,3.49
			v1.09c0,1.5-0.36,2.69-1.09,3.56c-0.73,0.87-1.7,1.31-2.91,1.31c-1.2,0-2.16-0.42-2.89-1.27c-0.72-0.85-1.1-2-1.13-3.45V157.76z
			 M443.44,158.74c0,1.07,0.21,1.9,0.63,2.51c0.42,0.61,0.98,0.91,1.69,0.91c1.49,0,2.26-1.08,2.31-3.24v-1.17
			c0-1.06-0.21-1.9-0.63-2.51c-0.42-0.62-0.99-0.92-1.7-0.92c-0.7,0-1.25,0.31-1.67,0.92c-0.42,0.62-0.63,1.45-0.63,2.5V158.74z"/>
		<path d="M456.22,154.65c-0.24-0.04-0.49-0.07-0.77-0.07c-0.87,0-1.47,0.48-1.82,1.43v7.41h-1.7v-10.36h1.65l0.03,1.05
			c0.45-0.83,1.09-1.24,1.92-1.24c0.27,0,0.49,0.04,0.67,0.13L456.22,154.65z"/>
		<path d="M461.43,163.61c-1.29,0-2.28-0.38-2.97-1.15c-0.69-0.77-1.04-1.9-1.05-3.38v-1.25c0-1.54,0.34-2.76,1.01-3.63
			c0.67-0.88,1.61-1.32,2.82-1.32c1.21,0,2.12,0.39,2.72,1.16c0.6,0.77,0.91,1.98,0.92,3.61v1.11h-5.78v0.24
			c0,1.11,0.21,1.92,0.63,2.42c0.42,0.5,1.02,0.76,1.8,0.76c0.5,0,0.94-0.09,1.32-0.28c0.38-0.19,0.74-0.49,1.07-0.9l0.88,1.07
			C464.06,163.1,462.94,163.61,461.43,163.61z M461.24,154.33c-0.7,0-1.22,0.24-1.56,0.72c-0.34,0.48-0.53,1.23-0.57,2.25h4.08
			v-0.23c-0.04-0.98-0.22-1.69-0.53-2.11S461.87,154.33,461.24,154.33z"/>
		<path d="M471.94,160.77c0-0.36-0.14-0.68-0.41-0.94c-0.27-0.26-0.8-0.57-1.59-0.92c-0.91-0.38-1.56-0.7-1.93-0.97
			c-0.37-0.27-0.65-0.57-0.84-0.91c-0.19-0.34-0.28-0.75-0.28-1.22c0-0.84,0.31-1.54,0.92-2.1c0.62-0.56,1.4-0.84,2.36-0.84
			c1.01,0,1.82,0.29,2.43,0.88s0.92,1.34,0.92,2.26h-1.68c0-0.47-0.16-0.86-0.47-1.19c-0.31-0.33-0.71-0.49-1.2-0.49
			c-0.5,0-0.89,0.13-1.17,0.39c-0.28,0.26-0.43,0.6-0.43,1.04c0,0.34,0.1,0.62,0.31,0.83c0.21,0.21,0.71,0.49,1.5,0.83
			c1.26,0.49,2.11,0.97,2.57,1.44s0.68,1.07,0.68,1.79c0,0.9-0.31,1.62-0.93,2.16c-0.62,0.54-1.45,0.81-2.49,0.81
			c-1.08,0-1.95-0.31-2.62-0.93c-0.67-0.62-1-1.4-1-2.36h1.7c0.02,0.57,0.19,1.02,0.53,1.35s0.8,0.49,1.4,0.49
			c0.56,0,0.99-0.13,1.28-0.38C471.8,161.54,471.94,161.2,471.94,160.77z"/>
		<path d="M484.04,163.61c-1.29,0-2.28-0.38-2.97-1.15c-0.69-0.77-1.04-1.9-1.05-3.38v-1.25c0-1.54,0.34-2.76,1.01-3.63
			c0.67-0.88,1.61-1.32,2.82-1.32c1.21,0,2.12,0.39,2.72,1.16c0.6,0.77,0.91,1.98,0.92,3.61v1.11h-5.78v0.24
			c0,1.11,0.21,1.92,0.63,2.42c0.42,0.5,1.02,0.76,1.8,0.76c0.5,0,0.94-0.09,1.32-0.28c0.38-0.19,0.74-0.49,1.07-0.9l0.88,1.07
			C486.67,163.1,485.54,163.61,484.04,163.61z M483.85,154.33c-0.7,0-1.22,0.24-1.56,0.72c-0.34,0.48-0.53,1.23-0.57,2.25h4.08
			v-0.23c-0.04-0.98-0.22-1.69-0.53-2.11S484.48,154.33,483.85,154.33z"/>
		<path d="M501.49,158.74c0,1.64-0.3,2.86-0.89,3.67c-0.59,0.8-1.43,1.21-2.5,1.21c-1.04,0-1.84-0.39-2.4-1.18v4.97h-1.69v-14.34
			h1.53l0.09,1.15c0.57-0.89,1.38-1.34,2.44-1.34c1.14,0,1.99,0.4,2.55,1.19c0.56,0.79,0.85,1.98,0.87,3.55V158.74z M499.81,157.77
			c0-1.16-0.18-2.02-0.54-2.57s-0.93-0.83-1.72-0.83c-0.81,0-1.43,0.41-1.85,1.22v5.39c0.42,0.79,1.04,1.19,1.87,1.19
			c0.77,0,1.33-0.28,1.69-0.83s0.54-1.4,0.55-2.53V157.77z"/>
		<path d="M507.96,154.65c-0.24-0.04-0.49-0.07-0.77-0.07c-0.87,0-1.47,0.48-1.82,1.43v7.41h-1.7v-10.36h1.65l0.03,1.05
			c0.45-0.83,1.09-1.24,1.92-1.24c0.27,0,0.49,0.04,0.67,0.13L507.96,154.65z"/>
		<path d="M513.17,163.61c-1.29,0-2.28-0.38-2.97-1.15c-0.69-0.77-1.04-1.9-1.05-3.38v-1.25c0-1.54,0.34-2.76,1.01-3.63
			c0.67-0.88,1.61-1.32,2.82-1.32c1.21,0,2.12,0.39,2.72,1.16c0.6,0.77,0.91,1.98,0.92,3.61v1.11h-5.78v0.24
			c0,1.11,0.21,1.92,0.63,2.42c0.42,0.5,1.02,0.76,1.8,0.76c0.5,0,0.94-0.09,1.32-0.28c0.38-0.19,0.74-0.49,1.07-0.9l0.88,1.07
			C515.79,163.1,514.67,163.61,513.17,163.61z M512.97,154.33c-0.7,0-1.22,0.24-1.56,0.72c-0.34,0.48-0.53,1.23-0.57,2.25h4.08
			v-0.23c-0.04-0.98-0.22-1.69-0.53-2.11S513.61,154.33,512.97,154.33z"/>
		<path d="M523.68,160.77c0-0.36-0.14-0.68-0.41-0.94c-0.27-0.26-0.8-0.57-1.59-0.92c-0.91-0.38-1.56-0.7-1.93-0.97
			c-0.37-0.27-0.65-0.57-0.84-0.91c-0.19-0.34-0.28-0.75-0.28-1.22c0-0.84,0.31-1.54,0.92-2.1c0.62-0.56,1.4-0.84,2.36-0.84
			c1.01,0,1.82,0.29,2.43,0.88s0.92,1.34,0.92,2.26h-1.68c0-0.47-0.16-0.86-0.47-1.19c-0.31-0.33-0.71-0.49-1.2-0.49
			c-0.5,0-0.89,0.13-1.17,0.39c-0.28,0.26-0.43,0.6-0.43,1.04c0,0.34,0.1,0.62,0.31,0.83c0.21,0.21,0.71,0.49,1.5,0.83
			c1.26,0.49,2.11,0.97,2.57,1.44s0.68,1.07,0.68,1.79c0,0.9-0.31,1.62-0.93,2.16c-0.62,0.54-1.45,0.81-2.49,0.81
			c-1.08,0-1.95-0.31-2.62-0.93c-0.67-0.62-1-1.4-1-2.36h1.7c0.02,0.57,0.19,1.02,0.53,1.35s0.8,0.49,1.4,0.49
			c0.56,0,0.99-0.13,1.28-0.38C523.53,161.54,523.68,161.2,523.68,160.77z"/>
		<path d="M529.8,150.55v2.51h1.56v1.37h-1.56v6.43c0,0.41,0.07,0.72,0.2,0.93s0.36,0.32,0.69,0.32c0.22,0,0.45-0.04,0.68-0.11
			l-0.02,1.43c-0.38,0.13-0.78,0.19-1.18,0.19c-0.67,0-1.18-0.24-1.53-0.72c-0.35-0.48-0.53-1.16-0.53-2.03v-6.43h-1.58v-1.37h1.58
			v-2.51H529.8z"/>
		<path d="M538.7,163.42c-0.1-0.22-0.18-0.6-0.22-1.13c-0.6,0.88-1.37,1.32-2.3,1.32c-0.94,0-1.67-0.26-2.2-0.79
			c-0.53-0.53-0.79-1.27-0.79-2.23c0-1.05,0.36-1.89,1.07-2.51c0.71-0.62,1.69-0.94,2.94-0.95h1.25v-1.1c0-0.62-0.14-1.06-0.41-1.32
			s-0.69-0.39-1.25-0.39c-0.51,0-0.93,0.15-1.25,0.45s-0.48,0.69-0.48,1.15h-1.7c0-0.53,0.16-1.04,0.47-1.52
			c0.31-0.48,0.73-0.86,1.26-1.13c0.53-0.27,1.12-0.41,1.77-0.41c1.06,0,1.87,0.26,2.42,0.79c0.55,0.53,0.83,1.29,0.85,2.3v5.23
			c0.01,0.8,0.12,1.49,0.33,2.08v0.15H538.7z M536.44,162.07c0.41,0,0.81-0.11,1.19-0.34c0.38-0.23,0.65-0.52,0.82-0.86v-2.47h-0.96
			c-0.8,0.01-1.44,0.19-1.91,0.54c-0.47,0.35-0.7,0.83-0.7,1.46c0,0.59,0.12,1.01,0.35,1.28
			C535.48,161.94,535.88,162.07,536.44,162.07z"/>
		<path d="M542.41,157.77c0-1.6,0.3-2.81,0.9-3.65s1.45-1.25,2.57-1.25c0.99,0,1.76,0.4,2.32,1.21v-5.36h1.69v14.71h-1.55
			l-0.09-1.11c-0.55,0.87-1.35,1.3-2.38,1.3c-1.07,0-1.91-0.42-2.52-1.25c-0.61-0.83-0.92-2.01-0.93-3.53V157.77z M544.1,158.74
			c0,1.16,0.17,2.01,0.52,2.56s0.91,0.82,1.69,0.82c0.84,0,1.47-0.42,1.89-1.27v-5.22c-0.43-0.83-1.06-1.24-1.88-1.24
			c-0.78,0-1.34,0.27-1.69,0.82c-0.34,0.55-0.52,1.38-0.53,2.51V158.74z"/>
		<path d="M552.14,157.76c0-1.51,0.37-2.7,1.1-3.58c0.73-0.88,1.7-1.32,2.9-1.32s2.17,0.43,2.9,1.28c0.73,0.86,1.11,2.02,1.12,3.49
			v1.09c0,1.5-0.36,2.69-1.09,3.56c-0.73,0.87-1.7,1.31-2.91,1.31c-1.2,0-2.16-0.42-2.89-1.27c-0.72-0.85-1.1-2-1.13-3.45V157.76z
			 M553.83,158.74c0,1.07,0.21,1.9,0.63,2.51c0.42,0.61,0.98,0.91,1.69,0.91c1.49,0,2.26-1.08,2.31-3.24v-1.17
			c0-1.06-0.21-1.9-0.63-2.51c-0.42-0.62-0.99-0.92-1.7-0.92c-0.7,0-1.25,0.31-1.67,0.92c-0.42,0.62-0.63,1.45-0.63,2.5V158.74z"/>
		<path d="M566.61,154.65c-0.24-0.04-0.49-0.07-0.77-0.07c-0.87,0-1.47,0.48-1.82,1.43v7.41h-1.7v-10.36h1.65l0.03,1.05
			c0.45-0.83,1.09-1.24,1.92-1.24c0.27,0,0.49,0.04,0.67,0.13L566.61,154.65z"/>
		<path d="M571.82,163.61c-1.29,0-2.28-0.38-2.97-1.15c-0.69-0.77-1.04-1.9-1.05-3.38v-1.25c0-1.54,0.34-2.76,1.01-3.63
			c0.67-0.88,1.61-1.32,2.82-1.32c1.21,0,2.12,0.39,2.72,1.16c0.6,0.77,0.91,1.98,0.92,3.61v1.11h-5.78v0.24
			c0,1.11,0.21,1.92,0.63,2.42c0.42,0.5,1.02,0.76,1.8,0.76c0.5,0,0.94-0.09,1.32-0.28c0.38-0.19,0.74-0.49,1.07-0.9l0.88,1.07
			C574.45,163.1,573.33,163.61,571.82,163.61z M571.63,154.33c-0.7,0-1.22,0.24-1.56,0.72c-0.34,0.48-0.53,1.23-0.57,2.25h4.08
			v-0.23c-0.04-0.98-0.22-1.69-0.53-2.11S572.26,154.33,571.63,154.33z"/>
		<path d="M582.34,160.77c0-0.36-0.14-0.68-0.41-0.94c-0.27-0.26-0.8-0.57-1.59-0.92c-0.91-0.38-1.56-0.7-1.93-0.97
			c-0.37-0.27-0.65-0.57-0.84-0.91c-0.19-0.34-0.28-0.75-0.28-1.22c0-0.84,0.31-1.54,0.92-2.1c0.62-0.56,1.4-0.84,2.36-0.84
			c1.01,0,1.82,0.29,2.43,0.88s0.92,1.34,0.92,2.26h-1.68c0-0.47-0.16-0.86-0.47-1.19c-0.31-0.33-0.71-0.49-1.2-0.49
			c-0.5,0-0.89,0.13-1.17,0.39c-0.28,0.26-0.43,0.6-0.43,1.04c0,0.34,0.1,0.62,0.31,0.83c0.21,0.21,0.71,0.49,1.5,0.83
			c1.26,0.49,2.11,0.97,2.57,1.44s0.68,1.07,0.68,1.79c0,0.9-0.31,1.62-0.93,2.16c-0.62,0.54-1.45,0.81-2.49,0.81
			c-1.08,0-1.95-0.31-2.62-0.93c-0.67-0.62-1-1.4-1-2.36h1.7c0.02,0.57,0.19,1.02,0.53,1.35s0.8,0.49,1.4,0.49
			c0.56,0,0.99-0.13,1.28-0.38C582.19,161.54,582.34,161.2,582.34,160.77z"/>
		<path d="M590.37,157.77c0-1.6,0.3-2.81,0.9-3.65s1.45-1.25,2.57-1.25c0.99,0,1.76,0.4,2.32,1.21v-5.36h1.69v14.71h-1.55
			l-0.09-1.11c-0.55,0.87-1.35,1.3-2.38,1.3c-1.07,0-1.91-0.42-2.52-1.25c-0.61-0.83-0.92-2.01-0.93-3.53V157.77z M592.06,158.74
			c0,1.16,0.17,2.01,0.52,2.56s0.91,0.82,1.69,0.82c0.84,0,1.47-0.42,1.89-1.27v-5.22c-0.43-0.83-1.06-1.24-1.88-1.24
			c-0.78,0-1.34,0.27-1.69,0.82c-0.34,0.55-0.52,1.38-0.53,2.51V158.74z"/>
		<path d="M604.16,163.61c-1.29,0-2.28-0.38-2.97-1.15c-0.69-0.77-1.04-1.9-1.05-3.38v-1.25c0-1.54,0.34-2.76,1.01-3.63
			c0.67-0.88,1.61-1.32,2.82-1.32c1.21,0,2.12,0.39,2.72,1.16c0.6,0.77,0.91,1.98,0.92,3.61v1.11h-5.78v0.24
			c0,1.11,0.21,1.92,0.63,2.42c0.42,0.5,1.02,0.76,1.8,0.76c0.5,0,0.94-0.09,1.32-0.28c0.38-0.19,0.74-0.49,1.07-0.9l0.88,1.07
			C606.79,163.1,605.66,163.61,604.16,163.61z M603.97,154.33c-0.7,0-1.22,0.24-1.56,0.72c-0.34,0.48-0.53,1.23-0.57,2.25h4.08
			v-0.23c-0.04-0.98-0.22-1.69-0.53-2.11S604.6,154.33,603.97,154.33z"/>
		<path d="M619.16,160.77c0-0.36-0.14-0.68-0.41-0.94c-0.27-0.26-0.8-0.57-1.59-0.92c-0.91-0.38-1.56-0.7-1.93-0.97
			c-0.37-0.27-0.65-0.57-0.84-0.91c-0.19-0.34-0.28-0.75-0.28-1.22c0-0.84,0.31-1.54,0.92-2.1c0.62-0.56,1.4-0.84,2.36-0.84
			c1.01,0,1.82,0.29,2.43,0.88s0.92,1.34,0.92,2.26h-1.68c0-0.47-0.16-0.86-0.47-1.19c-0.31-0.33-0.71-0.49-1.2-0.49
			c-0.5,0-0.89,0.13-1.17,0.39c-0.28,0.26-0.43,0.6-0.43,1.04c0,0.34,0.1,0.62,0.31,0.83c0.21,0.21,0.71,0.49,1.5,0.83
			c1.26,0.49,2.11,0.97,2.57,1.44s0.68,1.07,0.68,1.79c0,0.9-0.31,1.62-0.93,2.16c-0.62,0.54-1.45,0.81-2.49,0.81
			c-1.08,0-1.95-0.31-2.62-0.93c-0.67-0.62-1-1.4-1-2.36h1.7c0.02,0.57,0.19,1.02,0.53,1.35s0.8,0.49,1.4,0.49
			c0.56,0,0.99-0.13,1.28-0.38C619.01,161.54,619.16,161.2,619.16,160.77z"/>
		<path d="M626.76,163.61c-1.29,0-2.28-0.38-2.97-1.15c-0.69-0.77-1.04-1.9-1.05-3.38v-1.25c0-1.54,0.34-2.76,1.01-3.63
			c0.67-0.88,1.61-1.32,2.82-1.32c1.21,0,2.12,0.39,2.72,1.16c0.6,0.77,0.91,1.98,0.92,3.61v1.11h-5.78v0.24
			c0,1.11,0.21,1.92,0.63,2.42c0.42,0.5,1.02,0.76,1.8,0.76c0.5,0,0.94-0.09,1.32-0.28c0.38-0.19,0.74-0.49,1.07-0.9l0.88,1.07
			C629.39,163.1,628.27,163.61,626.76,163.61z M626.57,154.33c-0.7,0-1.22,0.24-1.56,0.72c-0.34,0.48-0.53,1.23-0.57,2.25h4.08
			v-0.23c-0.04-0.98-0.22-1.69-0.53-2.11S627.21,154.33,626.57,154.33z"/>
		<path d="M636.52,154.65c-0.24-0.04-0.49-0.07-0.77-0.07c-0.87,0-1.47,0.48-1.82,1.43v7.41h-1.7v-10.36h1.65l0.03,1.05
			c0.45-0.83,1.09-1.24,1.92-1.24c0.27,0,0.49,0.04,0.67,0.13L636.52,154.65z"/>
		<path d="M641.32,160.85l1.96-7.78H645l-3.07,10.36h-1.26l-3.11-10.36h1.72L641.32,160.85z"/>
		<path d="M648.73,150.31c0,0.29-0.08,0.53-0.24,0.72s-0.4,0.29-0.73,0.29c-0.32,0-0.56-0.1-0.72-0.29
			c-0.16-0.19-0.24-0.43-0.24-0.72s0.08-0.53,0.24-0.73c0.16-0.2,0.4-0.3,0.72-0.3s0.56,0.1,0.72,0.3
			C648.65,149.79,648.73,150.03,648.73,150.31z M648.6,163.42h-1.69v-10.36h1.69V163.42z"/>
		<path d="M654.86,162.17c0.56,0,1.01-0.17,1.35-0.52c0.34-0.35,0.52-0.84,0.56-1.49h1.6c-0.04,1-0.39,1.82-1.06,2.48
			s-1.48,0.98-2.45,0.98c-1.28,0-2.26-0.4-2.93-1.21c-0.67-0.81-1.01-2.01-1.01-3.61v-1.14c0-1.56,0.33-2.75,1.01-3.57
			c0.67-0.81,1.65-1.22,2.93-1.22c1.06,0,1.9,0.33,2.52,1.01c0.62,0.67,0.95,1.59,0.99,2.75h-1.6c-0.04-0.77-0.22-1.34-0.55-1.72
			c-0.33-0.38-0.78-0.57-1.36-0.57c-0.75,0-1.31,0.25-1.68,0.74c-0.36,0.5-0.55,1.31-0.56,2.44v1.32c0,1.22,0.18,2.08,0.54,2.59
			C653.51,161.92,654.08,162.17,654.86,162.17z M655.09,163.51l-0.1,0.5c0.38,0.08,0.68,0.27,0.88,0.56c0.2,0.29,0.31,0.65,0.31,1.1
			c0,0.61-0.21,1.1-0.64,1.46s-1.03,0.55-1.82,0.55l-0.06-1.02c0.82,0,1.23-0.32,1.23-0.95c0-0.29-0.08-0.5-0.25-0.63
			c-0.17-0.13-0.51-0.23-1.01-0.28l0.27-1.28H655.09z"/>
		<path d="M659.96,157.76c0-1.51,0.37-2.7,1.1-3.58c0.73-0.88,1.7-1.32,2.9-1.32s2.17,0.43,2.9,1.28c0.73,0.86,1.11,2.02,1.12,3.49
			v1.09c0,1.5-0.36,2.69-1.09,3.56c-0.73,0.87-1.7,1.31-2.91,1.31c-1.2,0-2.16-0.42-2.89-1.27c-0.72-0.85-1.1-2-1.13-3.45V157.76z
			 M661.66,158.74c0,1.07,0.21,1.9,0.63,2.51c0.42,0.61,0.98,0.91,1.69,0.91c1.49,0,2.26-1.08,2.31-3.24v-1.17
			c0-1.06-0.21-1.9-0.63-2.51c-0.42-0.62-0.99-0.92-1.7-0.92c-0.7,0-1.25,0.31-1.67,0.92c-0.42,0.62-0.63,1.45-0.63,2.5V158.74z"/>
		<path d="M408.79,192.69v5.46h-1.75v-13.94h4.44c1.3,0,2.31,0.39,3.05,1.16c0.74,0.78,1.11,1.81,1.11,3.1
			c0,1.34-0.35,2.37-1.06,3.1c-0.71,0.72-1.7,1.1-2.98,1.12H408.79z M408.79,191.19h2.69c0.78,0,1.38-0.23,1.79-0.7
			s0.62-1.14,0.62-2c0-0.84-0.21-1.51-0.64-2.01c-0.43-0.51-1.02-0.76-1.76-0.76h-2.7V191.19z"/>
		<path d="M421.94,189.38c-0.24-0.04-0.49-0.07-0.77-0.07c-0.87,0-1.47,0.48-1.82,1.43v7.41h-1.7v-10.36h1.65l0.03,1.05
			c0.45-0.83,1.09-1.24,1.92-1.24c0.27,0,0.49,0.04,0.67,0.13L421.94,189.38z"/>
		<path d="M423.08,192.49c0-1.51,0.37-2.7,1.1-3.58c0.73-0.88,1.7-1.32,2.9-1.32s2.17,0.43,2.9,1.28c0.73,0.86,1.11,2.02,1.12,3.49
			v1.09c0,1.5-0.36,2.69-1.09,3.56c-0.73,0.87-1.7,1.31-2.91,1.31c-1.2,0-2.16-0.42-2.89-1.27c-0.72-0.85-1.1-2-1.13-3.45V192.49z
			 M424.78,193.47c0,1.07,0.21,1.9,0.63,2.51c0.42,0.61,0.98,0.91,1.69,0.91c1.49,0,2.26-1.08,2.31-3.24v-1.17
			c0-1.06-0.21-1.9-0.63-2.51c-0.42-0.62-0.99-0.92-1.7-0.92c-0.7,0-1.25,0.31-1.67,0.92c-0.42,0.62-0.63,1.45-0.63,2.5V193.47z"/>
		<path d="M434.03,198.15v-8.99h-1.35v-1.37h1.35v-1.2c0.02-1.05,0.29-1.88,0.8-2.47c0.51-0.59,1.24-0.89,2.18-0.89
			c0.34,0,0.68,0.05,1.02,0.16l-0.09,1.43c-0.24-0.06-0.5-0.09-0.78-0.09c-0.96,0-1.45,0.69-1.45,2.06v0.98h1.77v1.37h-1.77v8.99
			H434.03z"/>
		<path d="M441.45,185.04c0,0.29-0.08,0.53-0.24,0.72s-0.4,0.29-0.73,0.29c-0.32,0-0.56-0.1-0.72-0.29
			c-0.16-0.19-0.24-0.43-0.24-0.72s0.08-0.53,0.24-0.73c0.16-0.2,0.4-0.3,0.72-0.3s0.56,0.1,0.72,0.3
			C441.37,184.52,441.45,184.76,441.45,185.04z M441.31,198.15h-1.69v-10.36h1.69V198.15z"/>
		<path d="M449.01,195.5c0-0.36-0.14-0.68-0.41-0.94c-0.27-0.26-0.8-0.57-1.59-0.92c-0.91-0.38-1.56-0.7-1.93-0.97
			c-0.37-0.27-0.65-0.57-0.84-0.91c-0.19-0.34-0.28-0.75-0.28-1.22c0-0.84,0.31-1.54,0.92-2.1c0.62-0.56,1.4-0.84,2.36-0.84
			c1.01,0,1.82,0.29,2.43,0.88s0.92,1.34,0.92,2.26h-1.68c0-0.47-0.16-0.86-0.47-1.19c-0.31-0.33-0.71-0.49-1.2-0.49
			c-0.5,0-0.89,0.13-1.17,0.39c-0.28,0.26-0.43,0.6-0.43,1.04c0,0.34,0.1,0.62,0.31,0.83c0.21,0.21,0.71,0.49,1.5,0.83
			c1.26,0.49,2.11,0.97,2.57,1.44s0.68,1.07,0.68,1.79c0,0.9-0.31,1.62-0.93,2.16c-0.62,0.54-1.45,0.81-2.49,0.81
			c-1.08,0-1.95-0.31-2.62-0.93c-0.67-0.62-1-1.4-1-2.36h1.7c0.02,0.57,0.19,1.02,0.53,1.35s0.8,0.49,1.4,0.49
			c0.56,0,0.99-0.13,1.28-0.38C448.87,196.26,449.01,195.92,449.01,195.5z"/>
		<path d="M457.95,195.5c0-0.36-0.14-0.68-0.41-0.94c-0.27-0.26-0.8-0.57-1.59-0.92c-0.91-0.38-1.56-0.7-1.93-0.97
			c-0.37-0.27-0.65-0.57-0.84-0.91c-0.19-0.34-0.28-0.75-0.28-1.22c0-0.84,0.31-1.54,0.92-2.1c0.62-0.56,1.4-0.84,2.36-0.84
			c1.01,0,1.82,0.29,2.43,0.88s0.92,1.34,0.92,2.26h-1.68c0-0.47-0.16-0.86-0.47-1.19c-0.31-0.33-0.71-0.49-1.2-0.49
			c-0.5,0-0.89,0.13-1.17,0.39c-0.28,0.26-0.43,0.6-0.43,1.04c0,0.34,0.1,0.62,0.31,0.83c0.21,0.21,0.71,0.49,1.5,0.83
			c1.26,0.49,2.11,0.97,2.57,1.44s0.68,1.07,0.68,1.79c0,0.9-0.31,1.62-0.93,2.16c-0.62,0.54-1.45,0.81-2.49,0.81
			c-1.08,0-1.95-0.31-2.62-0.93c-0.67-0.62-1-1.4-1-2.36h1.7c0.02,0.57,0.19,1.02,0.53,1.35s0.8,0.49,1.4,0.49
			c0.56,0,0.99-0.13,1.28-0.38C457.8,196.26,457.95,195.92,457.95,195.5z"/>
		<path d="M463.81,185.04c0,0.29-0.08,0.53-0.24,0.72s-0.4,0.29-0.73,0.29c-0.32,0-0.56-0.1-0.72-0.29
			c-0.16-0.19-0.24-0.43-0.24-0.72s0.08-0.53,0.24-0.73c0.16-0.2,0.4-0.3,0.72-0.3s0.56,0.1,0.72,0.3
			C463.72,184.52,463.81,184.76,463.81,185.04z M463.67,198.15h-1.69v-10.36h1.69V198.15z"/>
		<path d="M465.98,192.49c0-1.51,0.37-2.7,1.1-3.58c0.73-0.88,1.7-1.32,2.9-1.32s2.17,0.43,2.9,1.28c0.73,0.86,1.11,2.02,1.12,3.49
			v1.09c0,1.5-0.36,2.69-1.09,3.56c-0.73,0.87-1.7,1.31-2.91,1.31c-1.2,0-2.16-0.42-2.89-1.27c-0.72-0.85-1.1-2-1.13-3.45V192.49z
			 M467.67,193.47c0,1.07,0.21,1.9,0.63,2.51c0.42,0.61,0.98,0.91,1.69,0.91c1.49,0,2.26-1.08,2.31-3.24v-1.17
			c0-1.06-0.21-1.9-0.63-2.51c-0.42-0.62-0.99-0.92-1.7-0.92c-0.7,0-1.25,0.31-1.67,0.92c-0.42,0.62-0.63,1.45-0.63,2.5V193.47z"/>
		<path d="M477.78,187.79l0.05,1.12c0.66-0.87,1.5-1.31,2.52-1.31c1.83,0,2.76,1.22,2.79,3.67v6.88h-1.69v-6.81
			c0-0.81-0.14-1.39-0.41-1.73s-0.68-0.51-1.22-0.51c-0.42,0-0.8,0.14-1.13,0.42c-0.33,0.28-0.6,0.65-0.81,1.1v7.53h-1.7v-10.36
			H477.78z"/>
		<path d="M491,198.15c-0.1-0.22-0.18-0.6-0.22-1.13c-0.6,0.88-1.37,1.32-2.3,1.32c-0.94,0-1.67-0.26-2.2-0.79
			c-0.53-0.53-0.79-1.27-0.79-2.23c0-1.05,0.36-1.89,1.07-2.51c0.71-0.62,1.69-0.94,2.94-0.95h1.25v-1.1c0-0.62-0.14-1.06-0.41-1.32
			s-0.69-0.39-1.25-0.39c-0.51,0-0.93,0.15-1.25,0.45s-0.48,0.69-0.48,1.15h-1.7c0-0.53,0.16-1.04,0.47-1.52
			c0.31-0.48,0.73-0.86,1.26-1.13c0.53-0.27,1.12-0.41,1.77-0.41c1.06,0,1.87,0.26,2.42,0.79c0.55,0.53,0.83,1.29,0.85,2.3v5.23
			c0.01,0.8,0.12,1.49,0.33,2.08v0.15H491z M488.74,196.8c0.41,0,0.81-0.11,1.19-0.34c0.38-0.23,0.65-0.52,0.82-0.86v-2.47h-0.96
			c-0.8,0.01-1.44,0.19-1.91,0.54c-0.47,0.35-0.7,0.83-0.7,1.46c0,0.59,0.12,1.01,0.35,1.28
			C487.78,196.67,488.18,196.8,488.74,196.8z"/>
		<path d="M497.02,185.04c0,0.29-0.08,0.53-0.24,0.72s-0.4,0.29-0.73,0.29c-0.32,0-0.56-0.1-0.72-0.29
			c-0.16-0.19-0.24-0.43-0.24-0.72s0.08-0.53,0.24-0.73c0.16-0.2,0.4-0.3,0.72-0.3s0.56,0.1,0.72,0.3
			C496.94,184.52,497.02,184.76,497.02,185.04z M496.89,198.15h-1.69v-10.36h1.69V198.15z"/>
		<path d="M504.59,195.5c0-0.36-0.14-0.68-0.41-0.94c-0.27-0.26-0.8-0.57-1.59-0.92c-0.91-0.38-1.56-0.7-1.93-0.97
			c-0.37-0.27-0.65-0.57-0.84-0.91c-0.19-0.34-0.28-0.75-0.28-1.22c0-0.84,0.31-1.54,0.92-2.1c0.62-0.56,1.4-0.84,2.36-0.84
			c1.01,0,1.82,0.29,2.43,0.88s0.92,1.34,0.92,2.26h-1.68c0-0.47-0.16-0.86-0.47-1.19c-0.31-0.33-0.71-0.49-1.2-0.49
			c-0.5,0-0.89,0.13-1.17,0.39c-0.28,0.26-0.43,0.6-0.43,1.04c0,0.34,0.1,0.62,0.31,0.83c0.21,0.21,0.71,0.49,1.5,0.83
			c1.26,0.49,2.11,0.97,2.57,1.44s0.68,1.07,0.68,1.79c0,0.9-0.31,1.62-0.93,2.16c-0.62,0.54-1.45,0.81-2.49,0.81
			c-1.08,0-1.95-0.31-2.62-0.93c-0.67-0.62-1-1.4-1-2.36h1.7c0.02,0.57,0.19,1.02,0.53,1.35s0.8,0.49,1.4,0.49
			c0.56,0,0.99-0.13,1.28-0.38C504.44,196.26,504.59,195.92,504.59,195.5z"/>
		<path d="M512.62,192.5c0-1.6,0.3-2.81,0.9-3.65s1.45-1.25,2.57-1.25c0.99,0,1.76,0.4,2.32,1.21v-5.36h1.69v14.71h-1.55l-0.09-1.11
			c-0.55,0.87-1.35,1.3-2.38,1.3c-1.07,0-1.91-0.42-2.52-1.25c-0.61-0.83-0.92-2.01-0.93-3.53V192.5z M514.31,193.46
			c0,1.16,0.17,2.01,0.52,2.56s0.91,0.82,1.69,0.82c0.84,0,1.47-0.42,1.89-1.27v-5.22c-0.43-0.83-1.06-1.24-1.88-1.24
			c-0.78,0-1.34,0.27-1.69,0.82c-0.34,0.55-0.52,1.38-0.53,2.51V193.46z"/>
		<path d="M526.41,198.34c-1.29,0-2.28-0.38-2.97-1.15c-0.69-0.77-1.04-1.9-1.05-3.38v-1.25c0-1.54,0.34-2.76,1.01-3.63
			c0.67-0.88,1.61-1.32,2.82-1.32c1.21,0,2.12,0.39,2.72,1.16c0.6,0.77,0.91,1.98,0.92,3.61v1.11h-5.78v0.24
			c0,1.11,0.21,1.92,0.63,2.42c0.42,0.5,1.02,0.76,1.8,0.76c0.5,0,0.94-0.09,1.32-0.28c0.38-0.19,0.74-0.49,1.07-0.9l0.88,1.07
			C529.04,197.82,527.91,198.34,526.41,198.34z M526.22,189.05c-0.7,0-1.22,0.24-1.56,0.72c-0.34,0.48-0.53,1.23-0.57,2.25h4.08
			v-0.23c-0.04-0.98-0.22-1.69-0.53-2.11S526.85,189.05,526.22,189.05z"/>
		<path d="M541.41,195.5c0-0.36-0.14-0.68-0.41-0.94c-0.27-0.26-0.8-0.57-1.59-0.92c-0.91-0.38-1.56-0.7-1.93-0.97
			c-0.37-0.27-0.65-0.57-0.84-0.91c-0.19-0.34-0.28-0.75-0.28-1.22c0-0.84,0.31-1.54,0.92-2.1c0.62-0.56,1.4-0.84,2.36-0.84
			c1.01,0,1.82,0.29,2.43,0.88s0.92,1.34,0.92,2.26h-1.68c0-0.47-0.16-0.86-0.47-1.19c-0.31-0.33-0.71-0.49-1.2-0.49
			c-0.5,0-0.89,0.13-1.17,0.39c-0.28,0.26-0.43,0.6-0.43,1.04c0,0.34,0.1,0.62,0.31,0.83c0.21,0.21,0.71,0.49,1.5,0.83
			c1.26,0.49,2.11,0.97,2.57,1.44s0.68,1.07,0.68,1.79c0,0.9-0.31,1.62-0.93,2.16c-0.62,0.54-1.45,0.81-2.49,0.81
			c-1.08,0-1.95-0.31-2.62-0.93c-0.67-0.62-1-1.4-1-2.36h1.7c0.02,0.57,0.19,1.02,0.53,1.35s0.8,0.49,1.4,0.49
			c0.56,0,0.99-0.13,1.28-0.38C541.26,196.26,541.41,195.92,541.41,195.5z"/>
		<path d="M550.64,198.15c-0.1-0.22-0.18-0.6-0.22-1.13c-0.6,0.88-1.37,1.32-2.3,1.32c-0.94,0-1.67-0.26-2.2-0.79
			c-0.53-0.53-0.79-1.27-0.79-2.23c0-1.05,0.36-1.89,1.07-2.51c0.71-0.62,1.69-0.94,2.94-0.95h1.25v-1.1c0-0.62-0.14-1.06-0.41-1.32
			s-0.69-0.39-1.25-0.39c-0.51,0-0.93,0.15-1.25,0.45s-0.48,0.69-0.48,1.15h-1.7c0-0.53,0.16-1.04,0.47-1.52
			c0.31-0.48,0.73-0.86,1.26-1.13c0.53-0.27,1.12-0.41,1.77-0.41c1.06,0,1.87,0.26,2.42,0.79c0.55,0.53,0.83,1.29,0.85,2.3v5.23
			c0.01,0.8,0.12,1.49,0.33,2.08v0.15H550.64z M548.38,196.8c0.41,0,0.81-0.11,1.19-0.34c0.38-0.23,0.65-0.52,0.82-0.86v-2.47h-0.96
			c-0.8,0.01-1.44,0.19-1.91,0.54c-0.47,0.35-0.7,0.83-0.7,1.46c0,0.59,0.12,1.01,0.35,1.28
			C547.42,196.67,547.82,196.8,548.38,196.8z"/>
		<path d="M559.99,197.24c-0.56,0.73-1.38,1.1-2.46,1.1c-0.94,0-1.65-0.32-2.13-0.97s-0.72-1.59-0.73-2.83v-6.75h1.69v6.63
			c0,1.62,0.48,2.42,1.46,2.42c1.03,0,1.74-0.46,2.13-1.38v-7.67h1.69v10.36h-1.61L559.99,197.24z M559.04,183.44h2.14l-2.57,2.82
			l-1.43,0L559.04,183.44z"/>
		<path d="M563.83,192.5c0-1.6,0.3-2.81,0.9-3.65s1.45-1.25,2.57-1.25c0.99,0,1.76,0.4,2.32,1.21v-5.36h1.69v14.71h-1.55l-0.09-1.11
			c-0.55,0.87-1.35,1.3-2.38,1.3c-1.07,0-1.91-0.42-2.52-1.25c-0.61-0.83-0.92-2.01-0.93-3.53V192.5z M565.52,193.46
			c0,1.16,0.17,2.01,0.52,2.56s0.91,0.82,1.69,0.82c0.84,0,1.47-0.42,1.89-1.27v-5.22c-0.43-0.83-1.06-1.24-1.88-1.24
			c-0.78,0-1.34,0.27-1.69,0.82c-0.34,0.55-0.52,1.38-0.53,2.51V193.46z"/>
		<path d="M577.62,198.34c-1.29,0-2.28-0.38-2.97-1.15c-0.69-0.77-1.04-1.9-1.05-3.38v-1.25c0-1.54,0.34-2.76,1.01-3.63
			c0.67-0.88,1.61-1.32,2.82-1.32c1.21,0,2.12,0.39,2.72,1.16c0.6,0.77,0.91,1.98,0.92,3.61v1.11h-5.78v0.24
			c0,1.11,0.21,1.92,0.63,2.42c0.42,0.5,1.02,0.76,1.8,0.76c0.5,0,0.94-0.09,1.32-0.28c0.38-0.19,0.74-0.49,1.07-0.9l0.88,1.07
			C580.24,197.82,579.12,198.34,577.62,198.34z M577.42,189.05c-0.7,0-1.22,0.24-1.56,0.72c-0.34,0.48-0.53,1.23-0.57,2.25h4.08
			v-0.23c-0.04-0.98-0.22-1.69-0.53-2.11S578.06,189.05,577.42,189.05z"/>
		<path d="M411.25,227.23h-2.45v5.64h-1.76v-13.94h3.91c1.37,0,2.4,0.36,3.1,1.07c0.7,0.71,1.05,1.75,1.05,3.13
			c0,0.86-0.19,1.61-0.57,2.25s-0.92,1.12-1.61,1.45l2.7,5.93v0.12h-1.89L411.25,227.23z M408.8,225.73h2.13
			c0.73,0,1.32-0.24,1.76-0.71c0.44-0.47,0.66-1.11,0.66-1.9c0-1.79-0.81-2.69-2.43-2.69h-2.11V225.73z"/>
		<path d="M420.91,233.06c-1.29,0-2.28-0.38-2.97-1.15c-0.69-0.77-1.04-1.9-1.05-3.38v-1.25c0-1.54,0.34-2.76,1.01-3.63
			s1.61-1.32,2.82-1.32c1.21,0,2.12,0.39,2.72,1.16c0.6,0.77,0.91,1.98,0.92,3.61v1.11h-5.78v0.24c0,1.11,0.21,1.92,0.63,2.42
			c0.42,0.5,1.02,0.76,1.8,0.76c0.5,0,0.94-0.09,1.32-0.28c0.38-0.19,0.74-0.49,1.07-0.89l0.88,1.07
			C423.54,232.55,422.42,233.06,420.91,233.06z M420.72,223.78c-0.7,0-1.22,0.24-1.56,0.72c-0.34,0.48-0.53,1.23-0.57,2.25h4.08
			v-0.23c-0.04-0.98-0.22-1.69-0.53-2.11C421.82,223.99,421.35,223.78,420.72,223.78z"/>
		<path d="M433.87,228.19c0,1.64-0.3,2.86-0.89,3.67c-0.59,0.8-1.43,1.21-2.5,1.21c-1.04,0-1.84-0.39-2.4-1.18v4.97h-1.69v-14.34
			h1.53l0.09,1.15c0.57-0.89,1.38-1.34,2.44-1.34c1.14,0,1.99,0.4,2.55,1.19c0.56,0.79,0.85,1.98,0.87,3.55V228.19z M432.19,227.22
			c0-1.16-0.18-2.02-0.54-2.57c-0.36-0.55-0.93-0.83-1.72-0.83c-0.81,0-1.43,0.41-1.85,1.22v5.39c0.42,0.79,1.04,1.19,1.87,1.19
			c0.77,0,1.33-0.28,1.69-0.83c0.36-0.55,0.54-1.4,0.55-2.53V227.22z"/>
		<path d="M440.34,224.1c-0.24-0.04-0.49-0.07-0.77-0.07c-0.87,0-1.47,0.48-1.82,1.43v7.41h-1.7v-10.36h1.65l0.03,1.05
			c0.45-0.83,1.09-1.25,1.92-1.25c0.27,0,0.49,0.04,0.67,0.13L440.34,224.1z"/>
		<path d="M445.55,233.06c-1.29,0-2.28-0.38-2.97-1.15c-0.69-0.77-1.04-1.9-1.05-3.38v-1.25c0-1.54,0.34-2.76,1.01-3.63
			s1.61-1.32,2.82-1.32c1.21,0,2.12,0.39,2.72,1.16c0.6,0.77,0.91,1.98,0.92,3.61v1.11h-5.78v0.24c0,1.11,0.21,1.92,0.63,2.42
			c0.42,0.5,1.02,0.76,1.8,0.76c0.5,0,0.94-0.09,1.32-0.28c0.38-0.19,0.74-0.49,1.07-0.89l0.88,1.07
			C448.17,232.55,447.05,233.06,445.55,233.06z M445.35,223.78c-0.7,0-1.22,0.24-1.56,0.72c-0.34,0.48-0.53,1.23-0.57,2.25h4.08
			v-0.23c-0.04-0.98-0.22-1.69-0.53-2.11C446.46,223.99,445.99,223.78,445.35,223.78z"/>
		<path d="M456.06,230.22c0-0.36-0.14-0.68-0.41-0.94s-0.8-0.57-1.59-0.92c-0.91-0.38-1.56-0.7-1.93-0.97
			c-0.37-0.27-0.65-0.57-0.84-0.92c-0.19-0.34-0.28-0.75-0.28-1.22c0-0.84,0.31-1.54,0.92-2.1c0.62-0.56,1.4-0.84,2.36-0.84
			c1.01,0,1.82,0.29,2.43,0.88s0.92,1.34,0.92,2.26h-1.68c0-0.47-0.16-0.86-0.47-1.19c-0.31-0.33-0.71-0.49-1.2-0.49
			c-0.5,0-0.89,0.13-1.17,0.39c-0.28,0.26-0.43,0.6-0.43,1.04c0,0.34,0.1,0.62,0.31,0.83c0.21,0.21,0.71,0.49,1.5,0.83
			c1.26,0.49,2.11,0.97,2.57,1.44c0.45,0.47,0.68,1.07,0.68,1.79c0,0.9-0.31,1.62-0.93,2.16c-0.62,0.54-1.45,0.81-2.49,0.81
			c-1.08,0-1.95-0.31-2.62-0.93c-0.67-0.62-1-1.4-1-2.36h1.7c0.02,0.57,0.19,1.02,0.53,1.35c0.33,0.33,0.8,0.49,1.4,0.49
			c0.56,0,0.99-0.13,1.28-0.38C455.91,230.99,456.06,230.65,456.06,230.22z"/>
		<path d="M463.66,233.06c-1.29,0-2.28-0.38-2.97-1.15c-0.69-0.77-1.04-1.9-1.05-3.38v-1.25c0-1.54,0.34-2.76,1.01-3.63
			s1.61-1.32,2.82-1.32c1.21,0,2.12,0.39,2.72,1.16c0.6,0.77,0.91,1.98,0.92,3.61v1.11h-5.78v0.24c0,1.11,0.21,1.92,0.63,2.42
			c0.42,0.5,1.02,0.76,1.8,0.76c0.5,0,0.94-0.09,1.32-0.28c0.38-0.19,0.74-0.49,1.07-0.89l0.88,1.07
			C466.29,232.55,465.17,233.06,463.66,233.06z M463.47,223.78c-0.7,0-1.22,0.24-1.56,0.72c-0.34,0.48-0.53,1.23-0.57,2.25h4.08
			v-0.23c-0.04-0.98-0.22-1.69-0.53-2.11C464.57,223.99,464.1,223.78,463.47,223.78z"/>
		<path d="M470.74,222.51l0.05,1.12c0.66-0.87,1.5-1.31,2.52-1.31c1.83,0,2.76,1.22,2.79,3.67v6.88h-1.69v-6.81
			c0-0.81-0.14-1.39-0.41-1.73s-0.68-0.51-1.22-0.51c-0.42,0-0.8,0.14-1.13,0.42c-0.33,0.28-0.6,0.65-0.81,1.1v7.53h-1.7v-10.36
			H470.74z"/>
		<path d="M480.85,220v2.51h1.56v1.37h-1.56v6.43c0,0.41,0.07,0.72,0.2,0.93s0.36,0.32,0.69,0.32c0.22,0,0.45-0.04,0.68-0.12
			l-0.02,1.43c-0.38,0.13-0.78,0.19-1.18,0.19c-0.67,0-1.18-0.24-1.53-0.72c-0.35-0.48-0.53-1.16-0.53-2.03v-6.43h-1.58v-1.37h1.58
			V220H480.85z"/>
		<path d="M489.75,232.87c-0.1-0.22-0.18-0.6-0.22-1.13c-0.6,0.88-1.37,1.32-2.3,1.32c-0.94,0-1.67-0.26-2.2-0.79
			c-0.53-0.53-0.79-1.27-0.79-2.23c0-1.05,0.36-1.89,1.07-2.51s1.69-0.94,2.94-0.95h1.25v-1.1c0-0.62-0.14-1.06-0.41-1.32
			s-0.69-0.39-1.25-0.39c-0.51,0-0.93,0.15-1.25,0.46c-0.32,0.3-0.48,0.69-0.48,1.15h-1.7c0-0.53,0.16-1.04,0.47-1.52
			c0.31-0.48,0.73-0.86,1.26-1.13c0.53-0.27,1.12-0.41,1.77-0.41c1.06,0,1.87,0.26,2.42,0.79c0.55,0.53,0.83,1.29,0.85,2.3v5.23
			c0.01,0.8,0.12,1.49,0.33,2.08v0.15H489.75z M487.5,231.52c0.41,0,0.81-0.12,1.19-0.34c0.38-0.23,0.65-0.52,0.82-0.86v-2.47h-0.96
			c-0.8,0.01-1.44,0.19-1.91,0.54c-0.47,0.35-0.7,0.83-0.7,1.46c0,0.59,0.12,1.01,0.35,1.28
			C486.53,231.39,486.93,231.52,487.5,231.52z"/>
		<path d="M495.41,222.51l0.05,1.12c0.66-0.87,1.5-1.31,2.52-1.31c1.83,0,2.76,1.22,2.79,3.67v6.88h-1.69v-6.81
			c0-0.81-0.14-1.39-0.41-1.73s-0.68-0.51-1.22-0.51c-0.42,0-0.8,0.14-1.13,0.42c-0.33,0.28-0.6,0.65-0.81,1.1v7.53h-1.7v-10.36
			H495.41z"/>
		<path d="M505.52,220v2.51h1.56v1.37h-1.56v6.43c0,0.41,0.07,0.72,0.2,0.93s0.36,0.32,0.69,0.32c0.22,0,0.45-0.04,0.68-0.12
			l-0.02,1.43c-0.38,0.13-0.78,0.19-1.18,0.19c-0.67,0-1.18-0.24-1.53-0.72c-0.35-0.48-0.53-1.16-0.53-2.03v-6.43h-1.58v-1.37h1.58
			V220H505.52z"/>
		<path d="M512.8,233.06c-1.29,0-2.28-0.38-2.97-1.15c-0.69-0.77-1.04-1.9-1.05-3.38v-1.25c0-1.54,0.34-2.76,1.01-3.63
			s1.61-1.32,2.82-1.32c1.21,0,2.12,0.39,2.72,1.16c0.6,0.77,0.91,1.98,0.92,3.61v1.11h-5.78v0.24c0,1.11,0.21,1.92,0.63,2.42
			c0.42,0.5,1.02,0.76,1.8,0.76c0.5,0,0.94-0.09,1.32-0.28c0.38-0.19,0.74-0.49,1.07-0.89l0.88,1.07
			C515.43,232.55,514.31,233.06,512.8,233.06z M512.61,223.78c-0.7,0-1.22,0.24-1.56,0.72c-0.34,0.48-0.53,1.23-0.57,2.25h4.08
			v-0.23c-0.04-0.98-0.22-1.69-0.53-2.11C513.71,223.99,513.24,223.78,512.61,223.78z"/>
		<path d="M523.32,230.22c0-0.36-0.14-0.68-0.41-0.94s-0.8-0.57-1.59-0.92c-0.91-0.38-1.56-0.7-1.93-0.97
			c-0.37-0.27-0.65-0.57-0.84-0.92c-0.19-0.34-0.28-0.75-0.28-1.22c0-0.84,0.31-1.54,0.92-2.1c0.62-0.56,1.4-0.84,2.36-0.84
			c1.01,0,1.82,0.29,2.43,0.88s0.92,1.34,0.92,2.26h-1.68c0-0.47-0.16-0.86-0.47-1.19c-0.31-0.33-0.71-0.49-1.2-0.49
			c-0.5,0-0.89,0.13-1.17,0.39c-0.28,0.26-0.43,0.6-0.43,1.04c0,0.34,0.1,0.62,0.31,0.83c0.21,0.21,0.71,0.49,1.5,0.83
			c1.26,0.49,2.11,0.97,2.57,1.44c0.45,0.47,0.68,1.07,0.68,1.79c0,0.9-0.31,1.62-0.93,2.16c-0.62,0.54-1.45,0.81-2.49,0.81
			c-1.08,0-1.95-0.31-2.62-0.93c-0.67-0.62-1-1.4-1-2.36h1.7c0.02,0.57,0.19,1.02,0.53,1.35c0.33,0.33,0.8,0.49,1.4,0.49
			c0.56,0,0.99-0.13,1.28-0.38C523.17,230.99,523.32,230.65,523.32,230.22z"/>
		<path d="M531.35,227.22c0-1.6,0.3-2.81,0.9-3.65c0.6-0.84,1.45-1.25,2.57-1.25c0.99,0,1.76,0.4,2.32,1.21v-5.36h1.69v14.71h-1.55
			l-0.09-1.11c-0.55,0.87-1.35,1.3-2.38,1.3c-1.07,0-1.91-0.42-2.52-1.25c-0.61-0.83-0.92-2.01-0.93-3.53V227.22z M533.04,228.18
			c0,1.16,0.17,2.01,0.52,2.56c0.34,0.55,0.91,0.82,1.69,0.82c0.84,0,1.47-0.42,1.89-1.27v-5.22c-0.43-0.83-1.06-1.24-1.88-1.24
			c-0.78,0-1.34,0.27-1.69,0.82c-0.34,0.54-0.52,1.38-0.53,2.51V228.18z"/>
		<path d="M546.76,232.87c-0.1-0.22-0.18-0.6-0.22-1.13c-0.6,0.88-1.37,1.32-2.3,1.32c-0.94,0-1.67-0.26-2.2-0.79
			c-0.53-0.53-0.79-1.27-0.79-2.23c0-1.05,0.36-1.89,1.07-2.51s1.69-0.94,2.94-0.95h1.25v-1.1c0-0.62-0.14-1.06-0.41-1.32
			s-0.69-0.39-1.25-0.39c-0.51,0-0.93,0.15-1.25,0.46c-0.32,0.3-0.48,0.69-0.48,1.15h-1.7c0-0.53,0.16-1.04,0.47-1.52
			c0.31-0.48,0.73-0.86,1.26-1.13c0.53-0.27,1.12-0.41,1.77-0.41c1.06,0,1.87,0.26,2.42,0.79c0.55,0.53,0.83,1.29,0.85,2.3v5.23
			c0.01,0.8,0.12,1.49,0.33,2.08v0.15H546.76z M544.5,231.52c0.41,0,0.81-0.12,1.19-0.34c0.38-0.23,0.65-0.52,0.82-0.86v-2.47h-0.96
			c-0.8,0.01-1.44,0.19-1.91,0.54c-0.47,0.35-0.7,0.83-0.7,1.46c0,0.59,0.12,1.01,0.35,1.28
			C543.54,231.39,543.94,231.52,544.5,231.52z"/>
		<path d="M560.35,230.22c0-0.36-0.14-0.68-0.41-0.94s-0.8-0.57-1.59-0.92c-0.91-0.38-1.56-0.7-1.93-0.97
			c-0.37-0.27-0.65-0.57-0.84-0.92c-0.19-0.34-0.28-0.75-0.28-1.22c0-0.84,0.31-1.54,0.92-2.1c0.62-0.56,1.4-0.84,2.36-0.84
			c1.01,0,1.82,0.29,2.43,0.88s0.92,1.34,0.92,2.26h-1.68c0-0.47-0.16-0.86-0.47-1.19c-0.31-0.33-0.71-0.49-1.2-0.49
			c-0.5,0-0.89,0.13-1.17,0.39c-0.28,0.26-0.43,0.6-0.43,1.04c0,0.34,0.1,0.62,0.31,0.83c0.21,0.21,0.71,0.49,1.5,0.83
			c1.26,0.49,2.11,0.97,2.57,1.44c0.45,0.47,0.68,1.07,0.68,1.79c0,0.9-0.31,1.62-0.93,2.16c-0.62,0.54-1.45,0.81-2.49,0.81
			c-1.08,0-1.95-0.31-2.62-0.93c-0.67-0.62-1-1.4-1-2.36h1.7c0.02,0.57,0.19,1.02,0.53,1.35c0.33,0.33,0.8,0.49,1.4,0.49
			c0.56,0,0.99-0.13,1.28-0.38C560.2,230.99,560.35,230.65,560.35,230.22z"/>
		<path d="M563.89,227.21c0-1.51,0.37-2.7,1.1-3.58c0.73-0.88,1.7-1.32,2.9-1.32s2.17,0.43,2.9,1.28c0.73,0.86,1.11,2.02,1.12,3.5
			v1.09c0,1.5-0.36,2.69-1.09,3.56c-0.73,0.87-1.7,1.31-2.91,1.31c-1.2,0-2.16-0.42-2.89-1.27c-0.72-0.85-1.1-2-1.13-3.45V227.21z
			 M565.59,228.19c0,1.07,0.21,1.9,0.63,2.51s0.98,0.92,1.69,0.92c1.49,0,2.26-1.08,2.31-3.24v-1.17c0-1.06-0.21-1.9-0.63-2.51
			c-0.42-0.62-0.99-0.92-1.7-0.92c-0.7,0-1.25,0.31-1.67,0.92c-0.42,0.62-0.63,1.45-0.63,2.5V228.19z"/>
		<path d="M577.69,231.62c0.56,0,1.01-0.17,1.35-0.52c0.34-0.35,0.52-0.84,0.56-1.49h1.6c-0.04,1-0.39,1.82-1.06,2.47
			s-1.48,0.98-2.45,0.98c-1.28,0-2.26-0.4-2.93-1.21c-0.67-0.81-1.01-2.01-1.01-3.61v-1.14c0-1.56,0.33-2.75,1.01-3.57
			c0.67-0.81,1.65-1.22,2.93-1.22c1.06,0,1.9,0.33,2.52,1c0.62,0.67,0.95,1.59,0.99,2.75h-1.6c-0.04-0.77-0.22-1.34-0.55-1.72
			c-0.33-0.38-0.78-0.58-1.36-0.58c-0.75,0-1.31,0.25-1.68,0.74c-0.36,0.5-0.55,1.31-0.56,2.44v1.32c0,1.22,0.18,2.08,0.54,2.58
			C576.34,231.37,576.91,231.62,577.69,231.62z"/>
		<path d="M585.11,219.76c0,0.29-0.08,0.53-0.24,0.72c-0.16,0.19-0.4,0.29-0.73,0.29c-0.32,0-0.56-0.1-0.72-0.29
			c-0.16-0.19-0.24-0.43-0.24-0.72s0.08-0.53,0.24-0.73c0.16-0.2,0.4-0.3,0.72-0.3s0.56,0.1,0.72,0.3
			C585.03,219.24,585.11,219.48,585.11,219.76z M584.98,232.87h-1.69v-10.36h1.69V232.87z"/>
		<path d="M591.35,233.06c-1.29,0-2.28-0.38-2.97-1.15c-0.69-0.77-1.04-1.9-1.05-3.38v-1.25c0-1.54,0.34-2.76,1.01-3.63
			s1.61-1.32,2.82-1.32c1.21,0,2.12,0.39,2.72,1.16c0.6,0.77,0.91,1.98,0.92,3.61v1.11h-5.78v0.24c0,1.11,0.21,1.92,0.63,2.42
			c0.42,0.5,1.02,0.76,1.8,0.76c0.5,0,0.94-0.09,1.32-0.28c0.38-0.19,0.74-0.49,1.07-0.89l0.88,1.07
			C593.97,232.55,592.85,233.06,591.35,233.06z M591.16,223.78c-0.7,0-1.22,0.24-1.56,0.72c-0.34,0.48-0.53,1.23-0.57,2.25h4.08
			v-0.23c-0.04-0.98-0.22-1.69-0.53-2.11C592.26,223.99,591.79,223.78,591.16,223.78z"/>
		<path d="M596.47,227.22c0-1.6,0.3-2.81,0.9-3.65c0.6-0.84,1.45-1.25,2.57-1.25c0.99,0,1.76,0.4,2.32,1.21v-5.36h1.69v14.71h-1.55
			l-0.09-1.11c-0.55,0.87-1.35,1.3-2.38,1.3c-1.07,0-1.91-0.42-2.52-1.25c-0.61-0.83-0.92-2.01-0.93-3.53V227.22z M598.16,228.18
			c0,1.16,0.17,2.01,0.52,2.56c0.34,0.55,0.91,0.82,1.69,0.82c0.84,0,1.47-0.42,1.89-1.27v-5.22c-0.43-0.83-1.06-1.24-1.88-1.24
			c-0.78,0-1.34,0.27-1.69,0.82c-0.34,0.54-0.52,1.38-0.53,2.51V228.18z"/>
		<path d="M611.88,232.87c-0.1-0.22-0.18-0.6-0.22-1.13c-0.6,0.88-1.37,1.32-2.3,1.32c-0.94,0-1.67-0.26-2.2-0.79
			c-0.53-0.53-0.79-1.27-0.79-2.23c0-1.05,0.36-1.89,1.07-2.51s1.69-0.94,2.94-0.95h1.25v-1.1c0-0.62-0.14-1.06-0.41-1.32
			s-0.69-0.39-1.25-0.39c-0.51,0-0.93,0.15-1.25,0.46c-0.32,0.3-0.48,0.69-0.48,1.15h-1.7c0-0.53,0.16-1.04,0.47-1.52
			c0.31-0.48,0.73-0.86,1.26-1.13c0.53-0.27,1.12-0.41,1.77-0.41c1.06,0,1.87,0.26,2.42,0.79c0.55,0.53,0.83,1.29,0.85,2.3v5.23
			c0.01,0.8,0.12,1.49,0.33,2.08v0.15H611.88z M609.62,231.52c0.41,0,0.81-0.12,1.19-0.34c0.38-0.23,0.65-0.52,0.82-0.86v-2.47
			h-0.96c-0.8,0.01-1.44,0.19-1.91,0.54c-0.47,0.35-0.7,0.83-0.7,1.46c0,0.59,0.12,1.01,0.35,1.28
			C608.66,231.39,609.06,231.52,609.62,231.52z"/>
		<path d="M615.59,227.22c0-1.6,0.3-2.81,0.9-3.65c0.6-0.84,1.45-1.25,2.57-1.25c0.99,0,1.76,0.4,2.32,1.21v-5.36h1.69v14.71h-1.55
			l-0.09-1.11c-0.55,0.87-1.35,1.3-2.38,1.3c-1.07,0-1.91-0.42-2.52-1.25c-0.61-0.83-0.92-2.01-0.93-3.53V227.22z M617.29,228.18
			c0,1.16,0.17,2.01,0.52,2.56c0.34,0.55,0.91,0.82,1.69,0.82c0.84,0,1.47-0.42,1.89-1.27v-5.22c-0.43-0.83-1.06-1.24-1.88-1.24
			c-0.78,0-1.34,0.27-1.69,0.82c-0.34,0.54-0.52,1.38-0.53,2.51V228.18z"/>
		<path d="M629.38,233.06c-1.29,0-2.28-0.38-2.97-1.15c-0.69-0.77-1.04-1.9-1.05-3.38v-1.25c0-1.54,0.34-2.76,1.01-3.63
			s1.61-1.32,2.82-1.32c1.21,0,2.12,0.39,2.72,1.16c0.6,0.77,0.91,1.98,0.92,3.61v1.11h-5.78v0.24c0,1.11,0.21,1.92,0.63,2.42
			c0.42,0.5,1.02,0.76,1.8,0.76c0.5,0,0.94-0.09,1.32-0.28c0.38-0.19,0.74-0.49,1.07-0.89l0.88,1.07
			C632.01,232.55,630.88,233.06,629.38,233.06z M629.19,223.78c-0.7,0-1.22,0.24-1.56,0.72c-0.34,0.48-0.53,1.23-0.57,2.25h4.08
			v-0.23c-0.04-0.98-0.22-1.69-0.53-2.11C630.29,223.99,629.82,223.78,629.19,223.78z"/>
		<path d="M642.95,231.62c0.56,0,1.01-0.17,1.35-0.52c0.34-0.35,0.52-0.84,0.56-1.49h1.6c-0.04,1-0.39,1.82-1.06,2.47
			s-1.48,0.98-2.45,0.98c-1.28,0-2.26-0.4-2.93-1.21c-0.67-0.81-1.01-2.01-1.01-3.61v-1.14c0-1.56,0.33-2.75,1.01-3.57
			c0.67-0.81,1.65-1.22,2.93-1.22c1.06,0,1.9,0.33,2.52,1c0.62,0.67,0.95,1.59,0.99,2.75h-1.6c-0.04-0.77-0.22-1.34-0.55-1.72
			c-0.33-0.38-0.78-0.58-1.36-0.58c-0.75,0-1.31,0.25-1.68,0.74c-0.36,0.5-0.55,1.31-0.56,2.44v1.32c0,1.22,0.18,2.08,0.54,2.58
			C641.6,231.37,642.17,231.62,642.95,231.62z"/>
		<path d="M650.37,219.76c0,0.29-0.08,0.53-0.24,0.72c-0.16,0.19-0.4,0.29-0.73,0.29c-0.32,0-0.56-0.1-0.72-0.29
			c-0.16-0.19-0.24-0.43-0.24-0.72s0.08-0.53,0.24-0.73c0.16-0.2,0.4-0.3,0.72-0.3s0.56,0.1,0.72,0.3
			C650.29,219.24,650.37,219.48,650.37,219.76z M650.23,232.87h-1.69v-10.36h1.69V232.87z"/>
		<path d="M655.83,230.3l1.96-7.78h1.72l-3.07,10.36h-1.26l-3.11-10.36h1.72L655.83,230.3z"/>
		<path d="M663.25,219.76c0,0.29-0.08,0.53-0.24,0.72c-0.16,0.19-0.4,0.29-0.73,0.29c-0.32,0-0.56-0.1-0.72-0.29
			c-0.16-0.19-0.24-0.43-0.24-0.72s0.08-0.53,0.24-0.73c0.16-0.2,0.4-0.3,0.72-0.3s0.56,0.1,0.72,0.3
			C663.16,219.24,663.25,219.48,663.25,219.76z M663.11,232.87h-1.69v-10.36h1.69V232.87z"/>
		<path d="M667.6,232.87h-1.69v-14.71h1.69V232.87z"/>
	</g>
	<rect x="375" y="148.21" width="19.68" height="19.68"/>
	<rect x="375" y="182.94" class="st3" width="19.68" height="19.68"/>
	<rect x="375" y="216.5" class="st1" width="19.68" height="19.68"/>
</g>
<g>
	<g>
		<path class="st4" d="M100.45,241.48l1.36-13.99h13.33v4.58h-8.94l-0.49,5.9c1.03-0.69,2.1-1.04,3.19-1.04
			c2.27,0,4.02,0.81,5.25,2.42c1.23,1.61,1.84,3.89,1.84,6.84c0,2.76-0.73,4.98-2.19,6.67c-1.46,1.69-3.42,2.53-5.86,2.53
			c-1.45,0-2.79-0.34-4.03-1.03c-1.24-0.69-2.21-1.64-2.92-2.86c-0.71-1.22-1.07-2.61-1.09-4.16h5.29c0.09,1.15,0.37,2.04,0.85,2.67
			c0.48,0.63,1.1,0.95,1.85,0.95c0.88,0,1.56-0.42,2.04-1.28c0.48-0.85,0.72-2.12,0.72-3.81c0-1.59-0.29-2.79-0.86-3.59
			c-0.57-0.81-1.38-1.21-2.41-1.21c-1.01,0-1.79,0.35-2.34,1.04l-0.34,0.47L100.45,241.48z"/>
		<path class="st4" d="M135.48,243.64c0,3.81-0.69,6.72-2.07,8.73s-3.35,3.02-5.91,3.02c-2.53,0-4.49-0.98-5.87-2.94
			s-2.1-4.77-2.15-8.42v-5.2c0-3.79,0.69-6.7,2.06-8.71c1.37-2.01,3.35-3.02,5.92-3.02s4.54,1,5.92,2.99
			c1.37,1.99,2.07,4.83,2.1,8.53V243.64z M130.11,238.06c0-2.17-0.21-3.79-0.64-4.88c-0.43-1.08-1.1-1.63-2-1.63
			c-1.7,0-2.58,1.99-2.65,5.96v6.86c0,2.22,0.22,3.87,0.65,4.95c0.44,1.08,1.11,1.63,2.03,1.63c0.87,0,1.52-0.51,1.94-1.52
			c0.42-1.01,0.65-2.57,0.67-4.66V238.06z"/>
		<path class="st4" d="M139.11,232.79c0-1.68,0.46-3.04,1.39-4.1s2.18-1.59,3.75-1.59c1.58,0,2.83,0.52,3.77,1.56
			c0.94,1.04,1.41,2.44,1.41,4.21v1.38c0,1.7-0.47,3.07-1.4,4.1s-2.18,1.55-3.74,1.55c-1.55,0-2.8-0.52-3.75-1.55
			s-1.43-2.44-1.43-4.22V232.79z M142.59,234.24c0,0.76,0.16,1.36,0.48,1.81s0.73,0.67,1.22,0.67c0.5,0,0.9-0.23,1.2-0.7
			c0.3-0.47,0.44-1.08,0.44-1.83v-1.4c0-0.73-0.15-1.33-0.45-1.8c-0.3-0.47-0.71-0.71-1.23-0.71c-0.5,0-0.91,0.24-1.21,0.71
			c-0.3,0.47-0.45,1.09-0.45,1.86V234.24z M145.25,252.96l-2.53-1.44L154,230.01l2.55,1.44L145.25,252.96z M149.96,248.27
			c0-1.7,0.47-3.07,1.42-4.11c0.94-1.04,2.19-1.56,3.74-1.56c1.56,0,2.82,0.51,3.76,1.54c0.94,1.03,1.42,2.44,1.42,4.22v1.38
			c0,1.69-0.46,3.05-1.38,4.09s-2.17,1.56-3.76,1.56c-1.6,0-2.87-0.52-3.8-1.57c-0.93-1.05-1.4-2.43-1.4-4.16V248.27z
			 M153.46,249.74c0,0.71,0.17,1.3,0.5,1.78s0.73,0.72,1.2,0.72c1.05,0,1.59-0.75,1.64-2.25v-1.72c0-0.74-0.15-1.34-0.46-1.8
			c-0.31-0.46-0.72-0.69-1.22-0.69c-1.11,0-1.66,0.96-1.66,2.89V249.74z"/>
	</g>
</g>
<g>
	<g>
		<path class="st4" d="M247.56,202.81h-16.22v-3.78l7.45-9.47c0.95-1.31,1.64-2.46,2.09-3.45c0.45-0.99,0.67-1.94,0.67-2.85
			c0-1.22-0.21-2.18-0.63-2.87s-1.03-1.04-1.82-1.04c-0.87,0-1.56,0.4-2.07,1.21s-0.77,1.94-0.77,3.4h-5.37
			c0-1.69,0.35-3.23,1.05-4.63c0.7-1.4,1.68-2.49,2.95-3.26c1.27-0.78,2.7-1.16,4.3-1.16c2.46,0,4.36,0.68,5.72,2.03
			c1.35,1.35,2.03,3.28,2.03,5.78c0,1.55-0.38,3.12-1.12,4.72c-0.75,1.59-2.11,3.56-4.07,5.89l-3.53,5.05h9.36V202.81z"/>
		<path class="st4" d="M251.47,189.28l1.36-13.99h13.33v4.58h-8.94l-0.49,5.9c1.03-0.69,2.1-1.04,3.19-1.04
			c2.27,0,4.02,0.81,5.25,2.42c1.23,1.61,1.84,3.89,1.84,6.84c0,2.76-0.73,4.98-2.19,6.67c-1.46,1.69-3.42,2.53-5.86,2.53
			c-1.45,0-2.79-0.34-4.03-1.03c-1.24-0.69-2.21-1.64-2.92-2.86c-0.71-1.22-1.07-2.61-1.09-4.16h5.29c0.09,1.15,0.37,2.04,0.85,2.67
			c0.48,0.63,1.1,0.95,1.85,0.95c0.88,0,1.56-0.42,2.04-1.28c0.48-0.85,0.72-2.12,0.72-3.81c0-1.59-0.29-2.79-0.86-3.59
			c-0.57-0.81-1.38-1.21-2.41-1.21c-1.01,0-1.79,0.35-2.34,1.04l-0.34,0.47L251.47,189.28z"/>
		<path class="st4" d="M270.54,180.58c0-1.68,0.46-3.04,1.39-4.1s2.18-1.59,3.75-1.59c1.58,0,2.83,0.52,3.77,1.56
			c0.94,1.04,1.41,2.44,1.41,4.21v1.38c0,1.7-0.47,3.07-1.4,4.1s-2.18,1.55-3.74,1.55c-1.55,0-2.8-0.52-3.75-1.55
			s-1.43-2.44-1.43-4.22V180.58z M274.02,182.04c0,0.76,0.16,1.36,0.48,1.81s0.73,0.67,1.22,0.67c0.5,0,0.9-0.23,1.2-0.7
			c0.3-0.47,0.44-1.08,0.44-1.83v-1.4c0-0.73-0.15-1.33-0.45-1.8c-0.3-0.47-0.71-0.71-1.23-0.71c-0.5,0-0.91,0.24-1.21,0.71
			c-0.3,0.47-0.45,1.09-0.45,1.86V182.04z M276.69,200.75l-2.53-1.44l11.29-21.51l2.55,1.44L276.69,200.75z M281.39,196.06
			c0-1.7,0.47-3.07,1.42-4.11c0.94-1.04,2.19-1.56,3.74-1.56c1.56,0,2.82,0.51,3.76,1.54c0.94,1.03,1.42,2.44,1.42,4.22v1.38
			c0,1.69-0.46,3.05-1.38,4.09s-2.17,1.56-3.76,1.56c-1.6,0-2.87-0.52-3.8-1.57c-0.93-1.05-1.4-2.43-1.4-4.16V196.06z
			 M284.89,197.54c0,0.71,0.17,1.3,0.5,1.78s0.73,0.72,1.2,0.72c1.05,0,1.59-0.75,1.64-2.25v-1.72c0-0.74-0.15-1.34-0.46-1.8
			c-0.31-0.46-0.72-0.69-1.22-0.69c-1.11,0-1.66,0.96-1.66,2.89V197.54z"/>
	</g>
</g>
<g>
	<g>
		<path class="st4" d="M247.56,312.81h-16.22v-3.78l7.45-9.47c0.95-1.31,1.64-2.46,2.09-3.45c0.45-0.99,0.67-1.94,0.67-2.85
			c0-1.22-0.21-2.18-0.63-2.87s-1.03-1.04-1.82-1.04c-0.87,0-1.56,0.4-2.07,1.21s-0.77,1.94-0.77,3.4h-5.37
			c0-1.69,0.35-3.23,1.05-4.63c0.7-1.4,1.68-2.49,2.95-3.26c1.27-0.78,2.7-1.16,4.3-1.16c2.46,0,4.36,0.68,5.72,2.03
			c1.35,1.35,2.03,3.28,2.03,5.78c0,1.55-0.38,3.12-1.12,4.72c-0.75,1.59-2.11,3.56-4.07,5.89l-3.53,5.05h9.36V312.81z"/>
		<path class="st4" d="M251.47,299.28l1.36-13.99h13.33v4.58h-8.94l-0.49,5.9c1.03-0.69,2.1-1.04,3.19-1.04
			c2.27,0,4.02,0.81,5.25,2.42c1.23,1.61,1.84,3.89,1.84,6.84c0,2.76-0.73,4.98-2.19,6.67c-1.46,1.69-3.42,2.53-5.86,2.53
			c-1.45,0-2.79-0.34-4.03-1.03c-1.24-0.69-2.21-1.64-2.92-2.86c-0.71-1.22-1.07-2.61-1.09-4.16h5.29c0.09,1.15,0.37,2.04,0.85,2.67
			c0.48,0.63,1.1,0.95,1.85,0.95c0.88,0,1.56-0.42,2.04-1.28c0.48-0.85,0.72-2.12,0.72-3.81c0-1.59-0.29-2.79-0.86-3.59
			c-0.57-0.81-1.38-1.21-2.41-1.21c-1.01,0-1.79,0.35-2.34,1.04l-0.34,0.47L251.47,299.28z"/>
		<path class="st4" d="M270.54,290.58c0-1.68,0.46-3.04,1.39-4.1s2.18-1.59,3.75-1.59c1.58,0,2.83,0.52,3.77,1.56
			c0.94,1.04,1.41,2.44,1.41,4.21v1.38c0,1.7-0.47,3.07-1.4,4.1s-2.18,1.55-3.74,1.55c-1.55,0-2.8-0.52-3.75-1.55
			s-1.43-2.44-1.43-4.22V290.58z M274.02,292.04c0,0.76,0.16,1.36,0.48,1.81s0.73,0.67,1.22,0.67c0.5,0,0.9-0.23,1.2-0.7
			c0.3-0.47,0.44-1.08,0.44-1.83v-1.4c0-0.73-0.15-1.33-0.45-1.8c-0.3-0.47-0.71-0.71-1.23-0.71c-0.5,0-0.91,0.24-1.21,0.71
			c-0.3,0.47-0.45,1.09-0.45,1.86V292.04z M276.69,310.75l-2.53-1.44l11.29-21.51l2.55,1.44L276.69,310.75z M281.39,306.06
			c0-1.7,0.47-3.07,1.42-4.11c0.94-1.04,2.19-1.56,3.74-1.56c1.56,0,2.82,0.51,3.76,1.54c0.94,1.03,1.42,2.44,1.42,4.22v1.38
			c0,1.69-0.46,3.05-1.38,4.09s-2.17,1.56-3.76,1.56c-1.6,0-2.87-0.52-3.8-1.57c-0.93-1.05-1.4-2.43-1.4-4.16V306.06z
			 M284.89,307.54c0,0.71,0.17,1.3,0.5,1.78s0.73,0.72,1.2,0.72c1.05,0,1.59-0.75,1.64-2.25v-1.72c0-0.74-0.15-1.34-0.46-1.8
			c-0.31-0.46-0.72-0.69-1.22-0.69c-1.11,0-1.66,0.96-1.66,2.89V307.54z"/>
	</g>
</g>
</svg>
