<?xml version="1.0" encoding="utf-8"?>
<!-- Generator: Adobe Illustrator 25.2.1, SVG Export Plug-In . SVG Version: 6.00 Build 0)  -->
<svg version="1.1" id="Layer_1" xmlns="http://www.w3.org/2000/svg" xmlns:xlink="http://www.w3.org/1999/xlink" x="0px" y="0px"
	 viewBox="0 0 120 80" style="enable-background:new 0 0 120 80;" xml:space="preserve">
<style type="text/css">
	.st0{fill:#231F20;}
</style>
<g>
	<path class="st0" d="M40.6,39.7l-0.3-0.3l-5.8-5.8l2-2c0.1-0.1,0.1-0.2,0.1-0.3v-6.8v-0.4c0-0.2-0.2-0.4-0.4-0.4h-0.4H29
		c-0.1,0-0.2,0-0.3,0.1l-2,2l-5.8-5.8l-0.3-0.3c-0.2-0.2-0.4-0.2-0.6,0l-0.3,0.3L14,25.9l-2-2c-0.1-0.1-0.2-0.1-0.3-0.1H4.9H4.5
		c-0.2,0-0.4,0.2-0.4,0.4v0.4v6.8c0,0.1,0,0.2,0.1,0.3l2,2l-5.8,5.8l-0.3,0.3c-0.2,0.2-0.2,0.4,0,0.6l0.3,0.3l5.8,5.8l-2,2
		c-0.1,0.1-0.1,0.2-0.1,0.3v6.8v0.4c0,0.2,0.2,0.4,0.4,0.4h0.4h6.8c0.1,0,0.2,0,0.3-0.1l2-2l5.8,5.8l0.3,0.3c0.2,0.2,0.4,0.2,0.6,0
		l0.3-0.3l5.8-5.8l2,2c0.1,0.1,0.2,0.1,0.3,0.1h6.8h0.4c0.2,0,0.4-0.2,0.4-0.4v-0.4v-6.8c0-0.1,0-0.2-0.1-0.3l-2-2l5.8-5.8l0.3-0.3
		C40.7,40.1,40.7,39.9,40.6,39.7L40.6,39.7z M27,26.7L27,26.7l2.2-2.2h6.6v6.6l-2.2,2.2c0,0,0,0,0,0l-4.7,4.7h-0.4v-5.7
		c0-0.3-0.2-0.5-0.5-0.5h-5.7v-0.4L27,26.7L27,26.7z M21.5,45L21.5,45l0,2.2h-2.2l0-2.2H21.5L21.5,45L21.5,45z M21.5,44.2L21.5,44.2
		h-2.2l0-2.3v-0.3v-0.1v-0.4h-0.4h-0.4h-2.3v-2.2h2.3h0.4h0.4v-0.4v-0.1v-0.3l0-2.2h2.2l0,2.2v0.4v0.4h0.4h0.4h2.2v2.2h-2.2h-0.4h0
		h-0.4v0.4v0.4V44.2L21.5,44.2z M13.2,38.9L13.2,38.9h2.2v2.2h-2.2V38.9L13.2,38.9z M16.2,41.9L16.2,41.9h2.3v2.3h-2.3V41.9
		L16.2,41.9z M16.2,35.8L16.2,35.8h2.3v2.2h-2.3V35.8L16.2,35.8z M18.4,35L18.4,35h-2.3h-0.4h0c-0.2,0-0.4,0.2-0.4,0.4v0v0.4v2.2
		h-2.2v-5.2h5.2L18.4,35L18.4,35z M13.2,41.9L13.2,41.9h2.2v2.3v0.4v0c0,0.2,0.2,0.4,0.4,0.4h0h0.4h2.3l0,2.2h-5.2V41.9L13.2,41.9z
		 M19.2,35L19.2,35l0-2.2h2.2V35H19.2L19.2,35z M27.5,41.1L27.5,41.1h-2.2v-2.2h2.2V41.1L27.5,41.1z M24.5,44.2L24.5,44.2h-2.2
		l0-2.3h2.2V44.2L24.5,44.2z M24.5,38.1L24.5,38.1h-2.2v-2.2h2.2V38.1L24.5,38.1z M22.3,45L22.3,45h2.2h0.4h0c0.2,0,0.4-0.2,0.4-0.4
		v0c0,0,0,0,0,0v-0.4v-2.3h2.2v5.2h-5.2L22.3,45L22.3,45z M27.5,38.1L27.5,38.1h-2.2v-2.2v-0.4c0,0,0,0,0,0v0c0-0.2-0.2-0.4-0.4-0.4
		h0h-0.4h-2.3l0-2.2h5.2V38.1L27.5,38.1z M20.4,20.6L20.4,20.6l5.8,5.8L21.6,31c-0.1,0.1-0.1,0.2-0.1,0.3v0.5h-2.2v-0.5
		c0-0.1,0-0.2-0.1-0.3l-4.6-4.6L20.4,20.6L20.4,20.6z M4.9,31.1L4.9,31.1v0.2c0-0.1,0-0.2-0.1-0.3L4.9,31.1v-6.6h6.6l2.2,2.2
		l4.7,4.7v0.4h-5.7c-0.3,0-0.5,0.2-0.5,0.5v5.7h-0.4l-4.7-4.7c0,0,0,0,0,0L4.9,31.1L4.9,31.1z M1,40L1,40l5.8-5.8l4.6,4.6
		c0.1,0.1,0.2,0.1,0.3,0.1h0.5v2.2h-0.5c-0.1,0-0.2,0-0.3,0.1l-4.6,4.6L1,40L1,40z M11.5,55.4L11.5,55.4H4.9v-6.6l2.2-2.2
		c0,0,0,0,0,0l4.7-4.7h0.4v5.7c0,0.3,0.2,0.5,0.5,0.5h5.7v0.4L11.5,55.4L11.5,55.4z M20.4,59.4L20.4,59.4l-5.8-5.8l4.6-4.6
		c0.1-0.1,0.1-0.2,0.1-0.3v-0.5h2.2l0,0.5c0,0.1,0,0.2,0.1,0.3l4.6,4.6L20.4,59.4L20.4,59.4z M35.8,48.9L35.8,48.9v6.6h-6.6
		l-6.9-6.9v-0.4H28c0.3,0,0.5-0.2,0.5-0.5v-5.7h0.4l4.7,4.7L35.8,48.9L35.8,48.9z M33.9,45.8L33.9,45.8l-4.6-4.6
		c-0.1-0.1-0.2-0.1-0.3-0.1h-0.5v-2.2H29c0.1,0,0.2,0,0.3-0.1l4.6-4.6l5.8,5.8L33.9,45.8L33.9,45.8z"/>
	<path class="st0" d="M47.5,39.8c0.3,0.4,0.7,0.6,1.1,0.8c0.4,0.2,0.8,0.4,1.1,0.5c0.3,0.1,0.9,0.2,1.6,0.2c0.8,0,1.5-0.1,2.1-0.3
		c0.1,0,0.2-0.1,0.3-0.1l0,0l0,0c0.1-0.3,0.2-0.8,0.4-1.6l0,0l0,0c0,0,0-0.1,0-0.2l0,0l0,0c0,0,0,0,0,0c0,0-0.1-0.1-0.1-0.1h0l0,0
		l-0.1,0l0,0l0,0c-0.1,0.3-0.3,0.6-0.5,0.8c-0.2,0.2-0.4,0.4-0.6,0.5c-0.2,0.1-0.5,0.2-0.8,0.3c-0.1,0-0.3,0.1-0.7,0.1l-0.3,0
		c-0.5,0-1-0.1-1.4-0.4c-0.5-0.3-0.9-0.7-1.1-1.3c-0.3-0.6-0.4-1.4-0.4-2.4c0-0.5,0.1-1,0.2-1.5c0.1-0.5,0.3-0.9,0.5-1.2
		c0.2-0.3,0.4-0.6,0.7-0.9c0.3-0.2,0.6-0.4,1-0.6c0.2-0.1,0.5-0.1,0.8-0.1c0.6,0,1.1,0.1,1.5,0.4c0.4,0.3,0.7,0.7,0.9,1.2l0,0l0,0
		c0,0,0.1,0,0.1,0c0,0,0.1,0,0.2,0l0,0l0,0c0-0.1,0-0.2,0-0.3c0-0.4,0-0.7-0.1-1.1l0,0l0,0c-0.2-0.1-0.4-0.3-0.9-0.4
		c-0.4-0.1-0.9-0.2-1.4-0.2c-0.7,0-1.2,0-1.5,0.1c-0.5,0.1-1,0.3-1.4,0.6c-0.4,0.3-0.8,0.7-1.1,1.1c-0.3,0.4-0.5,0.9-0.7,1.4
		c-0.1,0.4-0.2,1-0.2,1.6c0,0.6,0.1,1.2,0.3,1.7C46.9,39,47.1,39.5,47.5,39.8L47.5,39.8z"/>
	<path class="st0" d="M57,40.9L57,40.9l0.6-0.5c0,0.3,0.1,0.5,0.2,0.6c0.2,0.2,0.4,0.3,0.7,0.3c0.2,0,0.3,0,0.5-0.1
		c0.2-0.1,0.3-0.3,0.5-0.5c0.1-0.2,0.2-0.3,0.2-0.4c0,0,0-0.1,0-0.2l0,0l0,0c-0.1,0-0.1,0-0.2,0.1l0,0l0,0l-0.1,0.1
		c-0.1,0.2-0.2,0.2-0.4,0.2c-0.1,0-0.2,0-0.2-0.1c-0.1-0.1-0.1-0.2-0.1-0.3c0-0.1,0-0.2,0-0.3c0-0.1,0-0.2,0-0.3c0,0,0-0.8,0-0.8
		c0,0,0-1.1,0-1.1c0-0.6,0-1,0-1.1c0-0.2-0.1-0.4-0.3-0.6c-0.1-0.2-0.3-0.3-0.5-0.4c-0.2-0.1-0.5-0.1-0.9-0.1c-0.3,0-0.6,0.1-1,0.3
		c-0.4,0.2-0.7,0.5-0.9,1c-0.3,0.6-0.4,0.8-0.4,0.8c0,0,0,0.1,0.1,0.2c0.1,0.1,0.2,0.1,0.3,0.1c0.1,0,0.3-0.1,0.5-0.2l0,0l0,0
		c0.1-0.1,0.1-0.3,0.2-0.4c0.1-0.4,0.2-0.7,0.3-0.9c0.2-0.2,0.5-0.4,0.8-0.4c0.3,0,0.5,0.1,0.6,0.3c0.1,0.2,0.2,0.6,0.2,1.2
		c0,0.2,0,0.3,0,0.5c-0.1,0.1-0.4,0.2-0.8,0.4c-0.6,0.3-1.1,0.7-1.5,1.1c-0.4,0.4-0.6,0.8-0.6,1.2c0,0.2,0.1,0.4,0.2,0.6
		c0.1,0.2,0.3,0.2,0.6,0.2c0.3,0,0.6,0,0.8-0.1C56.6,41.1,56.8,41,57,40.9L57,40.9L57,40.9z M57.7,38.7L57.7,38.7c0,0.2,0,0.6,0,1.2
		c-0.3,0.3-0.5,0.5-0.8,0.6c-0.2,0.1-0.3,0.1-0.5,0.1c-0.2,0-0.3-0.1-0.4-0.2c-0.1-0.1-0.2-0.2-0.2-0.4c0-0.2,0.1-0.4,0.2-0.6
		c0.2-0.3,0.4-0.5,0.8-0.8c0.3-0.2,0.6-0.4,0.8-0.5C57.7,38.4,57.7,38.6,57.7,38.7L57.7,38.7z"/>
	<polygon class="st0" points="60.5,39.3 60.5,39.3 60.5,39.3 60.5,39.3 	"/>
	<path class="st0" d="M63,41.2c0.3-0.1,0.6-0.3,0.8-0.6c0.2-0.3,0.3-0.6,0.3-0.9c0-0.2-0.1-0.5-0.2-0.7c-0.1-0.3-0.3-0.5-0.5-0.7
		c-0.2-0.2-0.6-0.4-1.1-0.6c-0.5-0.2-0.8-0.4-0.9-0.5c-0.1-0.1-0.2-0.3-0.2-0.5c0-0.3,0.1-0.5,0.2-0.6c0.1-0.2,0.3-0.2,0.6-0.2
		c0.2,0,0.5,0.1,0.7,0.3c0.3,0.2,0.4,0.5,0.6,0.9l0,0h0h0.1c0,0,0.1,0,0.1,0l0.1,0l0-0.1l0-0.2c0-0.5-0.1-0.8-0.1-1l0,0l0,0
		c-0.2-0.1-0.4-0.2-0.7-0.2c-0.3-0.1-0.5-0.1-0.8-0.1c-0.2,0-0.5,0.1-0.8,0.2c-0.3,0.1-0.5,0.3-0.7,0.6c-0.2,0.2-0.2,0.5-0.2,0.9
		c0,0.3,0.1,0.7,0.3,0.9c0.2,0.3,0.6,0.5,1.2,0.7c0.6,0.2,0.9,0.5,1.1,0.7c0.2,0.2,0.3,0.5,0.3,0.8c0,0.2-0.1,0.4-0.2,0.6
		c-0.2,0.2-0.5,0.3-0.7,0.3c-0.3,0-0.5-0.1-0.7-0.2c-0.2-0.1-0.4-0.3-0.6-0.6c-0.1-0.1-0.2-0.4-0.4-0.8l0,0h0c-0.1,0-0.2,0-0.2,0
		c0,0-0.1,0.1-0.1,0.2c0,0.1,0,0.5,0.1,1.1c0,0.1,0,0.2,0,0.2c0,0.1,0,0.2,0.1,0.3l0,0l0,0c0.5,0.2,1,0.3,1.5,0.3
		C62.4,41.3,62.7,41.3,63,41.2L63,41.2z"/>
	<path class="st0" d="M65,37.6c0.1,0.1,0.2,0.1,0.3,0.1c0.1,0,0.3-0.1,0.5-0.2l0,0l0,0c0.1-0.1,0.1-0.3,0.2-0.4
		c0.1-0.4,0.2-0.7,0.3-0.9c0.2-0.2,0.5-0.4,0.8-0.4c0.3,0,0.5,0.1,0.6,0.3c0.1,0.2,0.2,0.6,0.2,1.2c0,0.2,0,0.3,0,0.5
		c-0.1,0.1-0.4,0.2-0.8,0.4c-0.6,0.3-1.1,0.7-1.5,1.1c-0.4,0.4-0.6,0.8-0.6,1.2c0,0.2,0.1,0.4,0.2,0.6c0.1,0.2,0.3,0.2,0.6,0.2
		c0.3,0,0.6,0,0.8-0.1c0.1,0,0.3-0.1,0.6-0.3l0,0l0,0l0.6-0.5c0,0.3,0.1,0.5,0.2,0.6c0.2,0.2,0.4,0.3,0.7,0.3c0.2,0,0.3,0,0.5-0.1
		c0.2-0.1,0.3-0.3,0.5-0.5c0.1-0.2,0.2-0.3,0.2-0.4c0,0,0-0.1,0-0.2l0,0l0,0c-0.1,0-0.1,0-0.2,0.1l0,0l0,0l-0.1,0.1
		c-0.1,0.2-0.2,0.2-0.4,0.2c-0.1,0-0.2,0-0.2-0.1c-0.1-0.1-0.1-0.2-0.1-0.3c0-0.1,0-0.2,0-0.3c0-0.1,0-0.2,0-0.3c0,0,0-0.8,0-0.8
		c0,0,0-1.1,0-1.1c0-0.6,0-1,0-1.1c0-0.2-0.1-0.4-0.3-0.6c-0.1-0.2-0.3-0.3-0.5-0.4c-0.2-0.1-0.5-0.1-0.9-0.1c-0.3,0-0.6,0.1-1,0.3
		c-0.4,0.2-0.7,0.5-0.9,1C65,37.2,65,37.4,65,37.5C65,37.5,65,37.6,65,37.6L65,37.6z M67.9,38.7L67.9,38.7c0,0.2,0,0.6,0,1.2
		c-0.3,0.3-0.5,0.5-0.8,0.6c-0.2,0.1-0.3,0.1-0.5,0.1c-0.2,0-0.3-0.1-0.4-0.2c-0.1-0.1-0.2-0.2-0.2-0.4c0-0.2,0.1-0.4,0.2-0.6
		c0.2-0.3,0.4-0.5,0.8-0.8c0.3-0.2,0.6-0.4,0.8-0.5C67.9,38.4,67.9,38.6,67.9,38.7L67.9,38.7z"/>
	<path class="st0" d="M79.8,41L79.8,41L79.8,41c0.1-0.1,0.1-0.1,0.1-0.2v-0.1v-0.1l-0.1,0c-0.1,0-0.2,0-0.3,0
		c-0.3,0-0.5-0.1-0.5-0.1c0,0,0,0,0,0c0,0,0-0.1,0-0.5c0,0,0-1.6,0-1.6c0,0,0-3,0-3c0,0,0-2.7,0-2.7c0-0.4,0-0.7,0-1.1l0-0.1l-0.1,0
		l-0.3,0l0,0l0,0C78.1,31.8,77.6,32,77,32l0,0l0,0c0,0.1,0,0.1,0,0.2v0.1v0l0,0l0,0c0.1,0,0.1,0,0.1,0c0.5,0.1,0.7,0.3,0.7,0.3
		c0.1,0.1,0.1,0.3,0.1,0.8c0,0,0,1.5,0,1.5c0,0,0,0.8,0,0.8c0,0,0,0.1,0,0.1c0,0-0.1,0-0.2-0.1c-0.4-0.2-0.9-0.3-1.5-0.3
		c-0.1,0-0.4,0.1-0.8,0.2c-0.2,0-0.4,0.1-0.6,0.3c-0.2,0.2-0.4,0.3-0.6,0.5c-0.2,0.2-0.4,0.5-0.5,0.9c-0.1,0.4-0.2,0.8-0.2,1.2
		c0,0.4,0.1,0.9,0.3,1.3c0.2,0.4,0.5,0.8,0.8,1c0.4,0.2,0.7,0.4,1.1,0.4c0.6,0,1.2-0.2,1.9-0.5c0.1-0.1,0.2-0.1,0.3-0.1v0.6v0.1h0.1
		c0.1,0,0.2,0,0.3,0c0,0,0.9-0.2,0.9-0.2C79.5,41.1,79.7,41.1,79.8,41L79.8,41z M78,40.3L78,40.3c-0.1,0.1-0.2,0.1-0.5,0.2
		c-0.3,0.1-0.5,0.1-0.9,0.1c-0.5,0-1-0.2-1.4-0.6c-0.4-0.4-0.5-1-0.5-1.6c0-0.8,0.2-1.4,0.5-1.8c0.3-0.4,0.7-0.6,1.2-0.6
		c0.3,0,0.7,0.1,0.9,0.3c0.3,0.2,0.4,0.4,0.5,0.6c0.1,0.2,0.1,0.7,0.1,1.5C78,39.3,78,40,78,40.3L78,40.3z"/>
	<path class="st0" d="M85.2,39.7l0-0.1L85.2,39.7L84.6,40c-0.3,0.2-0.5,0.3-0.6,0.3c-0.1,0.1-0.3,0.1-0.6,0.1
		c-0.4,0-0.8-0.1-1.1-0.3c-0.3-0.2-0.5-0.5-0.7-0.9c-0.2-0.4-0.2-0.7-0.2-1c0,0,0-0.3,0-0.3c0,0,0-0.1,0-0.1v0l0,0l0-0.1
		c0,0,0-0.1,0-0.2c0.2,0,0.4,0,0.6,0h0.5c0,0,2.6,0,2.6,0l0.1,0v-0.1v-0.1c0-0.3-0.1-0.6-0.3-0.9c-0.2-0.3-0.4-0.6-0.8-0.8
		c-0.3-0.2-0.6-0.2-1-0.2c-0.4,0-0.7,0.1-1,0.2c-0.2,0.1-0.4,0.2-0.7,0.5c-0.2,0.2-0.3,0.4-0.5,0.6c-0.2,0.4-0.3,0.7-0.4,1
		c-0.1,0.3-0.1,0.6-0.1,0.8c0,0.6,0.1,1.2,0.4,1.7c0.3,0.5,0.6,0.8,1.1,1c0.3,0.1,0.6,0.2,0.9,0.2c0.3,0,0.6,0,0.7-0.1
		c0.3-0.1,0.6-0.2,0.9-0.4c0.3-0.2,0.6-0.4,0.8-0.7l0,0l0,0c0,0,0-0.1,0-0.1v0l0,0L85.2,39.7L85.2,39.7z M84,36.9L84,36.9
		c0,0-0.1,0-0.3,0c-1.1,0.1-1.8,0.1-2,0.1h-0.2c0-0.2,0.1-0.5,0.3-0.8c0.3-0.4,0.7-0.6,1.2-0.6c0.2,0,0.4,0,0.6,0.1
		c0.2,0.1,0.3,0.2,0.4,0.4c0.1,0.2,0.1,0.3,0.1,0.5C84.1,36.8,84.1,36.9,84,36.9L84,36.9z"/>
	<path class="st0" d="M54.9,48.4c-0.4-0.5-0.7-0.8-1.1-1.1c-0.4-0.2-0.8-0.4-1.2-0.5c-0.4-0.1-0.9-0.2-1.3-0.2
		c-0.7,0-1.3,0.1-1.7,0.2c-0.6,0.2-1.1,0.5-1.5,0.8c-0.4,0.3-0.7,0.7-0.9,1.1c-0.3,0.4-0.4,0.8-0.5,1.2c-0.1,0.4-0.2,0.8-0.2,1.3
		c0,0.6,0.1,1.1,0.3,1.6c0.2,0.5,0.4,0.9,0.7,1.3c0.3,0.4,0.6,0.7,0.9,0.9c0.3,0.2,0.7,0.4,1.1,0.5c0.5,0.1,1,0.2,1.6,0.2
		c0.6,0,1.1-0.1,1.6-0.2c0.5-0.2,0.9-0.4,1.2-0.7c0.5-0.4,0.8-0.8,1.1-1.1c0.3-0.4,0.5-0.8,0.6-1.2c0.1-0.4,0.2-0.9,0.2-1.5
		c0-0.5-0.1-1.1-0.2-1.6C55.3,49.1,55.1,48.7,54.9,48.4L54.9,48.4z M51.1,47L51.1,47c0.5,0,0.9,0.1,1.3,0.3c0.4,0.2,0.8,0.5,1.1,0.8
		c0.3,0.4,0.5,0.8,0.6,1.2c0.2,0.6,0.3,1.2,0.3,1.8c0,0.5-0.1,1-0.2,1.5c-0.1,0.5-0.2,0.9-0.4,1.2c-0.2,0.3-0.4,0.6-0.7,0.8
		c-0.3,0.2-0.6,0.4-1,0.5c-0.4,0.1-0.8,0.2-1.1,0.2c-0.4,0-0.7-0.1-1.1-0.2c-0.3-0.1-0.6-0.4-0.9-0.6c-0.3-0.3-0.5-0.6-0.7-0.9
		c-0.2-0.3-0.3-0.8-0.4-1.2c-0.1-0.5-0.2-0.9-0.2-1.3c0-0.4,0.1-0.8,0.2-1.2c0.1-0.5,0.3-0.9,0.5-1.3c0.2-0.4,0.4-0.7,0.7-0.9
		c0.2-0.2,0.5-0.4,0.9-0.5C50.3,47,50.7,47,51.1,47L51.1,47z"/>
	<polygon class="st0" points="57,53.8 57,53.8 57,53.8 57,53.8 	"/>
	<path class="st0" d="M59.9,52.7c-0.2-0.2-0.6-0.4-1.1-0.6c-0.5-0.2-0.8-0.4-0.9-0.5c-0.1-0.1-0.2-0.3-0.2-0.5
		c0-0.3,0.1-0.5,0.2-0.6c0.1-0.2,0.3-0.2,0.6-0.2c0.2,0,0.5,0.1,0.7,0.3c0.3,0.2,0.4,0.5,0.6,0.9l0,0h0h0.1c0,0,0.1,0,0.1,0l0.1,0
		l0-0.1l0-0.2c0-0.5-0.1-0.8-0.1-1l0,0l0,0c-0.2-0.1-0.4-0.2-0.7-0.2c-0.3-0.1-0.5-0.1-0.8-0.1c-0.2,0-0.5,0.1-0.8,0.2
		c-0.3,0.1-0.5,0.3-0.7,0.6c-0.2,0.2-0.2,0.5-0.2,0.9c0,0.3,0.1,0.7,0.3,0.9c0.2,0.3,0.6,0.5,1.2,0.7c0.6,0.2,0.9,0.5,1.1,0.7
		c0.2,0.2,0.3,0.5,0.3,0.8c0,0.2-0.1,0.4-0.2,0.6c-0.2,0.2-0.5,0.3-0.7,0.3c-0.3,0-0.5-0.1-0.7-0.2c-0.2-0.1-0.4-0.3-0.6-0.6
		c-0.1-0.1-0.2-0.4-0.4-0.8l0,0h0c-0.1,0-0.2,0-0.2,0c0,0-0.1,0.1-0.1,0.2c0,0.1,0,0.5,0.1,1.1c0,0.1,0,0.2,0,0.2
		c0,0.1,0,0.2,0.1,0.3l0,0l0,0c0.5,0.2,1,0.3,1.5,0.3c0.2,0,0.5-0.1,0.8-0.2c0.3-0.1,0.6-0.3,0.8-0.6c0.2-0.3,0.3-0.6,0.3-0.9
		c0-0.2-0.1-0.5-0.2-0.7C60.3,53.1,60.2,52.9,59.9,52.7L59.9,52.7z"/>
	<path class="st0" d="M70,50.1L70,50.1L70,50.1l-0.3,0c-0.2,0-0.3,0-0.4,0c-0.2,0-0.4,0-0.5,0c0,0-0.2,0-0.2,0c-0.1,0-0.1,0-0.1,0
		c0,0-0.5,0-0.5,0c0,0-0.1,0-0.1,0h0l0,0c-0.1,0.1-0.1,0.1-0.1,0.2c0,0,0,0.1,0,0.1l0,0l0,0c0.1,0,0.2,0.1,0.4,0.1
		c0.3,0.1,0.4,0.1,0.5,0.2c0.1,0.1,0.1,0.1,0.1,0.2c0,0.2-0.1,0.4-0.2,0.7c-0.2,0.4-0.3,0.8-0.5,1.2c-0.3,0.8-0.5,1.4-0.7,1.8
		c-0.1-0.2-0.2-0.6-0.4-1.1c0,0-0.7-1.9-0.7-1.9c-0.1-0.2-0.1-0.4-0.1-0.4c0-0.1-0.1-0.3-0.1-0.4c0,0,0-0.1,0-0.1
		c0.1-0.1,0.4-0.1,0.6-0.2c0.2,0,0.3-0.1,0.3-0.1l0,0l0,0l0-0.2l0-0.1l-0.1,0c0,0-0.1,0-0.1,0h-0.1h0l0,0c0,0-0.1,0-0.2,0
		c0,0-0.8,0-0.8,0c0,0-0.2,0-0.2,0c0,0-0.8,0-0.8,0c0,0-0.4,0-0.4,0c-0.1,0-0.2,0-0.3,0l0,0l0,0c0,0.1,0,0.1,0,0.1v0l0,0l0,0l0,0
		l0,0c0,0,0.1,0.1,0.4,0.2c0.3,0.1,0.4,0.1,0.4,0.1c0,0,0.1,0.1,0.1,0.3c0.1,0.2,0.1,0.4,0.2,0.5c0,0,0.3,0.9,0.4,1.1
		c-0.3,0.7-0.6,1.4-1,2.1l-0.7-1.6c-0.4-0.8-0.6-1.4-0.8-1.8c-0.1-0.3-0.2-0.4-0.2-0.5c0,0,0-0.1,0-0.1c0-0.1,0-0.1,0.1-0.2
		c0,0,0.2-0.1,0.5-0.1l0,0l0,0c0.1-0.1,0.1-0.1,0.1-0.2c0-0.1,0-0.1,0-0.1c0,0-0.1,0-0.1,0c0,0-2.5,0-2.5,0l-0.1,0c0,0,0,0.1,0,0.1
		l0,0c0,0,0,0.1,0,0.1c0,0,0,0.1,0,0.1l0,0.1l0,0c0,0,0,0,0,0l0.1,0c0.1,0,0.1,0,0.2,0c0.2,0,0.3,0.1,0.4,0.1c0,0,0.1,0.1,0.2,0.2
		c0,0,1.1,2.3,1.1,2.3c0,0,1.2,2.7,1.2,2.7l0,0l0,0c0.1,0,0.1,0,0.1,0c0,0,0.1,0,0.1,0l0,0l0,0c0.2-0.4,0.7-1.3,1.3-2.8
		c0.1,0.2,0.2,0.4,0.3,0.7c0.4,1.1,0.7,1.8,0.8,2.1l0,0l0,0c0.1,0,0.1,0,0.1,0c0.1,0,0.1,0,0.1-0.1c0,0,0.1-0.1,0.1-0.2
		c0-0.1,0.1-0.2,0.1-0.3c0.3-0.5,0.5-1,0.6-1.3c0,0,1.1-2.8,1.2-3c0.2-0.4,0.4-0.6,0.5-0.6c0.1-0.1,0.3-0.1,0.5-0.1l0,0l0,0
		c0-0.1,0-0.1,0-0.2C70.1,50.2,70.1,50.2,70,50.1C70.1,50.1,70.1,50.1,70,50.1L70,50.1z"/>
	<polygon class="st0" points="70.1,50.1 70.1,50.1 70.1,50.1 70.1,50.1 	"/>
	<path class="st0" d="M75.1,54.6L75.1,54.6c-0.1,0-0.2,0-0.2,0.1l0,0l0,0l-0.1,0.1c-0.1,0.2-0.2,0.2-0.4,0.2c-0.1,0-0.2,0-0.2-0.1
		c-0.1-0.1-0.1-0.2-0.1-0.3c0-0.1,0-0.2,0-0.3c0-0.1,0-0.2,0-0.3c0,0,0-0.8,0-0.8c0,0,0-1.1,0-1.1c0-0.6,0-1,0-1.1
		c0-0.2-0.1-0.4-0.3-0.6c-0.1-0.2-0.3-0.3-0.5-0.4c-0.2-0.1-0.5-0.1-0.9-0.1c-0.3,0-0.6,0.1-1,0.3c-0.4,0.2-0.7,0.5-0.9,1
		c-0.3,0.6-0.4,0.8-0.4,0.8c0,0,0,0.1,0.1,0.2c0.1,0.1,0.2,0.1,0.3,0.1c0.1,0,0.3-0.1,0.5-0.2l0,0l0,0c0.1-0.1,0.1-0.3,0.2-0.4
		c0.1-0.4,0.2-0.7,0.3-0.9c0.2-0.2,0.5-0.4,0.8-0.4c0.3,0,0.5,0.1,0.6,0.3c0.1,0.2,0.2,0.6,0.2,1.2c0,0.2,0,0.3,0,0.5
		c-0.1,0.1-0.4,0.2-0.8,0.4c-0.6,0.3-1.1,0.7-1.5,1.1c-0.4,0.4-0.6,0.8-0.6,1.2c0,0.2,0.1,0.4,0.2,0.6c0.1,0.2,0.3,0.2,0.6,0.2
		c0.3,0,0.6,0,0.8-0.1c0.1,0,0.3-0.1,0.6-0.3l0,0l0,0l0.6-0.5c0,0.3,0.1,0.5,0.2,0.6c0.2,0.2,0.4,0.3,0.7,0.3c0.2,0,0.3,0,0.5-0.1
		c0.2-0.1,0.3-0.3,0.5-0.5c0.1-0.2,0.2-0.3,0.2-0.4C75.2,54.7,75.1,54.7,75.1,54.6L75.1,54.6L75.1,54.6z M73.1,53.2L73.1,53.2
		c0,0.2,0,0.6,0,1.2c-0.3,0.3-0.5,0.5-0.8,0.6c-0.2,0.1-0.3,0.1-0.5,0.1c-0.2,0-0.3-0.1-0.4-0.2c-0.1-0.1-0.2-0.2-0.2-0.4
		c0-0.2,0.1-0.4,0.2-0.6c0.2-0.3,0.4-0.5,0.8-0.8c0.3-0.2,0.6-0.4,0.8-0.5C73.1,52.9,73.1,53.1,73.1,53.2L73.1,53.2z"/>
	<polygon class="st0" points="75.3,55.6 75.3,55.6 75.3,55.6 75.3,55.6 	"/>
	<path class="st0" d="M78.2,55.3L78.2,55.3c0,0-0.1-0.1-0.5-0.1c-0.3,0-0.4-0.1-0.4-0.1c0,0,0-0.1,0-0.8c0,0,0-0.2,0-0.7
		c0-0.7,0-3.1,0-6.8c0,0,0-0.2,0-0.4l0-0.1h-0.1h-0.3h0l0,0c-0.5,0.2-0.8,0.3-1,0.3c0,0-0.1,0-0.1,0c-0.1,0-0.2,0.1-0.3,0.1l0,0v0
		V47v0l0,0c0.1,0,0.2,0.1,0.5,0.2c0.2,0.1,0.3,0.1,0.3,0.2c0,0,0.1,0.1,0.1,0.3c0,0,0,0.8,0,0.8c0,0,0,1.6,0,1.6c0,0,0,1.6,0,1.6
		c0,0,0,1.6,0,1.6c0,0.9,0,1.3,0,1.4c0,0.1,0,0.2-0.1,0.2c0,0-0.1,0-0.5,0.1c-0.4,0.1-0.5,0.1-0.5,0.1c0,0-0.1,0.1-0.1,0.1
		c0,0.1,0,0.1,0.1,0.1c0,0,0.1,0.1,0.2,0.1c0,0,1,0,1.1,0l0.8,0c0.4,0,0.7,0,0.7,0c0.1,0,0.1,0,0.1,0c0,0,0-0.1,0-0.2
		C78.3,55.4,78.2,55.3,78.2,55.3L78.2,55.3z"/>
	<path class="st0" d="M84.5,55.2c-0.3,0-0.5-0.1-0.5-0.1c0,0,0,0,0,0c0,0,0-0.1,0-0.5c0,0,0-1.6,0-1.6c0,0,0-3,0-3c0,0,0-2.7,0-2.7
		c0-0.4,0-0.7,0-1.1l0-0.1l-0.1,0l-0.3,0l0,0l0,0c-0.4,0.1-0.9,0.3-1.5,0.3l0,0l0,0c0,0.1,0,0.1,0,0.2v0.1v0c0,0,0,0,0,0l0,0
		c0.1,0,0.1,0,0.1,0c0.5,0.1,0.7,0.3,0.7,0.3c0.1,0.1,0.1,0.3,0.1,0.8c0,0,0,1.5,0,1.5c0,0,0,0.8,0,0.8c0,0,0,0.1,0,0.1
		c0,0-0.1,0-0.2-0.1c-0.4-0.2-0.9-0.3-1.5-0.3c-0.1,0-0.4,0.1-0.8,0.2c-0.2,0-0.4,0.1-0.6,0.3c-0.2,0.2-0.4,0.3-0.6,0.5
		c-0.2,0.2-0.4,0.5-0.5,0.9c-0.1,0.4-0.2,0.8-0.2,1.2c0,0.4,0.1,0.9,0.3,1.3c0.2,0.4,0.5,0.8,0.8,1c0.4,0.2,0.7,0.4,1.1,0.4
		c0.6,0,1.2-0.2,1.9-0.5c0.1-0.1,0.2-0.1,0.3-0.1v0.6v0.1H83c0.1,0,0.2,0,0.3,0c0,0,0.9-0.2,0.9-0.2c0.1,0,0.3-0.1,0.4-0.1l0,0l0,0
		c0,0,0-0.1,0-0.1v-0.1v-0.1l-0.1,0C84.6,55.2,84.5,55.2,84.5,55.2L84.5,55.2z M82.9,54.8L82.9,54.8c-0.1,0.1-0.2,0.1-0.5,0.2
		c-0.3,0.1-0.5,0.1-0.9,0.1c-0.5,0-1-0.2-1.4-0.6c-0.4-0.4-0.5-1-0.5-1.6c0-0.8,0.2-1.4,0.5-1.8c0.3-0.4,0.7-0.6,1.2-0.6
		c0.3,0,0.7,0.1,0.9,0.3c0.3,0.2,0.4,0.4,0.5,0.6c0.1,0.2,0.1,0.7,0.1,1.5C82.9,53.8,82.9,54.5,82.9,54.8L82.9,54.8z"/>
	<path class="st0" d="M88.3,49.9c-0.6,0-1.1,0.1-1.5,0.3c-0.3,0.1-0.6,0.4-0.8,0.6c-0.3,0.3-0.4,0.6-0.6,1c-0.1,0.4-0.2,0.7-0.2,1
		c0,0.6,0.1,1.1,0.4,1.5c0.3,0.4,0.6,0.8,0.9,1c0.5,0.3,1,0.5,1.5,0.5c0.9,0,1.6-0.3,2.2-0.9c0.6-0.6,0.9-1.3,0.9-2
		c0-0.8-0.3-1.6-0.8-2.2C89.8,50.2,89.1,49.9,88.3,49.9L88.3,49.9z M89.8,54.3L89.8,54.3c-0.2,0.4-0.4,0.7-0.7,0.9
		c-0.3,0.2-0.6,0.3-0.9,0.3c-0.5,0-0.9-0.2-1.3-0.6c-0.3-0.4-0.5-1-0.5-1.9c0-0.7,0.1-1.3,0.3-1.7c0.2-0.4,0.4-0.7,0.7-0.8
		c0.3-0.1,0.6-0.2,0.8-0.2c0.4,0,0.7,0.1,1,0.3c0.3,0.2,0.5,0.6,0.6,1c0.1,0.5,0.2,0.9,0.2,1.2C90.1,53.4,90,53.9,89.8,54.3
		L89.8,54.3z"/>
	<path class="st0" d="M102.9,53.5L102.9,53.5L102.9,53.5L102.9,53.5l-0.1,0l0,0c-0.1,0.3-0.3,0.6-0.5,0.8c-0.2,0.2-0.4,0.4-0.6,0.5
		c-0.2,0.1-0.5,0.2-0.8,0.3c-0.1,0-0.3,0.1-0.7,0.1l-0.3,0c-0.5,0-1-0.1-1.4-0.4c-0.5-0.3-0.9-0.7-1.1-1.3c-0.3-0.6-0.4-1.4-0.4-2.4
		c0-0.5,0.1-1,0.2-1.5c0.1-0.5,0.3-0.9,0.5-1.2c0.2-0.3,0.4-0.6,0.7-0.9c0.3-0.2,0.6-0.4,1-0.6c0.2-0.1,0.5-0.1,0.8-0.1
		c0.6,0,1.1,0.1,1.5,0.4c0.4,0.3,0.7,0.7,0.9,1.2l0,0l0,0c0,0,0.1,0,0.1,0c0,0,0.1,0,0.2,0l0,0l0,0c0-0.1,0-0.2,0-0.3
		c0-0.4,0-0.7-0.1-1.1l0,0l0,0c-0.2-0.1-0.4-0.3-0.9-0.4c-0.4-0.1-0.9-0.2-1.4-0.2c-0.7,0-1.2,0-1.5,0.1c-0.5,0.1-1,0.3-1.4,0.6
		c-0.4,0.3-0.8,0.7-1.1,1.1c-0.3,0.4-0.5,0.9-0.7,1.4c-0.1,0.4-0.2,1-0.2,1.6c0,0.6,0.1,1.2,0.3,1.7c0.2,0.5,0.4,1,0.7,1.3
		c0.3,0.4,0.7,0.6,1.1,0.8c0.4,0.2,0.8,0.4,1.1,0.5c0.3,0.1,0.9,0.2,1.6,0.2c0.8,0,1.5-0.1,2.1-0.3c0.1,0,0.2-0.1,0.3-0.1l0,0l0,0
		c0.1-0.3,0.2-0.8,0.4-1.6l0,0l0,0c0,0,0-0.1,0-0.2l0,0l0,0c0,0,0,0,0,0C103,53.5,102.9,53.5,102.9,53.5L102.9,53.5z"/>
	<path class="st0" d="M107.2,49.8c-0.2,0-0.4,0.1-0.7,0.3c-0.1,0-0.1,0.1-0.2,0.2c0,0-0.1,0.2-0.1,0.2c-0.2,0.2-0.4,0.5-0.5,0.7
		c0,0,0,0,0,0c0-0.8,0-1.3,0-1.5l0-0.1l-0.1,0l-0.2,0l0,0l0,0c-0.2,0.3-0.3,0.6-0.5,0.8c-0.2,0.1-0.5,0.3-0.9,0.5l0,0l0,0l0,0.2l0,0
		l0,0c0.1,0,0.2,0.1,0.4,0.1c0.3,0,0.4,0.1,0.4,0.1c0,0,0.1,0.1,0.1,0.4c0,0.2,0,1.2,0,2.7c0,0.4,0,0.5,0,0.5c0,0,0,0-0.1,0.1
		l-0.5,0.1c0,0-0.4,0.1-0.4,0.1l0,0l0,0c0,0.1-0.1,0.1-0.1,0.2v0l0,0l0,0.1l0,0l0,0l1.1,0c0,0,0.4,0,0.4,0c0,0,0.7,0,0.7,0
		c0,0,0.4,0,0.4,0c0,0,0.3,0,0.3,0c0,0,0.7,0,0.7,0l0,0l0,0c0-0.1,0.1-0.1,0.1-0.1c0-0.1,0-0.1-0.1-0.2c-0.1-0.1-0.2-0.1-0.4-0.1
		c0,0-0.1,0-0.1,0c-0.1,0-0.3,0-0.8-0.1c-0.1,0-0.1-0.1-0.1-0.1c0,0,0-0.1,0-0.3l0-1.4c0,0,0-1.1,0-1.1c0-0.2,0.1-0.4,0.2-0.6
		c0.2-0.3,0.3-0.5,0.4-0.6c0,0,0.1,0,0.2,0c0,0,0.1,0,0.4,0.1c0.2,0.1,0.4,0.1,0.4,0.1c0.2,0,0.3-0.1,0.4-0.2
		c0.1-0.1,0.1-0.2,0.1-0.4c0-0.2-0.1-0.4-0.2-0.5C107.5,49.9,107.4,49.8,107.2,49.8L107.2,49.8z"/>
	<path class="st0" d="M114.7,54.9L114.7,54.9c-0.3,0-0.5,0-0.5,0h-0.1c-0.2,0-0.3,0-0.3,0c0,0,0,0-0.1-0.1l0-0.9c0,0,0-0.6,0-0.6
		c0-1,0-1.9,0.1-2.6c0,0,0-0.5,0-0.5l0-0.1l-0.1,0c0,0-0.1,0-0.1,0c0,0-0.2,0-0.6,0c0,0-1,0-1,0c-0.1,0-0.2,0-0.3,0l0,0l0,0l0,0.1
		l0,0v0c0,0,0,0.1,0.1,0.2l0,0l0,0c0.1,0,0.2,0,0.3,0c0.6,0.1,0.7,0.2,0.8,0.2c0,0,0.1,0.3,0.1,1.2l0,0.3l0,0.1c0,0.2,0,0.7,0,1.4
		c0,0.2,0,0.4,0,0.6c-0.2,0.2-0.4,0.4-0.7,0.5c-0.3,0.1-0.6,0.2-0.9,0.2c-0.2,0-0.5-0.1-0.6-0.2c-0.2-0.1-0.3-0.3-0.3-0.5
		c0-0.2-0.1-0.7-0.1-1.5c0,0,0-0.2,0-0.5l0-0.2c0-0.6,0-1.2,0-1.9c0,0,0-0.1,0-0.1l0-0.1l-0.1,0c-0.1,0-0.4,0-0.8,0h0l0,0l-0.2,0
		l-0.2,0c0,0-0.5,0-0.5,0h-0.1v0.1v0.2v0l0,0c0.1,0,0.1,0.1,0.2,0.1c0.1,0,0.3,0.1,0.5,0.1c0,0,0.1,0.1,0.1,0.1c0,0,0,0.2,0,0.2l0,0
		l0,0l0,0.4c0,0.1,0,0.1,0,0.2c0,0.1,0,0.2,0,0.3c0,0.1,0,0.2,0,0.3c0,0.1,0,0.1,0,0.2c0,0.2,0,0.3,0,0.3c0,0.1,0,0.2,0,0.5
		c0,0,0,0.1,0,0.1c0,0.1,0,0.1,0,0.1c0,0.9,0.2,1.5,0.4,1.9c0.3,0.4,0.7,0.6,1.2,0.6c0.2,0,0.5-0.1,0.8-0.2c0.4-0.2,0.7-0.4,1.1-0.7
		c0,0,0.1-0.1,0.1-0.1c0,0,0,0.1,0,0.1v0.6c0,0,0,0.1,0,0.3l0,0.1l0.1,0c0.1,0,0.2-0.1,0.4-0.1c0.3-0.1,0.8-0.3,1.4-0.4l0,0v0v-0.1
		C114.8,55.1,114.7,55,114.7,54.9L114.7,54.9L114.7,54.9z"/>
	<path class="st0" d="M120,53.9c0-0.1-0.1-0.1-0.2-0.1c0,0-0.1,0-0.1,0l0,0l0,0c-0.1,0.3-0.2,0.5-0.3,0.8c-0.1,0.2-0.3,0.4-0.5,0.4
		c-0.2,0.1-0.3,0.1-0.5,0.1c0,0-1.6,0-1.6,0c-0.1,0-0.2,0-0.3,0l1.6-2c0,0,1.3-1.7,1.3-1.7c0.3-0.4,0.4-0.6,0.5-0.8
		c0-0.1,0-0.1,0-0.2c0,0,0-0.1,0-0.1l0-0.1l-0.1,0c-0.3,0-0.5,0-0.6,0c-0.2,0-0.7,0-1.5,0.1c-0.2,0-0.4,0-0.5,0c-0.7,0-1,0-1-0.1
		l0,0l0,0c-0.1,0-0.1-0.1-0.1-0.2c0-0.1,0-0.2,0-0.3c0,0,0-0.1,0-0.1l0-0.1l0-0.1h-0.1H116h0l0,0c-0.1,0.3-0.3,0.7-0.4,1.2
		c0,0.2-0.1,0.3-0.2,0.5c-0.1,0.2-0.1,0.3-0.1,0.4l0,0l0,0c0,0.1,0.1,0.1,0.2,0.1l0,0l0,0c0.1-0.1,0.2-0.1,0.2-0.2
		c0.1-0.2,0.2-0.3,0.4-0.5c0.1-0.1,0.2-0.2,0.4-0.2c0.2-0.1,0.5-0.1,0.8-0.1c0.5,0,0.9,0,1.2,0c0,0,0.3,0,0.3,0c0,0,0,0,0,0
		c-0.4,0.5-0.6,0.9-0.8,1c0,0-0.6,0.7-0.6,0.7c-0.4,0.5-0.7,0.8-0.7,0.9l0,0l0,0l-0.5,0.7c-0.2,0.3-0.6,0.7-1.1,1.3l0,0l0,0l0,0.1
		l0,0.1l0.1,0c0.1,0,0.1,0,0.2,0h0.4c0,0,3.9,0,3.9,0l0,0l0,0c0.1-0.1,0.1-0.3,0.2-0.7C119.9,54.9,120,54,120,53.9L120,53.9
		L120,53.9L120,53.9z"/>
</g>
<g>
</g>
<g>
</g>
<g>
</g>
<g>
</g>
<g>
</g>
<g>
</g>
<g>
</g>
<g>
</g>
<g>
</g>
<g>
</g>
<g>
</g>
<g>
</g>
<g>
</g>
<g>
</g>
<g>
</g>
</svg>
