<?xml version="1.0" encoding="utf-8"?>
<!-- Generator: Adobe Illustrator 25.2.1, SVG Export Plug-In . SVG Version: 6.00 Build 0)  -->
<svg version="1.1" id="Layer_1" xmlns="http://www.w3.org/2000/svg" xmlns:xlink="http://www.w3.org/1999/xlink" x="0px" y="0px"
	 viewBox="0 0 120 80" style="enable-background:new 0 0 120 80;" xml:space="preserve">
<style type="text/css">
	.st0{fill-rule:evenodd;clip-rule:evenodd;}
</style>
<g>
	<g>
		<g>
			<path class="st0" d="M2,55.2l-0.8,1.3L2,55.2L2,55.2z M2,37.2v18l0,0l-0.8,1.3v0.9h32.7v-0.9l-0.7-1.4l0,0l0,0l0,0l0,0l0,0V37.2
				l-1,0V30h-0.6v-2.1c0.3-0.3,0.5-0.7,0.5-1.2c0-1-0.8-1.8-1.8-1.8c-1,0-1.8,0.8-1.8,1.8c0,0.4,0.2,0.8,0.5,1.2l0,2.1h-0.7v7.2
				h-1.1l0,0h-1.9l0,0h-1.1v-6.3l0.2-0.4H11l0.2,0.4v5.2l0,0v1.1l0,0l0,0h-1.1l0,0h-3l0,0h0V30H6.4l0-2.1c0.3-0.3,0.5-0.7,0.5-1.2
				c0-1-0.8-1.8-1.8-1.8c-1,0-1.8,0.8-1.8,1.8c0,0.4,0.2,0.8,0.5,1.2l0,2.1H3.1v7.2L2,37.2L2,37.2L2,37.2L2,37.2z M0.9,37.8
				l-0.7-0.6H0.2v-1.1H2V30l0,0v-1.1h0.6v-0.5c-0.2-0.5-0.5-1.1-0.5-1.7c0-1.4,1.1-2.7,2.4-2.9l0-0.3c-0.1-0.1-0.2-0.3-0.2-0.5
				c0-0.2,0.1-0.4,0.3-0.5l0.2-2c0,0,0-0.1,0-0.1c0-0.1,0.1-0.2,0.2-0.2s0.2,0.1,0.2,0.2c0,0,0,0.1,0,0.1l0.2,2
				c0.2,0.1,0.3,0.3,0.3,0.5c0,0.2-0.1,0.4-0.2,0.5l0,0.3C6.9,24.1,8,25.3,8,26.7c0,0.6-0.2,1.2-0.5,1.7v0.5h0.6V30l0,0v6.1h2v-5
				l-0.6-0.5v-0.8l0.6-0.3l0,0l0.3-0.6h0.8l0.6,0.6H15l0.6-0.6h0.8l0.6,0.6h1.4l0.5-0.6h0.8l0.6,0.6h3.2l0.6-0.6H25l0.3,0.6l0.6,0.3
				v0.8l-0.6,0.5v5h1.9v-7.2h0.6v-0.5c-0.2-0.5-0.5-1.1-0.5-1.7c0-1.4,1-2.6,2.4-2.9l0-0.3c-0.1-0.1-0.2-0.3-0.2-0.5
				c0-0.2,0.1-0.4,0.3-0.5l0.2-2c0,0,0-0.1,0-0.1c0-0.1,0.1-0.2,0.2-0.2s0.2,0.1,0.2,0.2c0,0,0,0.1,0,0.1l0.2,2
				c0.2,0.1,0.3,0.3,0.3,0.5c0,0.2-0.1,0.3-0.2,0.5l0,0.3c1.4,0.2,2.4,1.5,2.4,2.9c0,0.6-0.2,1.2-0.5,1.7v0.5h0.6v7.1h1.7v1.1H35
				l-0.7,0.6v6.1h0.4H35v1l-0.7,0.6v4.2h0.4H35v1l-0.7,0.6V55l0,0l0.7,0.7v1.6h0v1.1H0.2v-1.1h0.1v-1.6l0.7-0.6h0v-3.8l-0.7-0.6v-1
				h0.3h0.4v-4.2l-0.7-0.6v-1h0.7L0.9,37.8L0.9,37.8z"/>
		</g>
		<path class="st0" d="M42.5,45v4.6h0.8v-2h2.1v-0.7h-2.1v-1.2h2.4V45H42.5L42.5,45z M46.3,45v4.6h0.8V45H46.3L46.3,45z M50,44.9
			c-1.4,0-2.2,0.9-2.2,2.4s0.8,2.4,2.2,2.4c1.4,0,2.2-0.9,2.2-2.4S51.4,44.9,50,44.9L50,44.9z M50,45.6c0.9,0,1.4,0.6,1.4,1.8
			c0,1.1-0.5,1.8-1.4,1.8s-1.4-0.6-1.4-1.8S49.2,45.6,50,45.6L50,45.6z M56.9,46.5c-0.1-1-0.8-1.6-1.9-1.6c-1.4,0-2.2,0.9-2.2,2.4
			c0,1.5,0.8,2.4,2.1,2.4c1.1,0,1.9-0.7,2-1.8h-0.8c-0.1,0.6-0.5,1.1-1.2,1.1c-0.8,0-1.4-0.6-1.4-1.8c0-1.1,0.5-1.7,1.4-1.7
			c0.6,0,1.1,0.3,1.2,0.9H56.9L56.9,46.5z M57.7,45v4.6h0.8v-1.9h1.2c0.6,0,0.7,0.3,0.7,0.7l0,0.5c0,0.2,0,0.4,0.1,0.6h0.9v-0.1
			c-0.2-0.1-0.2-0.3-0.2-0.5l0-0.6c0-0.5-0.1-0.8-0.5-0.9c0.4-0.2,0.6-0.5,0.6-1.1c0-0.8-0.5-1.3-1.3-1.3c0,0-0.1,0-0.2,0L57.7,45
			L57.7,45z M58.4,45.7h1.1c0.6,0,0.9,0.2,0.9,0.7s-0.3,0.7-0.9,0.7h-1.1V45.7L58.4,45.7z M62,45v2.9c0,1.2,0.6,1.8,1.8,1.8
			c1.1,0,1.8-0.6,1.8-1.8V45h-0.8v2.9c0,0.8-0.3,1.2-1.1,1.2c-0.7,0-1-0.4-1-1.2V45H62L62,45z M66.4,45v0.7H69L66.3,49v0.6h3.6V49
			h-2.6l2.7-3.2V45L66.4,45L66.4,45z"/>
		<path class="st0" d="M43,24.5c0,0.1,0.1,0.3,0.1,0.4l1.2,3.5h0.6L46,25c0-0.1,0.1-0.3,0.1-0.4v3.9h0.6v-4.6h-0.9l-1.2,3.5
			c0,0.1-0.1,0.2-0.1,0.4c0-0.1-0.1-0.2-0.1-0.4l-1.1-3.5h-0.9v4.6H43V24.5L43,24.5z M47.7,28.5h0.6v-3.4h-0.6V28.5L47.7,28.5z
			 M47.7,24.5h0.6v-0.6h-0.6V24.5L47.7,24.5z M51.3,28.5h0.6v-2.2c0-0.3,0-0.6-0.2-0.8c-0.2-0.3-0.5-0.5-1-0.5
			c-0.5,0-0.8,0.2-1.1,0.6v-0.5h-0.5v3.4h0.6v-1.9c0-0.6,0.4-1,1-1c0.5,0,0.7,0.3,0.7,0.9L51.3,28.5L51.3,28.5z M52.8,28.5h0.6v-3.4
			h-0.6V28.5L52.8,28.5z M52.8,24.5h0.6v-0.6h-0.6V24.5L52.8,24.5z M53.9,27.4c0,0.8,0.5,1.2,1.4,1.2c0.9,0,1.4-0.4,1.4-1.1
			c0-0.6-0.3-0.8-1-1l-0.5-0.1c-0.4-0.1-0.5-0.2-0.5-0.4c0-0.3,0.2-0.5,0.7-0.5s0.7,0.2,0.8,0.6h0.5l0,0c0-0.6-0.5-1-1.3-1
			c-0.8,0-1.2,0.4-1.2,1s0.3,0.8,1,0.9l0.6,0.2c0.3,0.1,0.5,0.2,0.5,0.5c0,0.3-0.3,0.5-0.8,0.5c-0.5,0-0.8-0.2-0.9-0.7H53.9
			L53.9,27.4z M58,27.6v-2.1h0.6v-0.4H58v-0.9h-0.6v0.9H57v0.4h0.5v2.3c0,0.5,0.2,0.7,0.7,0.7c0.1,0,0.3,0,0.4-0.1V28
			c-0.1,0-0.2,0-0.3,0C58.1,28,58,27.9,58,27.6L58,27.6z M60.1,24.7h0.4l0.9-1.1h-0.6L60.1,24.7L60.1,24.7z M61.4,27.4
			c-0.1,0.4-0.4,0.7-0.9,0.7c-0.6,0-1-0.4-1-1.1H62c0-0.1,0-0.2,0-0.3c0-1.1-0.6-1.7-1.5-1.7c-0.9,0-1.5,0.6-1.5,1.8
			c0,1.1,0.6,1.8,1.5,1.8c0.8,0,1.4-0.4,1.5-1.2L61.4,27.4L61.4,27.4z M59.6,26.5c0.1-0.6,0.4-1,0.9-1c0.6,0,0.9,0.3,0.9,1H59.6
			L59.6,26.5z M62.7,28.5h0.6v-1.9c0-0.6,0.3-1,0.9-1c0.1,0,0.1,0,0.1,0v-0.6c-0.1,0-0.1,0-0.2,0c-0.4,0-0.8,0.2-0.9,0.7v-0.6h-0.5
			V28.5L62.7,28.5z M64.8,28.5h0.6v-3.4h-0.6V28.5L64.8,28.5z M64.8,24.5h0.6v-0.6h-0.6V24.5L64.8,24.5z M66.1,26.8
			c0,1.1,0.6,1.8,1.6,1.8c1,0,1.6-0.6,1.6-1.8c0-1.1-0.6-1.8-1.6-1.8C66.7,25,66.1,25.7,66.1,26.8L66.1,26.8z M66.7,26.8
			c0-0.8,0.4-1.3,1-1.3c0.6,0,1,0.4,1,1.3s-0.4,1.3-1,1.3C67,28.1,66.7,27.6,66.7,26.8L66.7,26.8z M74.7,23.9h-0.5v1.7
			C73.9,25.2,73.5,25,73,25c-0.9,0-1.5,0.7-1.5,1.8c0,1.1,0.6,1.8,1.5,1.8c0.4,0,0.8-0.2,1.1-0.5v0.4h0.5V23.9L74.7,23.9z
			 M74.2,26.8c0,0.9-0.4,1.3-1,1.3s-1-0.5-1-1.2c0-0.9,0.4-1.3,1-1.3C73.8,25.5,74.2,25.9,74.2,26.8L74.2,26.8z M77.6,26.8v0.5
			c0,0.5-0.4,0.8-1,0.8c-0.4,0-0.6-0.2-0.6-0.5c0-0.3,0.2-0.5,0.6-0.6C76.9,27,77.3,26.9,77.6,26.8L77.6,26.8z M77.6,28L77.6,28
			c0,0.3,0.2,0.5,0.6,0.5c0.1,0,0.2,0,0.3-0.1v-0.4c-0.1,0-0.1,0-0.2,0c-0.2,0-0.2-0.1-0.2-0.3v-1.7c0-0.7-0.4-1-1.3-1
			c-0.8,0-1.4,0.4-1.4,1.1v0h0.5c0-0.4,0.3-0.6,0.8-0.6c0.5,0,0.8,0.2,0.8,0.5c0,0.2,0,0.3-0.2,0.4c-0.1,0.1-0.5,0.1-0.9,0.1
			c-0.8,0.1-1.1,0.4-1.1,1.1c0,0.6,0.4,1,1.1,1C76.9,28.6,77.3,28.4,77.6,28L77.6,28z M80.7,27c0.1,1.1,0.7,1.6,1.8,1.6
			s1.8-0.6,1.8-1.5c0-0.4-0.1-0.7-0.4-0.9c-0.3-0.2-0.6-0.3-1.1-0.4c-1-0.2-1.4-0.3-1.4-0.9c0-0.4,0.4-0.7,1-0.7c0.6,0,1,0.3,1.1,1
			h0.6c0-0.9-0.6-1.5-1.7-1.5c-1,0-1.7,0.6-1.7,1.4s0.5,1,1.6,1.3c0.8,0.2,1.3,0.3,1.3,0.8c0,0.5-0.4,0.8-1.2,0.8
			c-0.7,0-1.2-0.4-1.2-1.1L80.7,27L80.7,27z M87,26.8v0.5c0,0.5-0.4,0.8-1,0.8c-0.4,0-0.6-0.2-0.6-0.5c0-0.3,0.2-0.5,0.6-0.6
			C86.3,27,86.7,26.9,87,26.8L87,26.8z M87,28L87,28c0,0.3,0.2,0.5,0.6,0.5c0.1,0,0.2,0,0.3-0.1v-0.4c-0.1,0-0.1,0-0.2,0
			c-0.2,0-0.2-0.1-0.2-0.3v-1.7c0-0.7-0.4-1-1.3-1c-0.8,0-1.4,0.4-1.4,1.1v0h0.5c0-0.4,0.3-0.6,0.8-0.6S87,25.7,87,26
			c0,0.2,0,0.3-0.2,0.4c-0.1,0.1-0.5,0.1-0.9,0.1c-0.8,0.1-1.1,0.4-1.1,1.1c0,0.6,0.4,1,1.1,1C86.3,28.6,86.7,28.4,87,28L87,28z
			 M89.4,24.7h0.4l0.9-1.1h-0.6L89.4,24.7L89.4,24.7z M89,25.1h-0.6v2.2c0,0.3,0,0.6,0.2,0.8c0.2,0.3,0.5,0.5,1,0.5
			c0.5,0,0.9-0.2,1.1-0.6v0.5h0.5v-3.4h-0.6V27c0,0.8-0.3,1.1-1,1.1c-0.5,0-0.7-0.3-0.7-0.9L89,25.1L89,25.1z M95,23.9h-0.5v1.7
			c-0.3-0.3-0.6-0.5-1.1-0.5c-0.9,0-1.5,0.7-1.5,1.8c0,1.1,0.6,1.8,1.5,1.8c0.4,0,0.8-0.2,1.1-0.5v0.4H95V23.9L95,23.9z M94.5,26.8
			c0,0.9-0.4,1.3-1,1.3s-1-0.5-1-1.2c0-0.9,0.4-1.3,1-1.3C94.2,25.5,94.5,25.9,94.5,26.8L94.5,26.8z M98.2,27.4
			c-0.1,0.4-0.4,0.7-0.9,0.7c-0.6,0-1-0.4-1-1.1h2.4c0-0.1,0-0.2,0-0.3c0-1.1-0.6-1.7-1.5-1.7s-1.5,0.6-1.5,1.8
			c0,1.1,0.6,1.8,1.5,1.8c0.8,0,1.4-0.4,1.5-1.2L98.2,27.4L98.2,27.4z M96.3,26.5c0.1-0.6,0.4-1,0.9-1c0.6,0,0.9,0.3,0.9,1H96.3z"/>
		<path class="st0" d="M42.6,58.2h1.2v-1.7h1.8v-1h-1.8v-1h2.1v-1h-3.3V58.2L42.6,58.2z M49.5,54.8h-1.1v1.8c0,0.5-0.2,0.8-0.5,0.8
			s-0.5-0.2-0.5-0.7v-1.9h-1.1v2.3c0,0.8,0.4,1.1,1.1,1.1c0.4,0,0.8-0.2,1-0.5v0.5h1.1L49.5,54.8L49.5,54.8z M50.3,58.2h1.1v-1.8
			c0-0.5,0.2-0.8,0.6-0.8c0.4,0,0.5,0.3,0.5,0.9v1.7h1.1V56c0-0.9-0.3-1.3-1.1-1.3c-0.5,0-0.8,0.2-1,0.5v-0.5h-1.1L50.3,58.2
			L50.3,58.2z M55.3,56.5c0-0.6,0.3-0.9,0.6-0.9c0.4,0,0.6,0.3,0.6,0.9c0,0.6-0.2,0.9-0.6,0.9C55.5,57.4,55.3,57.1,55.3,56.5
			L55.3,56.5z M57.7,53.6h-1.1v1.6c-0.2-0.3-0.6-0.5-1-0.5c-0.8,0-1.4,0.7-1.4,1.8c0,1.1,0.6,1.8,1.4,1.8c0.4,0,0.8-0.2,1-0.5v0.5
			h1.1L57.7,53.6L57.7,53.6z M61.6,58.2v-0.1c-0.1-0.1-0.2-0.2-0.2-0.5v-1.3c0-0.5,0-0.8-0.2-1.1c-0.2-0.3-0.6-0.4-1.2-0.4
			c-1,0-1.5,0.4-1.6,1.1h1c0.1-0.3,0.2-0.4,0.5-0.4c0.3,0,0.4,0.1,0.4,0.3v0.1c0,0.3-0.4,0.2-1.2,0.4c-0.6,0.1-0.9,0.5-0.9,1.1
			c0,0.6,0.4,1,1.1,1c0.4,0,0.8-0.2,1.1-0.5c0,0.1,0,0.2,0.1,0.4L61.6,58.2L61.6,58.2z M60.4,56.6V57c0,0.4-0.3,0.6-0.6,0.6
			c-0.3,0-0.4-0.2-0.4-0.4c0-0.2,0.1-0.3,0.4-0.4C59.9,56.8,60.2,56.8,60.4,56.6L60.4,56.6z M62.9,59.6c0.4,0.1,0.6,0.2,0.9,0.2
			c0.5,0,0.8-0.2,0.8-0.6c0-0.4-0.3-0.6-0.7-0.6h-0.1v-0.3h-0.4v0.7c0.1,0,0.1,0,0.2,0c0.3,0,0.4,0.1,0.4,0.2s-0.1,0.2-0.3,0.2
			s-0.5,0-0.9-0.1L62.9,59.6L62.9,59.6z M65.4,57c-0.1,0.9-0.7,1.4-1.7,1.4c-1,0-1.7-0.7-1.7-1.8c0-1.2,0.7-1.9,1.7-1.9
			c0.9,0,1.5,0.5,1.6,1.3h-1.1c-0.1-0.3-0.2-0.5-0.5-0.5c-0.4,0-0.6,0.3-0.6,1c0,0.6,0.2,0.9,0.6,0.9c0.3,0,0.5-0.2,0.5-0.5L65.4,57
			L65.4,57z M68.4,53.4h-0.4c-0.1,0.2-0.1,0.3-0.3,0.3c-0.1,0-0.1,0-0.2,0l-0.3-0.1c-0.1,0-0.2-0.1-0.3-0.1c-0.3,0-0.5,0.3-0.7,0.8
			h0.4c0.1-0.2,0.1-0.2,0.3-0.2c0.1,0,0.1,0,0.2,0l0.3,0.1c0.1,0,0.2,0,0.2,0C68.1,54.2,68.3,54,68.4,53.4L68.4,53.4z M69.1,58.2
			v-0.1c-0.1-0.1-0.2-0.2-0.2-0.5v-1.3c0-0.5,0-0.8-0.2-1.1c-0.2-0.3-0.6-0.4-1.2-0.4c-1,0-1.5,0.4-1.6,1.1h1
			c0.1-0.3,0.2-0.4,0.5-0.4c0.3,0,0.4,0.1,0.4,0.3v0.1c0,0.3-0.4,0.2-1.2,0.4c-0.6,0.1-0.9,0.5-0.9,1.1c0,0.6,0.4,1,1.1,1
			c0.4,0,0.8-0.2,1.1-0.5c0,0.1,0,0.2,0.1,0.4L69.1,58.2L69.1,58.2z M67.8,56.6V57c0,0.4-0.3,0.6-0.6,0.6c-0.3,0-0.4-0.2-0.4-0.4
			c0-0.2,0.1-0.3,0.4-0.4C67.4,56.8,67.6,56.8,67.8,56.6L67.8,56.6z M69.5,56.5c0,1.1,0.7,1.8,1.8,1.8c1.1,0,1.8-0.7,1.8-1.8
			s-0.7-1.8-1.8-1.8C70.1,54.7,69.5,55.4,69.5,56.5L69.5,56.5z M70.6,56.5c0-0.6,0.2-1,0.6-1c0.4,0,0.7,0.3,0.7,1s-0.3,1-0.7,1
			C70.8,57.5,70.6,57.2,70.6,56.5L70.6,56.5z M75.4,55.9c0,1.5,0.9,2.4,2.3,2.4c1.4,0,2.3-0.9,2.3-2.4c0-1.5-0.9-2.4-2.3-2.4
			C76.3,53.5,75.4,54.4,75.4,55.9L75.4,55.9z M76.6,55.9c0-1,0.4-1.5,1.1-1.5c0.7,0,1.1,0.5,1.1,1.5c0,1-0.4,1.5-1.1,1.5
			C77,57.4,76.6,56.9,76.6,55.9L76.6,55.9z M80.6,57.2c0.1,0.7,0.6,1.1,1.7,1.1c1.1,0,1.6-0.5,1.6-1.2c0-0.3-0.1-0.5-0.4-0.7
			c-0.2-0.1-0.5-0.2-1-0.4c-0.5-0.1-0.8-0.2-0.8-0.4c0-0.2,0.2-0.3,0.4-0.3c0.3,0,0.4,0.1,0.5,0.3h1.1c-0.1-0.7-0.6-1-1.6-1
			c-0.9,0-1.5,0.4-1.5,1.1c0,0.5,0.3,0.8,1.1,1c0.6,0.2,1,0.2,1,0.5c0,0.2-0.2,0.3-0.5,0.3c-0.4,0-0.6-0.2-0.6-0.4H80.6L80.6,57.2z
			 M85.1,58.2h1.1l0.5-2.2l0.5,2.2h1.1l1-3.4h-1.1l-0.5,2.3l-0.4-2.3h-1.1l-0.4,2.3l-0.5-2.3h-1.1L85.1,58.2L85.1,58.2z M92.9,58.2
			v-0.1c-0.1-0.1-0.2-0.2-0.2-0.5v-1.3c0-0.5,0-0.8-0.2-1.1c-0.2-0.3-0.6-0.4-1.2-0.4c-1,0-1.5,0.4-1.6,1.1h1
			c0.1-0.3,0.2-0.4,0.5-0.4c0.3,0,0.4,0.1,0.4,0.3v0.1c0,0.3-0.4,0.2-1.2,0.4c-0.6,0.1-0.9,0.5-0.9,1.1c0,0.6,0.4,1,1.1,1
			c0.4,0,0.8-0.2,1.1-0.5c0,0.1,0,0.2,0.1,0.4L92.9,58.2L92.9,58.2z M91.7,56.6V57c0,0.4-0.3,0.6-0.6,0.6c-0.3,0-0.4-0.2-0.4-0.4
			c0-0.2,0.1-0.3,0.4-0.4C91.3,56.8,91.5,56.8,91.7,56.6L91.7,56.6z M93.5,58.2h1.1v-4.6h-1.1V58.2L93.5,58.2z M96.3,56.5
			c0-0.6,0.3-0.9,0.6-0.9c0.4,0,0.6,0.3,0.6,0.9c0,0.6-0.2,0.9-0.6,0.9C96.6,57.4,96.3,57.1,96.3,56.5L96.3,56.5z M98.8,53.6h-1.1
			v1.6c-0.2-0.3-0.6-0.5-1-0.5c-0.8,0-1.4,0.7-1.4,1.8c0,1.1,0.6,1.8,1.4,1.8c0.4,0,0.8-0.2,1-0.5v0.5h1.1L98.8,53.6L98.8,53.6z
			 M99.4,56.5c0,1.1,0.7,1.8,1.8,1.8c1.1,0,1.8-0.7,1.8-1.8s-0.7-1.8-1.8-1.8C100,54.7,99.4,55.4,99.4,56.5L99.4,56.5z M100.5,56.5
			c0-0.6,0.2-1,0.6-1c0.4,0,0.7,0.3,0.7,1s-0.3,1-0.7,1C100.7,57.5,100.5,57.2,100.5,56.5L100.5,56.5z M109.6,56.6h-1.1
			c-0.1,0.5-0.4,0.8-0.9,0.8c-0.6,0-1-0.5-1-1.4s0.4-1.5,1.1-1.5c0.5,0,0.8,0.2,0.9,0.7h1.1c-0.1-1-0.9-1.6-2-1.6
			c-1.4,0-2.3,1-2.3,2.5c0,1.5,0.9,2.4,2.3,2.4C108.7,58.4,109.4,57.7,109.6,56.6L109.6,56.6z M110.2,58.2h1.1v-1.1
			c0-0.5,0-0.8,0.1-1c0.1-0.2,0.4-0.3,0.7-0.3c0.1,0,0.2,0,0.3,0v-1.1c-0.5,0-0.9,0.2-1.1,0.7v-0.6h-1.1L110.2,58.2L110.2,58.2z
			 M116.2,54.8h-1.1v1.8c0,0.5-0.2,0.8-0.5,0.8s-0.5-0.2-0.5-0.7v-1.9h-1.1v2.3c0,0.8,0.4,1.1,1.1,1.1c0.4,0,0.8-0.2,1-0.5v0.5h1.1
			L116.2,54.8L116.2,54.8z M116.7,58.2h3.1v-0.8h-1.7l1.7-1.8v-0.8h-3v0.8h1.6l-1.7,1.8V58.2z"/>
	</g>
</g>
<g>
</g>
<g>
</g>
<g>
</g>
<g>
</g>
<g>
</g>
<g>
</g>
<g>
</g>
<g>
</g>
<g>
</g>
<g>
</g>
<g>
</g>
<g>
</g>
<g>
</g>
<g>
</g>
<g>
</g>
</svg>
