<?xml version="1.0" encoding="utf-8"?>
<!-- Generator: Adobe Illustrator 25.2.1, SVG Export Plug-In . SVG Version: 6.00 Build 0)  -->
<svg version="1.1" id="Layer_1" xmlns="http://www.w3.org/2000/svg" xmlns:xlink="http://www.w3.org/1999/xlink" x="0px" y="0px"
	 viewBox="0 0 120 80" style="enable-background:new 0 0 120 80;" xml:space="preserve">
<style type="text/css">
	.st0{fill:#222222;}
	.st1{fill:#5A5A5C;}
	.st2{fill:#272525;}
	.st3{fill:#FFFFFF;}
	.st4{fill:#BABBBD;}
</style>
<g>
	<g>
		<g>
			<path class="st0" d="M53.9,35.6c3.4,0,5.1,1.4,5.1,3.8c0,1.3-0.9,2.5-2.2,2.9c1.6,0.4,2.9,1.9,2.9,3.7c0,2.3-1.7,4.1-5.6,4.1
				c-1.9,0-3.4-0.1-5.2-0.1l-0.1-0.1V35.8l0.1-0.1C50.8,35.6,52.4,35.6,53.9,35.6z M51.4,41.6h2.4c2.2,0,2.7-1.2,2.7-2.2
				s-0.4-2.2-2.6-2.2c-0.6,0-1.8,0-2.5,0V41.6z M51.4,43.3v5.1c1,0,1.9,0,2.8,0c2.5,0,3.1-1.4,3.1-2.5s-0.7-2.6-3.2-2.6H51.4z"/>
			<path class="st0" d="M69.1,43.7c0.8,0.3,1.3,0.9,1.7,1.8l1,2.4c0.2,0.6,0.5,1.1,1.1,1.5c-0.3,0.4-1.1,0.7-1.7,0.7
				c-0.9,0-1.2-0.4-1.6-1.4l-1.2-2.8C68,45,67.5,44.2,66,44.2h-1.9v5.8C63.7,50,63.3,50,62.8,50c-0.4,0-0.9,0-1.2-0.1V35.8l0.1-0.1
				c1.8,0,3.4-0.1,5-0.1c3.2,0,5.3,1.5,5.3,4.3C72.1,41.8,70.8,43.2,69.1,43.7z M64.1,42.4c0.9,0,1.9-0.1,2.6-0.1
				c2.3,0,2.9-1.3,2.9-2.5c0-1.2-0.6-2.6-2.9-2.6c-0.7,0-1.8,0-2.6,0V42.4z"/>
			<path class="st0" d="M77.8,46.5L76.5,50c-0.3,0.1-0.7,0.1-1.1,0.1c-0.4,0-0.9-0.1-1.2-0.1l-0.1-0.1l5.2-14.2
				c0.4-0.1,1-0.1,1.4-0.1c0.4,0,1.1,0,1.4,0.1l5.2,14.2c-0.4,0.2-0.9,0.3-1.4,0.3c-0.7,0-1.2-0.2-1.5-1.2l-0.9-2.4
				c-0.4,0-1.2,0-1.4,0h-3.2C78.9,46.5,78.1,46.5,77.8,46.5z M78.4,44.7c0.4,0,1,0,1.2,0h2.3c0.2,0,0.8,0,1.2,0L82,41.6
				c-0.4-1.2-0.9-2.7-1.2-3.8h-0.1c-0.2,0.9-0.6,2.2-0.9,3.1L78.4,44.7z"/>
			<path class="st0" d="M89.7,46.9c1.4,0.8,3.1,1.4,4.7,1.4c1.9,0,2.9-0.8,3-2c0-1-0.8-1.8-2.1-2.2l-2.7-1.1
				c-1.9-0.8-3.2-1.9-3.2-3.6c0-2.3,2.1-4.1,5.2-4.1c1.9,0,3.8,0.6,4.9,1.1c0,0.6-0.4,1.3-0.9,1.7c-1.2-0.6-2.8-1-4-1
				c-1.7,0-2.8,0.9-2.8,2c0,0.9,0.8,1.4,1.9,1.9l2.7,1.1c2,0.8,3.5,2.1,3.5,3.9c0,2.4-1.9,4.2-5.8,4.2c-1.9,0-4.1-0.6-5.6-1.6
				C88.7,48,89.2,47.3,89.7,46.9z"/>
			<g>
				<path class="st0" d="M102.9,35.6c0.4-0.1,0.9-0.1,1.2-0.1c0.4,0,0.9,0,1.2,0.1v14.3c-0.4,0.1-0.9,0.1-1.2,0.1
					c-0.4,0-0.9,0-1.2-0.1V35.6z"/>
				<path class="st0" d="M118.6,48.1c0,0.3,0,0.6-0.1,0.9c-0.1,0.7-0.8,1.1-1.6,1.1h-6.1c-0.8,0-1.4-0.5-1.4-1.4V35.7l0.2-0.1h0.9
					c1,0,1.4,0.4,1.4,1.4v11.1c0.8-0.1,1.4-0.1,2.1-0.1C114,48.1,118.6,48.1,118.6,48.1z"/>
				<g>
					<path class="st0" d="M51.3,30.8h-1v2.4c-0.2,0.1-0.5,0.1-0.7,0.1c-0.2,0-0.5,0-0.7-0.1V26l0.1-0.1c0.9,0,1.6-0.1,2.3-0.1
						c1.4,0,2.5,0.8,2.5,2.4C53.8,29.9,52.8,30.8,51.3,30.8z M50.3,29.8c0.4,0,0.7,0,0.9,0c0.9,0,1.1-0.8,1.1-1.3s-0.2-1.3-1.1-1.3
						c-0.2,0-0.6,0-0.9,0V29.8z"/>
					<path class="st0" d="M55.5,31.6L55,33.2c-0.2,0.1-0.4,0.1-0.6,0.1s-0.5-0.1-0.7-0.1l-0.1-0.1l2.4-7.1c0.2-0.1,0.6-0.1,0.8-0.1
						c0.2,0,0.6,0,0.8,0.1l2.3,7.1c-0.2,0.1-0.6,0.2-0.8,0.2c-0.4,0-0.7-0.2-0.9-0.8L58,31.6c-0.2,0-0.4,0-0.5,0H56
						C56,31.6,55.7,31.6,55.5,31.6z M55.9,30.4c0.1,0,0.4,0,0.5,0h0.9c0.1,0,0.3,0,0.4,0l-0.3-1.1c-0.2-0.6-0.4-1.4-0.6-2.1h-0.1
						c-0.1,0.6-0.3,1.3-0.4,1.8L55.9,30.4z"/>
					<path class="st0" d="M61.5,27.9c0-0.3,0-0.5,0-0.8l0,0c-0.1,0-0.5,0-0.6,0h-1.2c-0.1-0.2-0.1-0.4-0.1-0.6c0-0.2,0-0.4,0.1-0.6
						h5.1c0.1,0.1,0.1,0.4,0.1,0.6c0,0.4-0.2,0.6-0.7,0.6h-0.5c-0.1,0-0.5,0-0.6,0l0,0c0,0.3,0,0.5,0,0.8v5.2
						c-0.2,0.1-0.5,0.1-0.8,0.1c-0.2,0-0.4,0-0.7-0.1L61.5,27.9L61.5,27.9z"/>
					<path class="st0" d="M69.3,30.1c0.4,0.1,0.6,0.5,0.8,0.9l0.4,1.1c0.1,0.3,0.2,0.6,0.5,0.8c-0.2,0.2-0.6,0.4-0.9,0.4
						c-0.5,0-0.7-0.3-0.9-0.8l-0.4-1.3c-0.2-0.4-0.4-0.8-1-0.8h-0.6v2.7c-0.2,0.1-0.5,0.1-0.7,0.1s-0.5,0-0.7-0.1V26l0.1-0.1
						c0.9,0,1.6-0.1,2.4-0.1c1.5,0,2.5,0.8,2.5,2.2C70.6,29.2,70,29.9,69.3,30.1z M67.1,29.3c0.4,0,0.8-0.1,1-0.1
						c0.9,0,1.1-0.6,1.1-1.1S69,27,68.1,27c-0.2,0-0.6,0-1,0V29.3z"/>
					<path class="st0" d="M72.1,26c0.2-0.1,0.5-0.1,0.7-0.1s0.5,0,0.7,0.1v7.2c-0.2,0.1-0.5,0.1-0.7,0.1s-0.5,0-0.7-0.1V26z"/>
					<path class="st0" d="M76.5,31.6L76,33.2c-0.2,0.1-0.4,0.1-0.6,0.1c-0.2,0-0.5-0.1-0.7-0.1l-0.1-0.1l2.4-7.1
						c0.2-0.1,0.6-0.1,0.8-0.1c0.2,0,0.6,0,0.8,0.1l2.3,7.1c-0.2,0.1-0.6,0.2-0.8,0.2c-0.4,0-0.7-0.2-0.9-0.8l-0.3-0.9
						c-0.2,0-0.4,0-0.5,0h-1.5C76.9,31.6,76.6,31.6,76.5,31.6z M76.8,30.4c0.1,0,0.4,0,0.5,0h0.9c0.1,0,0.3,0,0.4,0l-0.3-1.1
						c-0.2-0.6-0.4-1.4-0.6-2.1h-0.1c-0.1,0.6-0.3,1.3-0.4,1.8L76.8,30.4z"/>
					<path class="st0" d="M85.4,31.6l-0.5,1.6c-0.2,0.1-0.4,0.1-0.6,0.1c-0.2,0-0.5-0.1-0.7-0.1l-0.1-0.1l2.4-7.1
						c0.2-0.1,0.6-0.1,0.8-0.1s0.6,0,0.8,0.1l2.3,7.1c-0.2,0.1-0.6,0.2-0.8,0.2c-0.4,0-0.7-0.2-0.9-0.8l-0.3-0.9c-0.2,0-0.4,0-0.5,0
						h-1.5C85.8,31.6,85.6,31.6,85.4,31.6z M85.8,30.4c0.1,0,0.4,0,0.5,0h0.9c0.1,0,0.3,0,0.4,0l-0.3-1.1c-0.2-0.6-0.4-1.4-0.6-2.1
						h-0.1c-0.1,0.6-0.3,1.3-0.4,1.8L85.8,30.4z"/>
					<path class="st0" d="M91.3,26c0.3-0.1,0.7-0.1,0.9-0.1c0.2,0,0.6,0,0.9,0.1l0.8,2.9c0.1,0.3,0.3,1.4,0.4,1.8h0.1
						c0.1-0.4,0.3-1.5,0.4-1.8l0.8-2.9c0.3-0.1,0.7-0.1,0.9-0.1c0.2,0,0.6,0,0.9,0.1l0.6,7.2c-0.2,0.1-0.5,0.1-0.8,0.1
						c-0.2,0-0.4,0-0.6-0.1l-0.2-3.4c-0.1-0.7-0.1-1.6-0.1-2.3h0.1l-1.2,4.6c-0.2,0.1-0.5,0.1-0.8,0.1c-0.2,0-0.5,0-0.8-0.1
						l-1.2-4.6h-0.1c0,0.7-0.1,1.6-0.1,2.3L92,33.2c-0.2,0.1-0.4,0.1-0.6,0.1c-0.2,0-0.5,0-0.7-0.1L91.3,26z"/>
					<path class="st0" d="M100.7,31.6l-0.5,1.6c-0.2,0.1-0.4,0.1-0.6,0.1c-0.2,0-0.5-0.1-0.7-0.1l-0.1-0.1l2.4-7.1
						c0.2-0.1,0.6-0.1,0.8-0.1c0.2,0,0.6,0,0.8,0.1l2.3,7.1c-0.2,0.1-0.6,0.2-0.8,0.2c-0.4,0-0.7-0.2-0.9-0.8l-0.3-0.9
						c-0.2,0-0.4,0-0.5,0h-1.5C101.1,31.6,100.9,31.6,100.7,31.6z M101.1,30.4c0.1,0,0.4,0,0.5,0h0.9c0.1,0,0.3,0,0.4,0l-0.3-1.1
						c-0.2-0.6-0.4-1.4-0.6-2.1H102c-0.1,0.6-0.3,1.3-0.4,1.8L101.1,30.4z"/>
					<path class="st0" d="M110.7,32.8c-0.4,0.4-1.3,0.5-1.9,0.5c-0.9,0-1.6,0-2.5-0.1l-0.1-0.1V26l0.1-0.1c0.9-0.1,1.6-0.1,2.5-0.1
						c0.6,0,1.4,0.1,1.9,0.5c1,0.8,1.1,1.9,1.1,3.1C111.8,30.8,111.6,31.9,110.7,32.8z M108.8,27.1c-0.4,0-0.8,0-1.1,0v5.1
						c0.4,0,0.8,0,1.1,0c1.4,0,1.6-1.4,1.6-2.6C110.4,28.4,110.1,27.1,108.8,27.1z"/>
					<path class="st0" d="M114.1,31.6l-0.5,1.6c-0.2,0.1-0.4,0.1-0.6,0.1c-0.2,0-0.5-0.1-0.7-0.1l-0.1-0.1l2.4-7.1
						c0.2-0.1,0.6-0.1,0.8-0.1c0.2,0,0.6,0,0.8,0.1l2.3,7.1c-0.2,0.1-0.6,0.2-0.8,0.2c-0.4,0-0.7-0.2-0.9-0.8l-0.3-0.9
						c-0.2,0-0.4,0-0.5,0h-1.5C114.6,31.6,114.3,31.6,114.1,31.6z M114.5,30.4c0.1,0,0.4,0,0.5,0h0.9c0.1,0,0.3,0,0.4,0l-0.3-1.1
						c-0.2-0.6-0.4-1.4-0.6-2.1h-0.1c-0.1,0.6-0.3,1.3-0.4,1.8L114.5,30.4z"/>
					<path class="st0" d="M58.1,23.5c0.2,0.1,0.5,0.4,0.6,0.8L57,25.3c-0.2-0.1-0.3-0.3-0.4-0.5L58.1,23.5z"/>
				</g>
				<g>
					<path class="st0" d="M50.6,54.4h0.8c0.4,0,0.6,0.2,0.6,0.5v1.4c-0.4,0.1-0.9,0.2-1.4,0.2c-0.2,0-0.4-0.1-0.6-0.1
						c-0.2-0.1-0.4-0.2-0.5-0.4c-0.1-0.1-0.2-0.4-0.3-0.6c-0.1-0.2-0.1-0.5-0.1-0.8c0-0.3,0.1-0.6,0.1-0.8c0.1-0.2,0.2-0.4,0.4-0.6
						c0.1-0.1,0.3-0.2,0.5-0.4c0.2-0.1,0.4-0.1,0.6-0.1c0.4,0,0.9,0.1,1.2,0.4c0,0.1,0,0.1-0.1,0.2c0,0.1-0.1,0.1-0.1,0.2
						c-0.1,0.1-0.1,0.1-0.1,0.1c-0.1,0.1-0.1,0.1-0.1,0.1c-0.3-0.2-0.6-0.3-0.9-0.3c-0.6,0-0.8,0.4-0.8,1.2c0,0.8,0.3,1.2,0.9,1.2
						c0.1,0,0.1,0,0.2,0c0.1,0,0.1,0,0.2,0v-0.4c0-0.1,0-0.1,0-0.2c0-0.1,0-0.1,0-0.1H51c-0.1,0-0.2,0-0.3-0.1
						c-0.1-0.1-0.1-0.1-0.1-0.2C50.6,54.6,50.6,54.5,50.6,54.4z"/>
					<path class="st0" d="M54.8,56.1c-0.4-0.3-0.6-0.8-0.6-1.5c0-0.3,0.1-0.6,0.1-0.8c0.1-0.2,0.2-0.4,0.3-0.6
						c0.1-0.1,0.3-0.2,0.5-0.4c0.2-0.1,0.4-0.1,0.6-0.1s0.4,0.1,0.6,0.1c0.2,0.1,0.4,0.2,0.5,0.4c0.1,0.1,0.2,0.4,0.3,0.6
						c0.1,0.2,0.1,0.5,0.1,0.8s-0.1,0.6-0.1,0.8c-0.1,0.2-0.2,0.4-0.3,0.6c-0.1,0.1-0.3,0.2-0.5,0.4c-0.2,0.1-0.4,0.1-0.6,0.1
						C55.4,56.4,55,56.3,54.8,56.1z M55.2,55.4c0.1,0.2,0.2,0.4,0.6,0.4c0.1,0,0.2-0.1,0.3-0.1c0.1-0.1,0.1-0.2,0.2-0.2
						c0.1-0.1,0.1-0.2,0.1-0.4c0-0.1,0-0.2,0-0.4c0-0.1,0-0.3,0-0.4c0-0.1-0.1-0.3-0.1-0.4c-0.1-0.1-0.1-0.3-0.2-0.3
						c-0.1-0.1-0.2-0.1-0.4-0.1c-0.2,0-0.3,0.1-0.4,0.1c-0.1,0.1-0.1,0.2-0.2,0.3s-0.1,0.2-0.1,0.4c0,0.1,0,0.3,0,0.4
						c0,0.2,0,0.3,0,0.4C55.1,55.1,55.1,55.3,55.2,55.4z"/>
					<path class="st0" d="M60.8,55.7l0.7-2.8c0.1,0,0.2,0,0.3,0c0.2,0,0.3,0,0.4,0.1V53l-0.9,3.4c-0.2,0-0.4,0-0.6,0
						c-0.2,0-0.3,0-0.4-0.1c-0.1-0.1-0.1-0.1-0.2-0.3l-0.9-3.1c0.2-0.1,0.3-0.1,0.4-0.1c0.1,0,0.2,0.1,0.3,0.1
						c0.1,0.1,0.1,0.2,0.2,0.3l0.4,1.4C60.6,54.9,60.7,55.2,60.8,55.7C60.8,55.6,60.8,55.7,60.8,55.7z"/>
					<path class="st0" d="M65.3,55.3v0.4l0,0c0.2,0,0.3,0,0.4,0h1.2c0,0.1,0,0.2,0,0.3c-0.1,0.2-0.2,0.4-0.5,0.4H65
						c-0.1,0-0.2-0.1-0.4-0.1c-0.1-0.1-0.1-0.2-0.1-0.4v-3l0.1-0.1h2.2c0,0.1,0,0.2,0,0.3s0,0.3-0.1,0.4h-1.4v0.4v0.4
						c0.1,0,0.2,0,0.4,0h0.8c0,0.1,0.1,0.2,0.1,0.3s0,0.2-0.1,0.3h-1.1L65.3,55.3L65.3,55.3z"/>
					<path class="st0" d="M71.7,53.9c0,0.1,0,0.2-0.1,0.3c-0.1,0.1-0.1,0.2-0.1,0.2s-0.1,0.1-0.2,0.2c-0.1,0.1-0.2,0.1-0.2,0.1
						c0.2,0.1,0.3,0.3,0.4,0.5l0.1,0.4c0.1,0.2,0.1,0.3,0.2,0.4c-0.1,0.1-0.1,0.1-0.2,0.2s-0.2,0.1-0.3,0.1S71,56.3,71,56.2
						c-0.1-0.1-0.1-0.2-0.2-0.4l-0.2-0.6c-0.1-0.1-0.1-0.2-0.1-0.3C70.4,55,70.3,55,70.1,55H70v1.4c-0.1,0-0.2,0-0.4,0
						c-0.2,0-0.3,0-0.4,0v-3.5l0.1-0.1c0.3,0,0.6,0,0.7,0c0.2,0,0.4,0,0.5,0c0.2,0,0.4,0,0.5,0.1c0.1,0.1,0.3,0.1,0.4,0.2
						c0.1,0.1,0.2,0.2,0.2,0.4C71.6,53.6,71.7,53.8,71.7,53.9z M70,53.4v1c0.1,0,0.3,0,0.4,0c0.1,0,0.2,0,0.2-0.1
						c0.1-0.1,0.1-0.1,0.1-0.1c0.1-0.1,0.1-0.2,0.1-0.3c0-0.3-0.2-0.5-0.5-0.5c-0.1,0-0.1,0-0.2,0C70.1,53.4,70,53.4,70,53.4z"/>
					<path class="st0" d="M76.9,52.8L76.9,52.8l0.1,3.6c-0.1,0-0.3,0.1-0.5,0.1s-0.4,0-0.5,0l-0.8-1.8c-0.1-0.2-0.2-0.4-0.3-0.8l0,0
						c0.1,0.5,0.1,1,0.1,1.6v0.9c-0.1,0-0.2,0-0.4,0c-0.1,0-0.2,0-0.4,0v-3.5c0.1,0,0.3-0.1,0.5-0.1s0.4,0,0.5,0l0.8,1.8
						c0.1,0.3,0.2,0.6,0.3,0.8l0,0c-0.1-0.5-0.1-1-0.1-1.5v-0.6c0-0.2,0.1-0.3,0.1-0.4c0.1-0.1,0.2-0.1,0.4-0.1
						C76.7,52.8,76.9,52.8,76.9,52.8z"/>
					<path class="st0" d="M79.8,56.1c-0.4-0.3-0.6-0.8-0.6-1.5c0-0.3,0.1-0.6,0.1-0.8c0.1-0.2,0.2-0.4,0.3-0.6
						c0.1-0.1,0.3-0.2,0.5-0.4c0.2-0.1,0.4-0.1,0.6-0.1c0.2,0,0.4,0.1,0.6,0.1c0.2,0.1,0.4,0.2,0.5,0.4c0.1,0.1,0.2,0.4,0.3,0.6
						c0.1,0.2,0.1,0.5,0.1,0.8s-0.1,0.6-0.1,0.8c-0.1,0.2-0.2,0.4-0.3,0.6s-0.3,0.2-0.5,0.4c-0.2,0.1-0.4,0.1-0.6,0.1
						C80.4,56.4,80.1,56.3,79.8,56.1z M80.2,55.4c0.1,0.2,0.2,0.4,0.6,0.4c0.1,0,0.2-0.1,0.3-0.1c0.1-0.1,0.1-0.2,0.2-0.2
						c0.1-0.1,0.1-0.2,0.1-0.4c0-0.1,0-0.2,0-0.4c0-0.1,0-0.3,0-0.4c0-0.1-0.1-0.3-0.1-0.4c-0.1-0.1-0.1-0.3-0.2-0.3
						c-0.1-0.1-0.2-0.1-0.4-0.1c-0.2,0-0.3,0.1-0.4,0.1c-0.1,0.1-0.1,0.2-0.2,0.3c-0.1,0.1-0.1,0.2-0.1,0.4c0,0.1,0,0.3,0,0.4
						c0,0.2,0,0.3,0,0.4C80.1,55.1,80.1,55.3,80.2,55.4z"/>
					<path class="st0" d="M88.3,53.6v0.4v0.3h1.1c0,0.1,0.1,0.2,0.1,0.3s0,0.2-0.1,0.3h-1.1v1.5c-0.1,0-0.2,0-0.4,0
						c-0.2,0-0.3,0-0.4,0v-3.5h0.1h2.2c0,0.1,0,0.2,0,0.3s-0.1,0.2-0.1,0.3c-0.1,0.1-0.2,0.1-0.3,0.1H88.3z"/>
					<path class="st0" d="M92.9,55.3v0.4l0,0c0.2,0,0.3,0,0.4,0h1.2c0,0.1,0,0.2,0,0.3c-0.1,0.2-0.2,0.4-0.5,0.4h-1.4
						c-0.1,0-0.2-0.1-0.4-0.1c-0.1-0.1-0.1-0.2-0.1-0.4v-3l0.1-0.1h2.2c0,0.1,0,0.2,0,0.3s0,0.3-0.1,0.4h-1.4v0.4v0.4
						c0.1,0,0.2,0,0.4,0h0.8c0,0.1,0.1,0.2,0.1,0.3s0,0.2-0.1,0.3H93L92.9,55.3L92.9,55.3z"/>
					<path class="st0" d="M99,56.1c-0.1,0.1-0.2,0.1-0.4,0.2c-0.2,0.1-0.4,0.1-0.6,0.1c-0.1,0-0.2,0-0.4,0c-0.2,0-0.4,0-0.8,0
						l-0.1-0.1v-3.4l0.1-0.1c0.2,0,0.4,0,0.6,0c0.2,0,0.4,0,0.7,0c0.3,0,0.6,0.1,0.8,0.1c0.2,0.1,0.4,0.3,0.4,0.4
						c0.1,0.2,0.2,0.4,0.2,0.6c0.1,0.2,0.1,0.4,0.1,0.7c0,0.3-0.1,0.6-0.1,0.9C99.4,55.8,99.3,55.9,99,56.1z M98.1,55.8
						c0.4,0,0.7-0.4,0.7-1.1c0-0.8-0.2-1.1-0.7-1.1c-0.1,0-0.2,0-0.3,0c-0.1,0-0.2,0-0.2,0v2.2c0.1,0,0.1,0,0.2,0
						C97.9,55.8,98,55.8,98.1,55.8z"/>
					<path class="st0" d="M102.8,55.3v0.4l0,0c0.2,0,0.3,0,0.4,0h1.2c0,0.1,0,0.2,0,0.3c-0.1,0.2-0.2,0.4-0.5,0.4h-1.4
						c-0.1,0-0.2-0.1-0.4-0.1c-0.1-0.1-0.1-0.2-0.1-0.4v-3l0.1-0.1h2.2c0,0.1,0,0.2,0,0.3s0,0.3-0.1,0.4h-1.4v0.4v0.4
						c0.1,0,0.2,0,0.4,0h0.8c0,0.1,0.1,0.2,0.1,0.3s0,0.2-0.1,0.3h-1.1L102.8,55.3L102.8,55.3z"/>
					<path class="st0" d="M109.2,53.9c0,0.1,0,0.2-0.1,0.3c-0.1,0.1-0.1,0.2-0.1,0.2c-0.1,0.1-0.1,0.1-0.2,0.2
						c-0.1,0.1-0.2,0.1-0.2,0.1c0.2,0.1,0.3,0.3,0.4,0.5l0.1,0.4c0.1,0.2,0.1,0.3,0.2,0.4c-0.1,0.1-0.1,0.1-0.2,0.2
						c-0.1,0.1-0.2,0.1-0.3,0.1s-0.2-0.1-0.3-0.1c-0.1-0.1-0.1-0.2-0.2-0.4l-0.2-0.6c-0.1-0.1-0.1-0.2-0.1-0.3
						c-0.1-0.1-0.2-0.1-0.3-0.1h-0.2v1.4c-0.1,0-0.2,0-0.4,0c-0.2,0-0.3,0-0.4,0v-3.5l0.1-0.1c0.3,0,0.6,0,0.8,0c0.2,0,0.4,0,0.5,0
						c0.2,0,0.4,0,0.5,0.1c0.1,0.1,0.3,0.1,0.4,0.2c0.1,0.1,0.2,0.2,0.2,0.4C109.1,53.6,109.2,53.8,109.2,53.9z M107.5,53.4v1
						c0.1,0,0.3,0,0.4,0c0.1,0,0.2,0,0.2-0.1c0.1-0.1,0.1-0.1,0.1-0.1c0.1-0.1,0.1-0.2,0.1-0.3c0-0.3-0.2-0.5-0.5-0.5
						c-0.1,0-0.1,0-0.2,0C107.6,53.4,107.5,53.4,107.5,53.4z"/>
					<path class="st0" d="M112.5,55.6c-0.1,0-0.2,0-0.2,0l-0.2,0.8c-0.1,0-0.2,0-0.4,0c-0.2,0-0.3,0-0.4-0.1v-0.1l1.1-3.4
						c0.1,0,0.3,0,0.4,0c0.2,0,0.4,0,0.5,0.1l1.1,3.4c-0.1,0.1-0.2,0.1-0.4,0.1c-0.2,0-0.3,0-0.4-0.1c-0.1-0.1-0.1-0.2-0.2-0.4
						l-0.1-0.3c-0.1,0-0.1,0-0.2,0L112.5,55.6L112.5,55.6L112.5,55.6z M112.5,55h0.2h0.4h0.1c0.1,0,0.1,0,0.1,0l-0.1-0.3
						c-0.1-0.3-0.2-0.6-0.3-1.1l0,0c0,0.1-0.1,0.5-0.2,1L112.5,55z"/>
					<path class="st0" d="M118,55.7h0.9c0,0.1,0,0.2,0,0.4c0,0.1-0.1,0.2-0.2,0.3c-0.1,0.1-0.2,0.1-0.4,0.1h-1.2
						c-0.1,0-0.2-0.1-0.4-0.1c-0.1-0.1-0.1-0.2-0.1-0.4v-3.1l0.1-0.1h0.3c0.3,0,0.5,0.2,0.5,0.5v2.4C117.6,55.7,117.8,55.7,118,55.7
						z"/>
				</g>
			</g>
		</g>
		<g>
			<rect x="1.7" y="25.9" class="st1" width="43.4" height="30.4"/>
			<path class="st2" d="M31.9,42.8c0,0.6-0.4,1.3-0.9,1.6c-0.6,0.3-1.3,0.4-1.9,0.4c-7.4,0.5-14.8,2.8-21.1,6.7
				c-0.5,0.3-1.1,0.6-1.7,0.3c-0.6-0.3-0.6-1.4-0.6-2c-0.1-2.5,1.3-4.9,2.9-6.6c2-2.1,4.6-3.7,7.4-4.7c0.4-0.1,0.8-0.3,1.2-0.4
				c3.3-0.9,7-1.1,10.2,0.2c1.3,0.5,2.5,1.3,3.4,2.3c0.4,0.5,0.9,1.1,1.1,1.7C31.9,42.5,31.9,42.6,31.9,42.8z"/>
			<path class="st3" d="M30.9,41.2c-11.8,2.2-20.6,7-25.3,10.2C3,53.1,1.4,54,1.4,54v2.1c0,0,1.5-0.8,4-2.3c5-2.9,15-7.6,29.5-8.4
				c3.1-0.2,6.8-0.2,10.4,0v-5.4C40.2,39.9,35.1,40.4,30.9,41.2z"/>
			<polygon class="st1" points="1.2,25.9 1.4,42.5 18.8,28.7 45.1,40.2 45.1,25.9 			"/>
			<g>
				<path class="st4" d="M1.7,54.6c-0.1,0-0.1,0-0.1,0c-0.1-0.1-0.2-0.2-0.2-0.3V42.5c0-0.1,0.1-0.2,0.1-0.2l17.1-13.8
					c0.1-0.1,0.1-0.1,0.2-0.1s0.1,0,0.1,0l25.9,11.4c0.1,0.1,0.2,0.2,0.2,0.4c-0.1,0.1-0.2,0.3-0.3,0.3l0,0c-0.6,0-1.2,0-1.9,0
					c-4,0-8,0.4-11.9,1.1h-0.1c-0.1,0-0.1,0-0.2-0.1c-2.7-2.1-5.9-3.1-9.4-3.1c-7.7,0-14.1,5.5-15.4,13.1c0,0.1-0.1,0.2-0.1,0.3
					C3.3,53.3,2,54.5,2,54.5C1.8,54.6,1.8,54.6,1.7,54.6z"/>
			</g>
			<path class="st3" d="M30.9,41.2c-11.8,2.2-20.6,7-25.3,10.2C3,53.1,1.4,54,1.4,54v2.1c0,0,1.5-0.8,4-2.3c5-2.9,15-7.6,29.5-8.4
				c3.1-0.2,6.8-0.2,10.4,0v-5.4C40.2,39.9,35.1,40.4,30.9,41.2z"/>
		</g>
	</g>
</g>
<g>
</g>
<g>
</g>
<g>
</g>
<g>
</g>
<g>
</g>
<g>
</g>
<g>
</g>
<g>
</g>
<g>
</g>
<g>
</g>
<g>
</g>
<g>
</g>
<g>
</g>
<g>
</g>
<g>
</g>
</svg>
