<?xml version="1.0" encoding="utf-8"?>
<!-- Generator: Adobe Illustrator 27.2.0, SVG Export Plug-In . SVG Version: 6.00 Build 0)  -->
<svg version="1.1" id="Layer_1" xmlns="http://www.w3.org/2000/svg" xmlns:xlink="http://www.w3.org/1999/xlink" x="0px" y="0px"
	 viewBox="0 0 800 258.42" style="enable-background:new 0 0 800 258.42;" xml:space="preserve">
<g id="logo-campus-virtual">
	<g>
		<path d="M29.9,219.09l-4.4,7.7L29.9,219.09z M29.9,113.09v106l0,0l-4.4,7.7v5.5h192.9v-5.5l-4.4-8l0,0v-105.9h-5.9v-42.2h-3.9
			v-12.6c1.9-1.8,2.8-4.4,2.7-7c0-6-4.9-10.9-10.9-10.9s-10.9,4.9-10.9,10.9c0,2.7,1.1,5.3,3,7.2v12.4h-4v42.4h-23.4v-37.2l1.1-2.5
			h-79l1.1,2.5v30.8l0,0v6.4H59.4v-42.5h-3.8v-12.6c1.9-1.8,3-4.3,2.9-7c0-6-4.9-10.9-10.9-10.9s-10.9,4.9-10.9,10.9
			c0,2.7,1.1,5.3,2.9,7.2v12.5H36v42.5h-6.1V113.09z M23.3,116.59l-4.1-3.6H19v-6.3h10.9v-36.2l0,0v-6.4h3.5v-2.8
			c-1.6-3-2.6-6.4-2.8-9.8c0-8.5,6-15.7,14.3-17.3v-1.7c-0.7-0.8-1.1-1.7-1.1-2.8c0-1.3,0.6-2.5,1.6-3.2l1.2-11.8
			c-0.1-0.2-0.1-0.4,0-0.6c0-0.7,0.6-1.3,1.3-1.3s1.3,0.6,1.4,1.3c0.1,0.2,0.1,0.4,0,0.6l0.8,11.8c1.1,0.7,1.8,1.9,1.8,3.3
			c0,1.1-0.4,2.1-1.2,2.8v1.7c8.4,1.4,14.6,8.7,14.6,17.3c-0.2,3.5-1.2,7-2.9,10.1v2.8h3.7v6.4l0,0v36.2h11.8v-30.1l-3.5-3.3v-5
			l3.5-1.7l0,0l2-3.8h4.9l3.7,3.8h18.3l3.3-3.5h4.9l3.4,3.5h8l3.3-3.5h4.9l3.3,3.5h19.2l3.6-3.8h4.4l1.8,3.7l3.7,1.7v4.9l-3.5,3.3
			v29.9h11v-42.4h3.8v-3c-1.6-3-2.5-6.4-2.7-9.8c0.1-8.3,6-15.3,14.1-17v-1.7c-1.6-1.6-1.5-4.1,0-5.6c0.2-0.2,0.4-0.4,0.6-0.5
			l1.3-11.9c0-0.2,0-0.4,0-0.6c0.1-0.7,0.7-1.2,1.4-1.2s1.3,0.6,1.3,1.3c0,0.2,0,0.4,0,0.6l1,11.7c1,0.7,1.6,1.9,1.6,3.2
			c0,1-0.4,2.1-1.2,2.8v1.7c8.3,1.6,14.3,8.8,14.3,17.3c-0.2,3.5-1.2,7-2.9,10.1v2.9h3.9v42H225v6.4h-0.5l-4,3.6v35.8h4.3v6
			l-4.3,3.7v24.6h4.3v6l-4.3,3.7v22.4l0,0l4.3,4v9.6l0,0v6.4H19v-6.5l0,0v-9.6l4.3-3.7l0,0v-22.5l-4.3-3.7v-6h4.3v-24.6l-4.3-3.7v-6
			h4.3V116.59z"/>
	</g>
	<g>
		<path d="M283.6,153.19v84.2h13.8v-37.1h38.3v-12.4h-38.3v-22.5h43.7v-12.3L283.6,153.19L283.6,153.19z M353,153.19v84.2h14.1v-84
			L353,153.19z M422.2,151.19c-25,0-40.4,16.6-40.4,44.4s15.4,44.4,40.4,44.4s40.4-16.7,40.4-44.4
			C462.6,167.99,447.1,151.19,422.2,151.19z M422.2,163.39c16.2,0,26.2,11.6,26.2,32.2s-10,32.2-26.2,32.2s-26.2-11.8-26.2-32.2
			C395.9,175.09,406,163.39,422.2,163.39z M548.1,179.79c-1.5-17.5-14.4-28.5-34.9-28.5c-24.9,0-39.8,16.4-39.8,44.4
			s14.7,44.4,38.8,44.4c21,0,35.6-13.5,36.3-32.6h-13.7c-0.6,11.6-10.4,20.5-22,19.9c0,0,0,0-0.1,0c-15.3,0-25.1-12-25.1-32.3
			s9.2-31.5,25.3-31.5c12.1,0,19.8,5.8,21.3,15.7L548.1,179.79z M562.1,153.49v83.9h14v-34.7h21c11.1,0,12.9,4.7,13.3,13.5l0.5,10.1
			c-0.1,3.8,0.6,7.6,2.1,11.1h15.7v-2.3c-3.2-1.7-3.3-4.8-3.5-9.7l-0.7-12.1c-0.5-9.1-2.1-14.3-10.1-16.8
			c7.8-3.2,12.7-11.1,12.1-19.6c1-12-7.9-22.5-19.9-23.5c-1.3-0.1-2.6-0.1-3.8,0c-0.5,0-2,0-4.5,0L562.1,153.49z M575.9,165.39h20.4
			c10.5,0,16.2,3,16.2,12.8c0,9.7-5.2,13.1-16.5,13.1h-20v-26.2v0.3L575.9,165.39L575.9,165.39z M642,153.49v52.9
			c0,22,11.3,33.4,33.3,33.4c21,0,33.4-11.7,33.4-33.4v-53.2h-14.1v52.5c0,14.3-6,21.3-19.3,21.3s-19.2-7-19.2-21.3v-52.5
			L642,153.49z M722.2,153.49v11.9h46.3l-49.1,60.3v11.7h65.3v-12.4h-48.2l48.5-59.6v-12.3L722.2,153.49z"/>
	</g>
</g>
</svg>
