<?xml version="1.0" encoding="utf-8"?>
<!-- Generator: Adobe Illustrator 27.2.0, SVG Export Plug-In . SVG Version: 6.00 Build 0)  -->
<svg version="1.1" id="Layer_1" xmlns="http://www.w3.org/2000/svg" xmlns:xlink="http://www.w3.org/1999/xlink" x="0px" y="0px"
	 viewBox="0 0 631 202" style="enable-background:new 0 0 631 202;" xml:space="preserve">
<style type="text/css">
	.st0{fill:none;}
	.st1{fill:#292929;}
</style>
<g>
	<g>
		<g>
			<rect x="10.3" y="76.5" class="st0" width="225.3" height="17.2"/>
			<path d="M25.2,92.6V81.4l-4.6,8.5h-1.5l-4.6-8.5v11.1H12V76.9h2.6l5.2,9.6l5.2-9.6h2.6v15.6H25.2z"/>
			<path d="M36.4,92.6V76.9h2.5v15.6H36.4z"/>
			<path d="M50,81.5v11.1h-2.5V76.9h2l8.9,11.3V77H61v15.6h-2.2L50,81.5z"/>
			<path d="M69.7,92.6V76.9h2.5v15.6H69.7z"/>
			<path d="M90.1,80.6c-0.3-0.4-0.9-0.7-1.7-1.1c-0.8-0.3-1.6-0.5-2.5-0.5c-1,0-1.8,0.2-2.3,0.6c-0.5,0.4-0.8,0.9-0.8,1.6
				c0,0.2,0,0.4,0.1,0.6c0.1,0.2,0.1,0.3,0.2,0.5c0.1,0.1,0.2,0.3,0.4,0.4c0.2,0.1,0.4,0.2,0.5,0.3c0.2,0.1,0.4,0.2,0.7,0.3
				c0.3,0.1,0.6,0.2,0.9,0.2c0.3,0.1,0.6,0.2,1,0.3c0.7,0.2,1.3,0.3,1.8,0.5c0.5,0.2,1,0.4,1.4,0.6c0.5,0.2,0.8,0.5,1.1,0.8
				c0.3,0.3,0.5,0.7,0.7,1.1c0.2,0.4,0.2,0.9,0.2,1.5c0,0.6-0.1,1.2-0.3,1.7c-0.2,0.5-0.5,0.9-0.8,1.3c-0.3,0.3-0.8,0.6-1.2,0.9
				c-0.5,0.2-1,0.4-1.6,0.5c-0.6,0.1-1.2,0.2-1.8,0.2c-1.2,0-2.3-0.2-3.5-0.5c-1.1-0.4-2.1-0.9-3-1.6l1.1-2.1
				c0.5,0.5,1.2,0.9,2.2,1.3c1,0.4,2.1,0.7,3.2,0.7c1,0,1.7-0.2,2.3-0.5c0.5-0.3,0.8-0.8,0.8-1.5c0-0.3,0-0.5-0.1-0.7
				c-0.1-0.2-0.2-0.4-0.4-0.6c-0.2-0.2-0.4-0.3-0.6-0.4c-0.2-0.1-0.5-0.2-0.9-0.4c-0.4-0.1-0.7-0.2-1-0.3c-0.3-0.1-0.7-0.2-1.3-0.3
				c-0.8-0.2-1.5-0.4-2-0.7c-0.5-0.2-1-0.5-1.4-0.8c-0.4-0.3-0.7-0.7-0.9-1.1c-0.2-0.4-0.3-1-0.3-1.6c0-0.8,0.1-1.4,0.4-2
				s0.7-1.1,1.2-1.5c0.5-0.4,1.1-0.7,1.8-0.9c0.7-0.2,1.4-0.3,2.2-0.3c1.9,0,3.7,0.6,5.3,1.8L90.1,80.6z"/>
			<path d="M111,79.1h-5.2v13.5h-2.5V79.1h-5.2v-2.2H111V79.1z"/>
			<path d="M129,90.4v2.2h-10.7V76.9h10.5v2.2h-8.1v4.4h7v2.1h-7v4.8H129z M124.6,75.3l-1.6-0.5l1.3-2.4h2.3L124.6,75.3z"/>
			<path d="M136.7,92.6V76.9h6.8c0.7,0,1.3,0.1,1.9,0.4c0.6,0.3,1.1,0.7,1.5,1.2c0.4,0.5,0.7,1,1,1.6c0.2,0.6,0.4,1.2,0.4,1.9
				c0,1.1-0.3,2-0.8,2.9c-0.6,0.9-1.3,1.4-2.2,1.7l3.7,5.9h-2.8l-3.4-5.4h-3.6v5.4H136.7z M139.2,84.9h4.3c0.7,0,1.2-0.3,1.7-0.9
				c0.4-0.6,0.7-1.3,0.7-2.1c0-0.8-0.3-1.5-0.8-2c-0.5-0.6-1.1-0.9-1.7-0.9h-4.2V84.9z"/>
			<path d="M156.5,92.6V76.9h2.5v15.6H156.5z"/>
			<path d="M166.7,84.7c0-1,0.2-2,0.6-3c0.4-1,0.9-1.8,1.6-2.5s1.5-1.3,2.4-1.7c0.9-0.4,1.9-0.7,3-0.7c1.1,0,2.1,0.2,3,0.7
				c0.9,0.5,1.7,1.1,2.4,1.8c0.6,0.7,1.1,1.6,1.5,2.5s0.5,1.9,0.5,2.9c0,1-0.2,2-0.6,3c-0.4,1-0.9,1.8-1.6,2.5
				c-0.7,0.7-1.4,1.3-2.4,1.7c-0.9,0.4-1.9,0.7-3,0.7c-0.9,0-1.7-0.1-2.5-0.4c-0.8-0.3-1.5-0.7-2.1-1.2c-0.6-0.5-1.1-1.1-1.6-1.8
				c-0.4-0.7-0.8-1.4-1-2.2C166.8,86.3,166.7,85.5,166.7,84.7z M174.2,90.4c0.8,0,1.5-0.2,2.1-0.5c0.6-0.3,1.2-0.8,1.6-1.3
				s0.7-1.1,1-1.8c0.2-0.7,0.3-1.4,0.3-2.1c0-0.7-0.1-1.5-0.4-2.1c-0.2-0.7-0.6-1.3-1-1.8s-0.9-0.9-1.6-1.3s-1.3-0.5-2-0.5
				c-0.8,0-1.5,0.2-2.1,0.5c-0.6,0.3-1.2,0.8-1.6,1.3c-0.4,0.5-0.7,1.1-1,1.8s-0.3,1.4-0.3,2.1c0,1,0.2,1.9,0.6,2.8s1,1.6,1.8,2.1
				S173.2,90.4,174.2,90.4z"/>
			<path d="M200.1,92.6V76.9h5.6c1.2,0,2.3,0.2,3.3,0.6c1,0.4,1.8,1,2.4,1.7c0.6,0.7,1.1,1.5,1.4,2.5c0.3,0.9,0.5,1.9,0.5,3
				c0,2.4-0.7,4.3-2.1,5.7c-1.4,1.4-3.2,2.1-5.5,2.1H200.1z M205.6,79.1h-3.1v11.3h3.1c1.1,0,2-0.2,2.8-0.7c0.8-0.5,1.4-1.2,1.7-2
				c0.4-0.8,0.6-1.8,0.6-2.9c0-1.7-0.5-3-1.4-4.1S207.2,79.1,205.6,79.1z"/>
			<path d="M225,76.9h2.3l6.1,15.6h-2.6l-1.6-4.2h-6l-1.6,4.2h-2.6L225,76.9z M228.7,86.5l-2.5-6.9l-2.6,6.9H228.7z"/>
		</g>
		<g>
			<rect x="0.7" y="109.4" class="st0" width="234.9" height="17.2"/>
			<path d="M153.1,115c-0.1,0-0.2-0.1-0.3-0.2s-0.3-0.2-0.7-0.3c-0.3-0.2-0.7-0.3-1-0.4c-0.3-0.1-0.7-0.2-1.1-0.3
				c-0.4-0.1-0.8-0.2-1.2-0.2c-0.8,0-1.3,0.3-1.3,0.8c0,0.1,0,0.2,0.1,0.3c0,0.1,0.1,0.2,0.2,0.3c0.1,0.1,0.2,0.1,0.3,0.2
				s0.2,0.1,0.4,0.2s0.4,0.1,0.5,0.2c0.1,0,0.4,0.1,0.7,0.2s0.5,0.2,0.7,0.2c0.6,0.2,1.2,0.4,1.6,0.6c0.4,0.2,0.9,0.4,1.3,0.7
				c0.4,0.3,0.7,0.6,1,0.9c0.3,0.3,0.4,0.7,0.6,1.2c0.1,0.5,0.2,1,0.2,1.5c0,0.7-0.1,1.4-0.3,2c-0.2,0.6-0.5,1.1-0.9,1.4
				s-0.8,0.7-1.3,0.9c-0.5,0.2-1.1,0.4-1.6,0.5c-0.5,0.1-1.1,0.2-1.7,0.2c-1.1,0-2.3-0.2-3.5-0.5c-1.2-0.3-2.3-0.8-3.3-1.3l1.8-3.8
				c0.1,0.1,0.2,0.1,0.3,0.2s0.4,0.2,0.8,0.4c0.4,0.2,0.8,0.4,1.2,0.5c0.4,0.2,0.8,0.3,1.4,0.4c0.5,0.1,1,0.2,1.4,0.2
				c0.8,0,1.2-0.2,1.2-0.7c0-0.2-0.1-0.3-0.2-0.5c-0.1-0.1-0.3-0.3-0.5-0.4c-0.3-0.1-0.5-0.2-0.7-0.3c-0.2-0.1-0.6-0.2-1-0.3
				c-0.4-0.1-0.8-0.2-1.1-0.3c-1.4-0.5-2.4-1-3-1.7c-0.6-0.7-0.9-1.6-0.9-2.7c0-0.8,0.2-1.6,0.5-2.3c0.3-0.7,0.7-1.2,1.3-1.7
				c0.5-0.4,1.2-0.8,1.9-1c0.7-0.2,1.4-0.3,2.2-0.3c1.7,0,3.6,0.6,5.9,1.7L153.1,115z"/>
			<path d="M165.6,109.9h4.8l5,15.6H171l-0.9-3.1h-4.2l-0.9,3.1h-4.4L165.6,109.9z M169.4,119.6l-1.4-5.5l-1.5,5.5H169.4z"/>
			<path d="M188.1,125.6c-1,0-1.9-0.1-2.7-0.4s-1.5-0.6-2-1.1c-0.5-0.5-1-1-1.4-1.7c-0.4-0.7-0.6-1.4-0.8-2.1s-0.2-1.5-0.2-2.4v-8
				h4.3v8c0,0.5,0.1,1,0.2,1.5s0.3,0.9,0.5,1.2c0.2,0.4,0.5,0.7,0.9,0.9c0.4,0.2,0.8,0.3,1.3,0.3c0.5,0,0.9-0.1,1.3-0.3
				s0.7-0.5,0.9-0.9c0.2-0.4,0.4-0.8,0.5-1.2c0.1-0.5,0.2-0.9,0.2-1.5v-8h4.3v8c0,1.1-0.1,2.1-0.4,3.1c-0.3,0.9-0.7,1.7-1.3,2.4
				c-0.6,0.7-1.3,1.3-2.2,1.6C190.4,125.4,189.3,125.6,188.1,125.6z M189.4,109.2l-2.6-0.7l1.1-3.1h3.7L189.4,109.2z"/>
			<path d="M202.8,125.5v-15.6h6c1.3,0,2.4,0.2,3.4,0.6c1,0.4,1.8,1,2.5,1.7c0.6,0.7,1.1,1.5,1.5,2.5c0.3,0.9,0.5,1.9,0.5,3
				c0,2.4-0.7,4.3-2.2,5.7s-3.3,2.1-5.7,2.1H202.8z M208.9,113.6h-1.7v8.2h1.7c1.1,0,2-0.4,2.6-1.1s0.9-1.7,0.9-3
				c0-1.2-0.3-2.2-0.9-2.9C210.8,114,210,113.6,208.9,113.6z"/>
			<path d="M235,121.8v3.7h-11.1v-15.6h10.9v3.7h-6.7v2.2h5.7v3.5h-5.7v2.5H235z"/>
		</g>
	</g>
	<g>
		<path class="st1" d="M327.1,166c0,0.5,0,0.9-0.1,1.3s-0.2,0.8-0.3,1.2c-0.2,0.4-0.4,0.7-0.6,1c-0.2,0.3-0.6,0.5-1,0.7
			c-0.4,0.2-0.8,0.2-1.3,0.2c-0.5,0-0.9-0.1-1.3-0.2c-0.4-0.2-0.7-0.4-1-0.6c-0.2-0.3-0.5-0.6-0.6-1c-0.2-0.4-0.3-0.8-0.3-1.2
			c-0.1-0.4-0.1-0.9-0.1-1.3v-6.2h-1.9v6.2c0,0.7,0.1,1.3,0.2,1.9c0.1,0.6,0.3,1.1,0.6,1.7c0.3,0.5,0.6,1,1,1.4
			c0.4,0.4,0.9,0.7,1.5,0.9c0.6,0.2,1.3,0.3,2,0.3c0.9,0,1.7-0.2,2.4-0.5c0.7-0.3,1.2-0.8,1.7-1.3c0.4-0.6,0.7-1.2,0.9-1.9
			c0.2-0.7,0.3-1.5,0.3-2.4v-6.2h-2V166z M343.6,168.7l-6.9-8.9h-1.6v12.3h1.9v-8.7l6.9,8.7h1.7v-12.2h-1.9V168.7z M351.8,172.1h1.9
			v-12.3h-1.9V172.1z M363.4,159.8l-4.8,12.3h2.1l1.3-3.3h4.7l1.3,3.3h2l-4.8-12.3H363.4z M362.3,167.3l2-5.4l2,5.4H362.3z
			 M362.4,158.2c0-0.1,0.1-0.2,0.1-0.3c0.1-0.1,0.1-0.2,0.3-0.3c0.1-0.1,0.3-0.1,0.5-0.1c0.2,0,0.4,0.1,0.6,0.2
			c0.2,0.1,0.5,0.2,0.7,0.4c0.3,0.1,0.6,0.2,0.9,0.2c0.3,0,0.5-0.1,0.8-0.2c0.2-0.1,0.4-0.3,0.6-0.4c0.1-0.2,0.3-0.4,0.4-0.5
			c0.1-0.2,0.2-0.4,0.2-0.5c0-0.1,0.1-0.2,0.1-0.3h-1.1c0,0,0,0.1,0,0.1c0,0.1,0,0.1-0.1,0.2c0,0.1-0.1,0.2-0.2,0.2
			c-0.1,0.1-0.2,0.1-0.3,0.2c-0.1,0.1-0.3,0.1-0.4,0.1c-0.2,0-0.5-0.1-0.7-0.2c-0.2-0.1-0.5-0.3-0.7-0.4c-0.3-0.1-0.5-0.2-0.8-0.2
			c-0.3,0-0.5,0.1-0.7,0.2c-0.2,0.1-0.4,0.3-0.5,0.4c-0.1,0.2-0.2,0.3-0.3,0.5c-0.1,0.2-0.2,0.4-0.2,0.5c0,0.1-0.1,0.3-0.1,0.3h1.1
			C362.4,158.3,362.4,158.3,362.4,158.2 M383.9,161.7c-0.5-0.6-1.1-1.1-1.9-1.4c-0.7-0.4-1.5-0.5-2.4-0.5c-0.8,0-1.6,0.2-2.3,0.5
			c-0.7,0.3-1.4,0.8-1.9,1.4c-0.5,0.6-0.9,1.2-1.2,2c-0.3,0.8-0.5,1.5-0.5,2.3c0,0.6,0.1,1.2,0.3,1.9c0.2,0.6,0.4,1.2,0.8,1.7
			c0.3,0.5,0.8,1,1.2,1.4c0.5,0.4,1,0.7,1.6,0.9c0.6,0.2,1.3,0.3,2,0.3c0.8,0,1.6-0.2,2.3-0.5c0.7-0.3,1.4-0.8,1.9-1.4
			c0.5-0.6,0.9-1.2,1.2-2c0.3-0.8,0.5-1.5,0.5-2.3c0-0.8-0.1-1.5-0.4-2.3C384.8,162.9,384.4,162.3,383.9,161.7 M383.3,167.6
			c-0.2,0.5-0.4,1-0.7,1.4c-0.3,0.4-0.7,0.8-1.2,1c-0.5,0.3-1,0.4-1.6,0.4c-0.8,0-1.5-0.2-2.1-0.6c-0.6-0.4-1.1-1-1.4-1.7
			c-0.3-0.7-0.5-1.4-0.5-2.2c0-0.6,0.1-1.1,0.3-1.6c0.2-0.5,0.4-1,0.8-1.4c0.3-0.4,0.7-0.8,1.2-1c0.5-0.3,1.1-0.4,1.6-0.4
			c0.6,0,1.1,0.1,1.6,0.4c0.5,0.2,0.9,0.6,1.2,1c0.3,0.4,0.6,0.9,0.8,1.4c0.2,0.5,0.3,1.1,0.3,1.7
			C383.5,166.5,383.5,167,383.3,167.6 M400.6,166.6h5.5V165h-5.5v-3.5h6.3v-1.7h-8.3v12.3h8.4v-1.7h-6.5V166.6z M428.7,166.1
			c0.4-0.7,0.7-1.4,0.7-2.3c0-0.5-0.1-1-0.3-1.5c-0.2-0.5-0.4-0.9-0.8-1.3c-0.3-0.4-0.7-0.7-1.2-0.9c-0.5-0.2-1-0.3-1.5-0.3h-5.3
			v12.3h1.9v-4.3h2.9l2.7,4.3h2.2l-2.9-4.7C427.7,167.2,428.3,166.7,428.7,166.1 M425.5,166.1h-3.4v-4.6h3.3c0.5,0,1,0.2,1.4,0.7
			c0.4,0.4,0.6,1,0.6,1.6c0,0.6-0.2,1.2-0.5,1.6C426.5,165.9,426.1,166.1,425.5,166.1 M437,166.6h5.5V165H437v-3.5h6.3v-1.7h-8.3
			v12.3h8.4v-1.7H437V166.6z M456.2,169.6c-0.4,0.3-0.8,0.5-1.2,0.7c-0.4,0.1-0.8,0.2-1.2,0.2c-0.7,0-1.4-0.2-2-0.6
			c-0.6-0.4-1.1-1-1.4-1.7c-0.3-0.7-0.5-1.4-0.5-2.2c0-0.4,0.1-0.9,0.2-1.3c0.1-0.4,0.3-0.8,0.5-1.2c0.2-0.4,0.5-0.7,0.8-1
			c0.3-0.3,0.7-0.5,1.1-0.7c0.4-0.2,0.9-0.3,1.4-0.3c0.3,0,0.6,0,0.9,0.1c0.3,0.1,0.6,0.2,0.9,0.3c0.3,0.1,0.6,0.3,0.8,0.6
			c0.2,0.3,0.5,0.6,0.6,0.9l1.5-1c-0.4-0.8-1-1.5-1.8-1.9c-0.8-0.5-1.8-0.7-2.8-0.7c-0.7,0-1.4,0.1-2,0.4c-0.6,0.2-1.2,0.5-1.7,0.9
			c-0.5,0.4-0.9,0.9-1.2,1.4c-0.3,0.5-0.6,1.1-0.8,1.7c-0.2,0.6-0.3,1.2-0.3,1.8c0,0.8,0.1,1.5,0.4,2.3c0.3,0.8,0.7,1.4,1.2,2
			c0.5,0.6,1.1,1.1,1.9,1.4c0.7,0.4,1.5,0.5,2.4,0.5c0.7,0,1.3-0.1,2-0.3c0.7-0.2,1.3-0.5,1.8-1c0.5-0.4,0.9-1,1.2-1.5l-1.6-0.9
			C456.9,168.9,456.6,169.3,456.2,169.6 M473.2,161.7c-0.5-0.6-1.1-1.1-1.9-1.4c-0.7-0.4-1.5-0.5-2.4-0.5c-0.8,0-1.6,0.2-2.3,0.5
			c-0.7,0.3-1.4,0.8-1.9,1.4c-0.5,0.6-0.9,1.2-1.2,2c-0.3,0.8-0.5,1.5-0.5,2.3c0,0.6,0.1,1.2,0.3,1.9c0.2,0.6,0.4,1.2,0.8,1.7
			c0.3,0.5,0.8,1,1.2,1.4c0.5,0.4,1,0.7,1.6,0.9c0.6,0.2,1.3,0.3,2,0.3c0.8,0,1.6-0.2,2.3-0.5c0.7-0.3,1.4-0.8,1.9-1.4
			c0.5-0.6,0.9-1.2,1.2-2c0.3-0.8,0.5-1.5,0.5-2.3c0-0.8-0.1-1.5-0.4-2.3C474.1,162.9,473.7,162.3,473.2,161.7 M472.5,167.6
			c-0.2,0.5-0.4,1-0.7,1.4c-0.3,0.4-0.7,0.8-1.2,1c-0.5,0.3-1,0.4-1.6,0.4c-0.8,0-1.5-0.2-2.1-0.6c-0.6-0.4-1.1-1-1.4-1.7
			c-0.3-0.7-0.5-1.4-0.5-2.2c0-0.6,0.1-1.1,0.3-1.6c0.2-0.5,0.4-1,0.8-1.4c0.3-0.4,0.7-0.8,1.2-1c0.5-0.3,1.1-0.4,1.6-0.4
			c0.6,0,1.1,0.1,1.6,0.4c0.5,0.2,0.9,0.6,1.2,1c0.3,0.4,0.6,0.9,0.8,1.4c0.2,0.5,0.3,1.1,0.3,1.7
			C472.8,166.5,472.7,167,472.5,167.6 M488.8,168.7l-6.9-8.9h-1.6v12.3h1.9v-8.7l6.9,8.7h1.7v-12.2h-1.9V168.7z M504.8,166.6
			c-0.2-0.2-0.5-0.5-0.9-0.6c-0.4-0.2-0.7-0.4-1.1-0.5c-0.4-0.1-0.8-0.3-1.4-0.4c-0.3-0.1-0.6-0.2-0.8-0.2c-0.2-0.1-0.4-0.1-0.7-0.2
			c-0.2-0.1-0.4-0.1-0.6-0.2c-0.1-0.1-0.3-0.1-0.4-0.2c-0.1-0.1-0.2-0.2-0.3-0.3c-0.1-0.1-0.1-0.2-0.2-0.4c0-0.1-0.1-0.3-0.1-0.5
			c0-0.5,0.2-1,0.6-1.3c0.4-0.3,1-0.4,1.8-0.4c0.7,0,1.3,0.1,2,0.4c0.6,0.3,1.1,0.6,1.3,0.8l0.9-1.6c-1.3-0.9-2.6-1.4-4.1-1.4
			c-0.6,0-1.2,0.1-1.8,0.2c-0.5,0.2-1,0.4-1.4,0.7c-0.4,0.3-0.7,0.7-0.9,1.2c-0.2,0.5-0.3,1-0.3,1.6c0,0.5,0.1,0.9,0.2,1.2
			c0.1,0.3,0.4,0.6,0.7,0.9c0.3,0.3,0.7,0.5,1.1,0.6c0.4,0.2,1,0.3,1.6,0.5c0.4,0.1,0.7,0.2,1,0.3c0.2,0.1,0.5,0.2,0.8,0.3
			c0.3,0.1,0.5,0.2,0.7,0.3c0.2,0.1,0.3,0.2,0.5,0.3c0.2,0.1,0.3,0.3,0.3,0.4c0.1,0.2,0.1,0.3,0.1,0.5c0,0.5-0.2,0.9-0.6,1.2
			c-0.4,0.3-1,0.4-1.8,0.4c-0.8,0-1.7-0.2-2.5-0.5c-0.8-0.3-1.4-0.7-1.7-1.1l-0.9,1.7c0.7,0.5,1.5,0.9,2.4,1.2
			c0.9,0.3,1.8,0.4,2.7,0.4c0.5,0,1,0,1.4-0.1c0.4-0.1,0.8-0.2,1.2-0.4c0.4-0.2,0.7-0.4,1-0.7c0.3-0.3,0.5-0.6,0.6-1
			c0.2-0.4,0.2-0.8,0.2-1.3c0-0.4-0.1-0.8-0.2-1.2C505.2,167.2,505.1,166.9,504.8,166.6 M509.8,161.5h4.1v10.5h2v-10.5h4.1v-1.7
			h-10.1V161.5z M533.5,166.1c0.4-0.7,0.7-1.4,0.7-2.3c0-0.5-0.1-1-0.3-1.5c-0.2-0.5-0.5-0.9-0.8-1.3c-0.3-0.4-0.7-0.7-1.2-0.9
			c-0.5-0.2-1-0.3-1.5-0.3H525v12.3h1.9v-4.3h2.8l2.7,4.3h2.2l-2.9-4.7C532.5,167.2,533,166.7,533.5,166.1 M530.3,166.1h-3.4v-4.6
			h3.3c0.5,0,1,0.2,1.4,0.7c0.4,0.4,0.6,1,0.6,1.6c0,0.6-0.2,1.2-0.5,1.6C531.3,165.9,530.9,166.1,530.3,166.1 M548.3,166
			c0,0.5,0,0.9-0.1,1.3c-0.1,0.4-0.2,0.8-0.3,1.2c-0.2,0.4-0.4,0.7-0.6,1c-0.2,0.3-0.6,0.5-1,0.7c-0.4,0.2-0.8,0.2-1.3,0.2
			c-0.5,0-0.9-0.1-1.3-0.2c-0.4-0.2-0.7-0.4-1-0.6c-0.2-0.3-0.5-0.6-0.6-1c-0.2-0.4-0.3-0.8-0.3-1.2c-0.1-0.4-0.1-0.9-0.1-1.3v-6.2
			h-1.9v6.2c0,0.7,0.1,1.3,0.2,1.9c0.1,0.6,0.3,1.1,0.6,1.7c0.3,0.5,0.6,1,1,1.4c0.4,0.4,0.9,0.7,1.5,0.9c0.6,0.2,1.3,0.3,2,0.3
			c0.9,0,1.7-0.2,2.4-0.5c0.7-0.3,1.2-0.8,1.7-1.3c0.4-0.6,0.7-1.2,0.9-1.9c0.2-0.7,0.3-1.5,0.3-2.4v-6.2h-2V166z M563.8,169.6
			c-0.4,0.3-0.8,0.5-1.2,0.7c-0.4,0.1-0.8,0.2-1.2,0.2c-0.7,0-1.4-0.2-2-0.6c-0.6-0.4-1.1-1-1.4-1.7c-0.3-0.7-0.5-1.4-0.5-2.2
			c0-0.4,0.1-0.9,0.2-1.3c0.1-0.4,0.3-0.8,0.5-1.2c0.2-0.4,0.5-0.7,0.8-1c0.3-0.3,0.7-0.5,1.1-0.7c0.4-0.2,0.9-0.3,1.4-0.3
			c0.3,0,0.6,0,0.9,0.1s0.6,0.2,0.9,0.3c0.3,0.1,0.6,0.3,0.8,0.6c0.2,0.3,0.5,0.6,0.6,0.9l1.5-1c-0.4-0.8-1-1.5-1.8-1.9
			c-0.8-0.5-1.8-0.7-2.8-0.7c-0.7,0-1.4,0.1-2,0.4c-0.6,0.2-1.2,0.5-1.7,0.9c-0.5,0.4-0.9,0.9-1.2,1.4c-0.3,0.5-0.6,1.1-0.8,1.7
			c-0.2,0.6-0.3,1.2-0.3,1.8c0,0.7,0.1,1.5,0.4,2.2c0.3,0.7,0.6,1.4,1.1,2c0.5,0.6,1,1.1,1.7,1.5c0.7,0.4,1.4,0.6,2.2,0.7
			c0.6,0.4,0.9,0.8,0.9,1.3c0,0.3-0.1,0.5-0.3,0.6c-0.2,0.1-0.4,0.2-0.8,0.2c-0.4,0-0.8-0.1-1.2-0.4l-0.5,1c0.6,0.3,1.3,0.5,2,0.5
			c0.6,0,1.1-0.1,1.4-0.4c0.3-0.3,0.5-0.7,0.5-1.2c0-0.6-0.3-1.2-0.9-1.7c0.9-0.1,1.8-0.4,2.5-0.9c0.8-0.5,1.3-1.1,1.6-1.9l-1.6-0.9
			C564.5,168.9,564.2,169.3,563.8,169.6 M574.9,159.8l-4.8,12.3h2.1l1.3-3.3h4.7l1.3,3.3h2l-4.8-12.3H574.9z M573.8,167.3l2-5.4
			l2,5.4H573.8z M573.9,158.2c0-0.1,0.1-0.2,0.1-0.3c0.1-0.1,0.1-0.2,0.3-0.3c0.1-0.1,0.3-0.1,0.5-0.1c0.2,0,0.4,0.1,0.6,0.2
			c0.2,0.1,0.5,0.2,0.7,0.4c0.3,0.1,0.6,0.2,0.9,0.2c0.3,0,0.5-0.1,0.8-0.2c0.2-0.1,0.4-0.3,0.6-0.4c0.1-0.2,0.3-0.4,0.4-0.5
			s0.2-0.4,0.2-0.5c0-0.1,0.1-0.2,0.1-0.3h-1.1c0,0,0,0.1,0,0.1c0,0.1,0,0.1-0.1,0.2c0,0.1-0.1,0.2-0.2,0.2
			c-0.1,0.1-0.2,0.1-0.3,0.2c-0.1,0.1-0.3,0.1-0.4,0.1c-0.2,0-0.5-0.1-0.7-0.2c-0.2-0.1-0.5-0.3-0.7-0.4c-0.3-0.1-0.5-0.2-0.8-0.2
			c-0.3,0-0.5,0.1-0.7,0.2c-0.2,0.1-0.4,0.3-0.5,0.4c-0.1,0.2-0.2,0.3-0.3,0.5c-0.1,0.2-0.2,0.4-0.2,0.5c0,0.1-0.1,0.3-0.1,0.3h1.1
			C573.8,158.3,573.8,158.3,573.9,158.2 M596.6,163.7c-0.3-0.7-0.7-1.4-1.2-2c-0.5-0.6-1.1-1.1-1.9-1.4c-0.7-0.4-1.5-0.5-2.4-0.5
			c-0.8,0-1.6,0.2-2.3,0.5c-0.7,0.3-1.4,0.8-1.9,1.4c-0.5,0.6-0.9,1.2-1.2,2s-0.5,1.5-0.5,2.3c0,0.6,0.1,1.2,0.3,1.9
			c0.2,0.6,0.4,1.2,0.8,1.7c0.3,0.5,0.8,1,1.2,1.4c0.5,0.4,1,0.7,1.6,0.9c0.6,0.2,1.3,0.3,2,0.3c0.8,0,1.6-0.2,2.3-0.5
			c0.7-0.3,1.4-0.8,1.9-1.4c0.5-0.6,0.9-1.2,1.2-2c0.3-0.8,0.5-1.5,0.5-2.3C597,165.2,596.8,164.4,596.6,163.7 M594.7,167.6
			c-0.2,0.5-0.4,1-0.7,1.4c-0.3,0.4-0.7,0.8-1.2,1c-0.5,0.3-1,0.4-1.6,0.4c-0.8,0-1.5-0.2-2.1-0.6c-0.6-0.4-1.1-1-1.4-1.7
			c-0.3-0.7-0.5-1.4-0.5-2.2c0-0.6,0.1-1.1,0.3-1.6c0.2-0.5,0.4-1,0.8-1.4c0.3-0.4,0.7-0.8,1.2-1c0.5-0.3,1.1-0.4,1.6-0.4
			c0.6,0,1.1,0.1,1.6,0.4c0.5,0.2,0.9,0.6,1.2,1c0.3,0.4,0.6,0.9,0.8,1.4c0.2,0.5,0.3,1.1,0.3,1.7C595,166.5,594.9,167,594.7,167.6"
			/>
		<path class="st1" d="M325.3,36.2h4.2c-0.4,1-1.4,1.8-3.1,1.8c-2.4,0-4-1.7-4-4c0-2.4,1.6-4.2,3.9-4.2c1.5,0,2.7,0.7,3.4,2l3.6-2.1
			c-1.4-2.4-4.1-3.9-7-3.9c-4.5,0-8.2,3.6-8.2,8.2c0,4.6,3.6,8.1,8.2,8.1c4.3,0,7.6-3.2,7.6-8v-1.2h-8.7V36.2z M348,25.7
			c-4.6,0-8.2,3.6-8.2,8.2s3.6,8.2,8.2,8.2c4.5,0,8.1-3.6,8.1-8.2S352.5,25.7,348,25.7 M348,37.8c-2.1,0-3.7-1.7-3.7-3.9
			c0-2.2,1.6-3.9,3.7-3.9c2,0,3.6,1.7,3.6,3.9C351.6,36.1,350,37.8,348,37.8 M368.2,35.7l-3.6-9.6h-4.5l6,15.6h4.2l6.1-15.6h-4.5
			L368.2,35.7z M381.9,41.7h11.2v-3.8h-7v-2.3h4.6v-3.4h-4.6v-2.3h7v-3.8h-11.2V41.7z M412.5,31.2c0-2.9-2.3-5.1-5.4-5.1h-7.6v15.6
			h4.2v-5.4h1.8l3.1,5.4h4.7l-3.5-6C411.4,34.8,412.5,33.2,412.5,31.2 M406.7,32.8h-2.9v-2.9h2.9c1,0,1.6,0.7,1.6,1.5
			C408.3,32.1,407.7,32.8,406.7,32.8 M428.9,34.3l-6.3-8.2H419v15.6h4.2v-8.2l6.3,8.2h3.6V26.1h-4.2V34.3z M447.3,25.7
			c-4.6,0-8.2,3.6-8.2,8.2s3.6,8.2,8.2,8.2c4.5,0,8.1-3.6,8.1-8.2S451.8,25.7,447.3,25.7 M447.3,37.8c-2.1,0-3.7-1.7-3.7-3.9
			c0-2.2,1.6-3.9,3.7-3.9c2,0,3.6,1.7,3.6,3.9C450.9,36.1,449.3,37.8,447.3,37.8 M471.8,41.7h4.2V36h4.6v-3.5h-4.6v-2.6h7v-3.7
			h-11.2V41.7z M489.3,41.7h11.2v-3.8h-7v-2.3h4.6v-3.4h-4.6v-2.3h7v-3.8h-11.2V41.7z M513.4,26.1H507v15.6h6.4
			c4.8,0,8.3-3.3,8.3-7.8C521.7,29.4,518.1,26.1,513.4,26.1 M513.2,37.7h-1.9v-7.5h1.9c2.5,0,4.2,1.5,4.2,3.7
			C517.3,36.2,515.6,37.7,513.2,37.7 M527.8,41.7h11.2v-3.8h-7v-2.3h4.6v-3.4H532v-2.3h7v-3.8h-11.2V41.7z M558.4,31.2
			c0-2.9-2.3-5.1-5.4-5.1h-7.6v15.6h4.2v-5.4h1.8l3.1,5.4h4.7l-3.5-6C557.3,34.8,558.4,33.2,558.4,31.2 M552.5,32.8h-2.9v-2.9h2.9
			c1,0,1.6,0.7,1.6,1.5C554.1,32.1,553.5,32.8,552.5,32.8 M570.2,26.1l-6.5,15.6h4.4l1.1-2.7h6.2l1.1,2.7h4.4l-6.6-15.6H570.2z
			 M570.7,35.3l1.6-3.8l1.6,3.8H570.7z M590.7,37.7V26.1h-4.4v15.6h11v-4H590.7z"/>
		<path class="st1" d="M474,116.7l13.9,23.4h11.5V95.9l-25.4,0V116.7z M509.5,89.3h-8.7v50.9h8.7c14,0,25.4-11.4,25.4-25.4
			C534.9,100.7,523.5,89.3,509.5,89.3 M491.5,94.4h7.9V59.4h-7.9c-9.7,0-17.5,7.9-17.5,17.5C474,86.6,481.8,94.4,491.5,94.4
			 M352.5,61.1v46.5h30.2L352.5,61.1z M569.6,112.5h27V59.4h-27V112.5z M530.1,59.4h-29.3v28.4h29.3V59.4z M598,140.1h27V114h-27
			V140.1z M569.6,140.1h27V114h-27V140.1z M536.4,140.1h27V59.4h-27V140.1z M474,140.1h12.2L474,119.6V140.1z M340.2,75.1
			c0-8.7-7.1-15.8-15.8-15.8h-5.9v31.5h5.9C333.1,90.9,340.2,83.8,340.2,75.1 M290.1,90.9h27V59.4h-27V90.9z M290.1,140.1h27V92.3
			h-27V140.1z M327.2,92.3h-8.6v47.8h8.6c13.2,0,23.9-10.7,23.9-23.9S340.4,92.3,327.2,92.3 M397.1,129.7l-6.2,10.4h12.9v0
			L397.1,129.7z M398,128.3l7.7,11.8h2.2c0.2-8,3.4-15.5,9.2-21.2c5.8-5.7,13.4-8.8,21.5-8.8c8.1,0,15.7,3.1,21.5,8.8
			c5.7,5.6,9,13.2,9.2,21.2h3.2v-23l-33.9-57.1L398,128.3z M408.2,83.5c0-13.3-10.8-24.1-24.1-24.1h-30.9l31.3,48.2
			C397.5,107.3,408.2,96.5,408.2,83.5 M438.6,111.6c-7.7,0-15,3-20.5,8.4c-5.5,5.4-8.6,12.5-8.8,20.1h58.5
			c-0.2-7.6-3.3-14.8-8.8-20.1C453.5,114.6,446.3,111.6,438.6,111.6 M383.7,109h-31.1v31.1h36.7l7-11.8L383.7,109z"/>
	</g>
</g>
</svg>
