<?xml version="1.0" encoding="utf-8"?>
<!-- Generator: Adobe Illustrator 27.2.0, SVG Export Plug-In . SVG Version: 6.00 Build 0)  -->
<svg version="1.1" id="Layer_1" xmlns="http://www.w3.org/2000/svg" xmlns:xlink="http://www.w3.org/1999/xlink" x="0px" y="0px"
	 viewBox="0 0 631 202" style="enable-background:new 0 0 631 202;" xml:space="preserve">
<style type="text/css">
	.st0{fill:none;}
</style>
<g>
	<g>
		<g>
			<rect x="11.4" y="77.1" class="st0" width="222.2" height="17"/>
			<path d="M26.1,92.9v-11l-4.5,8.3h-1.4l-4.6-8.3v11h-2.4V77.5h2.6l5.1,9.4l5.1-9.4h2.6v15.4H26.1z"/>
			<path d="M37.2,92.9V77.5h2.4v15.4H37.2z"/>
			<path d="M50.6,82v10.9h-2.4V77.5h2l8.7,11.1V77.5h2.5v15.4h-2.1L50.6,82z"/>
			<path d="M70,92.9V77.5h2.4v15.4H70z"/>
			<path d="M90.1,81.1c-0.3-0.4-0.9-0.7-1.7-1.1c-0.8-0.3-1.6-0.5-2.5-0.5c-1,0-1.8,0.2-2.3,0.6C83.2,80.5,83,81,83,81.7
				c0,0.2,0,0.4,0.1,0.6s0.1,0.3,0.2,0.5s0.2,0.3,0.4,0.4c0.2,0.1,0.4,0.2,0.5,0.3c0.2,0.1,0.4,0.2,0.7,0.3c0.3,0.1,0.6,0.2,0.8,0.2
				c0.3,0.1,0.6,0.2,1,0.3c0.7,0.2,1.3,0.3,1.7,0.5s0.9,0.4,1.4,0.6c0.4,0.2,0.8,0.5,1.1,0.8c0.3,0.3,0.5,0.7,0.6,1.1
				c0.2,0.4,0.2,0.9,0.2,1.5c0,0.6-0.1,1.2-0.3,1.7c-0.2,0.5-0.5,0.9-0.8,1.3c-0.3,0.3-0.8,0.6-1.2,0.9c-0.5,0.2-1,0.4-1.5,0.5
				c-0.6,0.1-1.1,0.2-1.8,0.2c-1.2,0-2.3-0.2-3.4-0.5c-1.1-0.4-2.1-0.9-3-1.5l1.1-2.1c0.4,0.5,1.2,0.9,2.2,1.3s2,0.6,3.1,0.6
				c1,0,1.7-0.2,2.2-0.5c0.5-0.3,0.8-0.8,0.8-1.5c0-0.3,0-0.5-0.1-0.7c-0.1-0.2-0.2-0.4-0.4-0.6s-0.4-0.3-0.6-0.4s-0.5-0.2-0.9-0.4
				c-0.4-0.1-0.7-0.2-1-0.3s-0.7-0.2-1.2-0.3c-0.8-0.2-1.5-0.4-2-0.6c-0.5-0.2-1-0.5-1.4-0.8c-0.4-0.3-0.7-0.7-0.9-1.1
				c-0.2-0.4-0.3-0.9-0.3-1.5c0-0.7,0.1-1.4,0.4-2c0.3-0.6,0.7-1.1,1.2-1.5c0.5-0.4,1.1-0.7,1.8-0.9c0.7-0.2,1.4-0.3,2.2-0.3
				c1.9,0,3.6,0.6,5.2,1.7L90.1,81.1z"/>
			<path d="M110.7,79.7h-5.1v13.3h-2.5V79.7H98v-2.2h12.7V79.7z"/>
			<path d="M128.5,90.8v2.2h-10.6V77.5h10.4v2.2h-8V84h6.9v2h-6.9v4.7H128.5z M124.2,75.9l-1.6-0.5l1.2-2.4h2.3L124.2,75.9z"/>
			<path d="M136.1,92.9V77.5h6.7c0.7,0,1.3,0.1,1.9,0.4c0.6,0.3,1.1,0.7,1.5,1.1s0.7,1,1,1.6c0.2,0.6,0.4,1.2,0.4,1.8
				c0,1-0.3,2-0.8,2.8c-0.6,0.8-1.3,1.4-2.2,1.7l3.6,5.9h-2.7l-3.4-5.4h-3.6v5.4H136.1z M138.6,85.4h4.3c0.7,0,1.2-0.3,1.7-0.8
				c0.4-0.6,0.7-1.2,0.7-2c0-0.8-0.2-1.5-0.7-2c-0.5-0.6-1.1-0.8-1.7-0.8h-4.1V85.4z"/>
			<path d="M155.6,92.9V77.5h2.4v15.4H155.6z"/>
			<path d="M165.7,85.2c0-1,0.2-2,0.6-3s0.9-1.8,1.5-2.5c0.7-0.7,1.4-1.3,2.4-1.7c0.9-0.4,1.9-0.6,2.9-0.6c1.1,0,2.1,0.2,3,0.7
				c0.9,0.5,1.7,1,2.3,1.8c0.6,0.7,1.1,1.6,1.5,2.5s0.5,1.9,0.5,2.9c0,1-0.2,2-0.6,2.9c-0.4,0.9-0.9,1.8-1.5,2.5
				c-0.6,0.7-1.4,1.3-2.4,1.7c-0.9,0.4-1.9,0.6-2.9,0.6c-0.9,0-1.7-0.1-2.5-0.4c-0.8-0.3-1.5-0.7-2.1-1.2c-0.6-0.5-1.1-1.1-1.5-1.7
				c-0.4-0.7-0.8-1.4-1-2.1C165.8,86.8,165.7,86,165.7,85.2z M173.1,90.8c0.7,0,1.4-0.2,2.1-0.5s1.1-0.8,1.5-1.3
				c0.4-0.5,0.7-1.1,0.9-1.8c0.2-0.7,0.3-1.3,0.3-2c0-0.7-0.1-1.4-0.4-2.1s-0.6-1.3-1-1.8c-0.4-0.5-0.9-0.9-1.5-1.2
				c-0.6-0.3-1.3-0.5-2-0.5c-0.8,0-1.4,0.2-2.1,0.5c-0.6,0.3-1.2,0.7-1.6,1.3s-0.7,1.1-1,1.8c-0.2,0.7-0.3,1.3-0.3,2
				c0,1,0.2,1.9,0.6,2.7c0.4,0.8,1,1.5,1.7,2.1C171.2,90.6,172.1,90.8,173.1,90.8z"/>
			<path d="M198.6,92.9V77.5h5.5c1.2,0,2.3,0.2,3.3,0.6c1,0.4,1.8,1,2.4,1.7s1.1,1.5,1.4,2.4s0.5,1.9,0.5,3c0,2.3-0.7,4.2-2.1,5.6
				c-1.4,1.4-3.2,2.1-5.5,2.1H198.6z M204.1,79.7h-3v11.1h3c1.1,0,2-0.2,2.7-0.7c0.8-0.5,1.3-1.2,1.7-2c0.4-0.8,0.6-1.8,0.6-2.9
				c0-1.6-0.4-3-1.3-4C206.9,80.2,205.6,79.7,204.1,79.7z"/>
			<path d="M223.2,77.5h2.3l6,15.4h-2.6l-1.6-4.2h-6l-1.6,4.2h-2.6L223.2,77.5z M226.8,86.9l-2.5-6.8l-2.6,6.8H226.8z"/>
		</g>
		<g>
			<rect x="2" y="109.6" class="st0" width="231.6" height="17"/>
			<path d="M152.3,115c-0.1,0-0.1-0.1-0.3-0.1c-0.1-0.1-0.3-0.2-0.6-0.3c-0.3-0.2-0.6-0.3-1-0.4c-0.3-0.1-0.7-0.2-1.1-0.3
				s-0.8-0.2-1.1-0.2c-0.8,0-1.2,0.3-1.2,0.8c0,0.1,0,0.2,0.1,0.3c0,0.1,0.1,0.2,0.2,0.3s0.2,0.1,0.3,0.2c0.1,0.1,0.2,0.1,0.4,0.2
				s0.4,0.1,0.5,0.2c0.1,0,0.4,0.1,0.6,0.2c0.3,0.1,0.5,0.2,0.7,0.2c0.6,0.2,1.2,0.4,1.6,0.6c0.4,0.2,0.9,0.4,1.3,0.7
				c0.4,0.3,0.7,0.6,1,0.9s0.4,0.7,0.6,1.2c0.1,0.4,0.2,1,0.2,1.5c0,0.7-0.1,1.4-0.3,1.9c-0.2,0.6-0.5,1-0.9,1.4s-0.8,0.7-1.3,0.9
				c-0.5,0.2-1,0.4-1.6,0.5c-0.5,0.1-1.1,0.1-1.7,0.1c-1.1,0-2.3-0.2-3.5-0.5c-1.2-0.3-2.3-0.8-3.2-1.3l1.8-3.7
				c0.1,0,0.2,0.1,0.3,0.2c0.1,0.1,0.4,0.2,0.8,0.4c0.4,0.2,0.8,0.4,1.1,0.5s0.8,0.3,1.3,0.4c0.5,0.1,1,0.2,1.4,0.2
				c0.8,0,1.2-0.2,1.2-0.7c0-0.2-0.1-0.3-0.2-0.5c-0.1-0.1-0.3-0.3-0.5-0.4s-0.5-0.2-0.7-0.3c-0.2-0.1-0.6-0.2-1-0.3
				c-0.4-0.1-0.8-0.2-1-0.3c-1.4-0.5-2.4-1-3-1.7c-0.6-0.7-0.9-1.5-0.9-2.6c0-0.8,0.2-1.6,0.5-2.2c0.3-0.7,0.7-1.2,1.3-1.6
				c0.5-0.4,1.1-0.8,1.8-1c0.7-0.2,1.4-0.3,2.2-0.3c1.6,0,3.6,0.6,5.8,1.7L152.3,115z"/>
			<path d="M164.6,110h4.7l4.9,15.4h-4.3l-0.9-3h-4.1l-0.9,3h-4.3L164.6,110z M168.3,119.6l-1.4-5.4l-1.4,5.4H168.3z"/>
			<path d="M186.8,125.5c-1,0-1.8-0.1-2.6-0.4c-0.8-0.3-1.4-0.6-2-1.1c-0.5-0.5-1-1-1.3-1.7c-0.4-0.7-0.6-1.3-0.8-2.1
				c-0.2-0.7-0.2-1.5-0.2-2.4V110h4.2v7.9c0,0.5,0.1,1,0.2,1.5c0.1,0.5,0.3,0.9,0.5,1.2s0.5,0.7,0.8,0.9c0.4,0.2,0.8,0.3,1.2,0.3
				c0.5,0,0.9-0.1,1.3-0.3c0.4-0.2,0.6-0.5,0.9-0.9c0.2-0.4,0.4-0.8,0.5-1.2s0.2-0.9,0.2-1.4V110h4.2v7.9c0,1.1-0.1,2.1-0.4,3
				c-0.3,0.9-0.7,1.7-1.3,2.4s-1.3,1.2-2.2,1.6S188,125.5,186.8,125.5z M188.1,109.3l-2.6-0.7l1.1-3.1h3.7L188.1,109.3z"/>
			<path d="M201.3,125.4V110h5.9c1.2,0,2.4,0.2,3.4,0.6c1,0.4,1.8,1,2.5,1.7c0.6,0.7,1.1,1.5,1.5,2.4c0.3,0.9,0.5,1.9,0.5,3
				c0,2.3-0.7,4.2-2.1,5.6c-1.4,1.4-3.3,2.1-5.6,2.1H201.3z M207.3,113.7h-1.7v8h1.7c1.1,0,1.9-0.4,2.6-1.1c0.6-0.8,0.9-1.7,0.9-2.9
				c0-1.2-0.3-2.2-0.9-2.9C209.2,114,208.3,113.7,207.3,113.7z"/>
			<path d="M233,121.7v3.7h-11V110h10.8v3.7h-6.6v2.2h5.6v3.4h-5.6v2.4H233z"/>
		</g>
	</g>
	<g>
		<path d="M325.7,164.8c0,0.5,0,0.9-0.1,1.3c-0.1,0.4-0.2,0.8-0.3,1.2c-0.2,0.4-0.4,0.7-0.6,1c-0.2,0.3-0.6,0.5-0.9,0.6
			c-0.4,0.2-0.8,0.2-1.3,0.2c-0.5,0-0.9-0.1-1.3-0.2c-0.4-0.2-0.7-0.4-0.9-0.6c-0.2-0.3-0.4-0.6-0.6-1c-0.2-0.4-0.3-0.8-0.3-1.2
			c-0.1-0.4-0.1-0.8-0.1-1.3v-6.1h-1.9v6.1c0,0.6,0.1,1.2,0.2,1.8c0.1,0.6,0.3,1.1,0.6,1.6c0.3,0.5,0.6,1,1,1.3
			c0.4,0.4,0.9,0.7,1.5,0.9c0.6,0.2,1.3,0.3,2,0.3c0.9,0,1.7-0.2,2.4-0.5c0.7-0.3,1.2-0.7,1.6-1.3c0.4-0.6,0.7-1.2,0.9-1.9
			c0.2-0.7,0.3-1.5,0.3-2.3v-6.1h-1.9V164.8z M341.8,167.4l-6.8-8.7h-1.5v12h1.9v-8.5l6.7,8.5h1.7v-12h-1.9V167.4z M349.8,170.7h1.9
			v-12h-1.9V170.7z M361.2,158.7l-4.7,12h2l1.3-3.3h4.6l1.3,3.3h2l-4.7-12H361.2z M360.1,166l2-5.2l1.9,5.2H360.1z M360.2,157.1
			c0-0.1,0-0.2,0.1-0.3c0-0.1,0.1-0.2,0.3-0.3c0.1-0.1,0.3-0.1,0.4-0.1c0.2,0,0.4,0.1,0.6,0.2c0.2,0.1,0.5,0.2,0.7,0.4
			c0.3,0.1,0.5,0.2,0.8,0.2c0.3,0,0.5-0.1,0.8-0.2c0.2-0.1,0.4-0.3,0.6-0.4c0.1-0.2,0.3-0.3,0.3-0.5c0.1-0.2,0.2-0.4,0.2-0.5
			c0-0.1,0.1-0.2,0.1-0.3H364c0,0,0,0.1,0,0.1c0,0,0,0.1-0.1,0.2c0,0.1-0.1,0.2-0.2,0.2c-0.1,0.1-0.2,0.1-0.3,0.2
			c-0.1,0.1-0.3,0.1-0.4,0.1c-0.2,0-0.5-0.1-0.7-0.2c-0.2-0.1-0.5-0.2-0.7-0.4c-0.3-0.1-0.5-0.2-0.8-0.2c-0.3,0-0.5,0.1-0.7,0.2
			c-0.2,0.1-0.4,0.3-0.5,0.4c-0.1,0.2-0.2,0.3-0.3,0.5c-0.1,0.2-0.2,0.4-0.2,0.5c0,0.1,0,0.3,0,0.3h1
			C360.1,157.3,360.1,157.2,360.2,157.1 M381.2,160.6c-0.5-0.6-1.1-1-1.8-1.4c-0.7-0.4-1.5-0.5-2.3-0.5c-0.8,0-1.6,0.2-2.3,0.5
			c-0.7,0.3-1.3,0.8-1.8,1.3c-0.5,0.6-0.9,1.2-1.2,1.9c-0.3,0.7-0.4,1.5-0.4,2.3c0,0.6,0.1,1.2,0.3,1.8c0.2,0.6,0.4,1.1,0.8,1.7
			c0.3,0.5,0.7,1,1.2,1.4c0.5,0.4,1,0.7,1.6,0.9c0.6,0.2,1.2,0.3,1.9,0.3c0.8,0,1.6-0.2,2.3-0.5c0.7-0.3,1.3-0.8,1.8-1.3
			c0.5-0.6,0.9-1.2,1.2-1.9c0.3-0.7,0.4-1.5,0.4-2.3c0-0.8-0.1-1.5-0.4-2.2C382,161.8,381.7,161.1,381.2,160.6 M380.6,166.3
			c-0.2,0.5-0.4,1-0.7,1.4c-0.3,0.4-0.7,0.7-1.2,1c-0.5,0.3-1,0.4-1.6,0.4c-0.8,0-1.4-0.2-2-0.6c-0.6-0.4-1-1-1.3-1.6
			c-0.3-0.7-0.5-1.4-0.5-2.1c0-0.5,0.1-1.1,0.3-1.6c0.2-0.5,0.4-1,0.7-1.4c0.3-0.4,0.7-0.7,1.2-1c0.5-0.2,1-0.4,1.6-0.4
			c0.6,0,1.1,0.1,1.6,0.4c0.5,0.2,0.9,0.6,1.2,1c0.3,0.4,0.6,0.9,0.8,1.4c0.2,0.5,0.3,1.1,0.3,1.6
			C380.8,165.3,380.7,165.8,380.6,166.3 M397.5,165.4h5.3v-1.6h-5.3v-3.4h6.2v-1.7h-8.1v12h8.2V169h-6.3V165.4z M424.9,164.8
			c0.4-0.7,0.6-1.4,0.6-2.2c0-0.5-0.1-0.9-0.3-1.4c-0.2-0.5-0.4-0.9-0.8-1.3c-0.3-0.4-0.7-0.7-1.2-0.9c-0.5-0.2-1-0.3-1.5-0.3h-5.2
			v12h1.9v-4.2h2.8l2.6,4.2h2.1l-2.8-4.6C423.9,165.9,424.5,165.5,424.9,164.8 M421.8,164.9h-3.3v-4.5h3.2c0.5,0,1,0.2,1.3,0.7
			c0.4,0.4,0.6,1,0.6,1.6c0,0.6-0.2,1.1-0.5,1.6C422.8,164.6,422.4,164.9,421.8,164.9 M433.1,165.4h5.3v-1.6h-5.3v-3.4h6.2v-1.7
			h-8.1v12h8.2V169h-6.3V165.4z M451.8,168.2c-0.4,0.3-0.7,0.5-1.1,0.7c-0.4,0.1-0.8,0.2-1.2,0.2c-0.7,0-1.4-0.2-2-0.6
			c-0.6-0.4-1.1-0.9-1.4-1.6c-0.3-0.7-0.5-1.4-0.5-2.2c0-0.4,0.1-0.8,0.2-1.3c0.1-0.4,0.3-0.8,0.5-1.2c0.2-0.4,0.5-0.7,0.8-1
			c0.3-0.3,0.7-0.5,1.1-0.7c0.4-0.2,0.9-0.3,1.4-0.3c0.3,0,0.6,0,0.9,0.1c0.3,0.1,0.6,0.2,0.9,0.3c0.3,0.1,0.5,0.3,0.8,0.6
			c0.2,0.3,0.4,0.6,0.6,0.9l1.5-1c-0.4-0.8-1-1.4-1.8-1.9c-0.8-0.5-1.7-0.7-2.8-0.7c-0.7,0-1.4,0.1-2,0.3c-0.6,0.2-1.2,0.5-1.6,0.9
			c-0.5,0.4-0.8,0.8-1.2,1.3c-0.3,0.5-0.6,1-0.7,1.6c-0.2,0.6-0.2,1.2-0.2,1.7c0,0.8,0.1,1.5,0.4,2.2c0.3,0.7,0.7,1.4,1.2,2
			c0.5,0.6,1.1,1.1,1.8,1.4c0.7,0.4,1.5,0.5,2.3,0.5c0.6,0,1.3-0.1,1.9-0.3c0.6-0.2,1.2-0.5,1.8-1c0.5-0.4,0.9-0.9,1.2-1.5l-1.6-0.9
			C452.5,167.6,452.2,167.9,451.8,168.2 M468.4,160.6c-0.5-0.6-1.1-1-1.8-1.4c-0.7-0.4-1.5-0.5-2.3-0.5c-0.8,0-1.6,0.2-2.3,0.5
			c-0.7,0.3-1.3,0.8-1.8,1.3c-0.5,0.6-0.9,1.2-1.2,1.9c-0.3,0.7-0.4,1.5-0.4,2.3c0,0.6,0.1,1.2,0.3,1.8c0.2,0.6,0.4,1.1,0.8,1.7
			c0.3,0.5,0.7,1,1.2,1.4c0.5,0.4,1,0.7,1.6,0.9c0.6,0.2,1.2,0.3,1.9,0.3c0.8,0,1.6-0.2,2.3-0.5c0.7-0.3,1.3-0.8,1.8-1.3
			c0.5-0.6,0.9-1.2,1.2-1.9c0.3-0.7,0.4-1.5,0.4-2.3c0-0.8-0.1-1.5-0.4-2.2C469.2,161.8,468.9,161.1,468.4,160.6 M467.8,166.3
			c-0.2,0.5-0.4,1-0.7,1.4c-0.3,0.4-0.7,0.7-1.2,1c-0.5,0.3-1,0.4-1.6,0.4c-0.8,0-1.4-0.2-2-0.6c-0.6-0.4-1-1-1.3-1.6
			c-0.3-0.7-0.5-1.4-0.5-2.1c0-0.5,0.1-1.1,0.3-1.6c0.2-0.5,0.4-1,0.7-1.4c0.3-0.4,0.7-0.7,1.2-1c0.5-0.2,1-0.4,1.6-0.4
			c0.6,0,1.1,0.1,1.6,0.4c0.5,0.2,0.9,0.6,1.2,1c0.3,0.4,0.6,0.9,0.8,1.4c0.2,0.5,0.3,1.1,0.3,1.6
			C468,165.3,467.9,165.8,467.8,166.3 M483.6,167.4l-6.8-8.7h-1.5v12h1.9v-8.5l6.7,8.5h1.7v-12h-1.9V167.4z M499.3,165.4
			c-0.2-0.2-0.5-0.4-0.8-0.6c-0.3-0.2-0.7-0.3-1.1-0.5c-0.4-0.1-0.8-0.2-1.4-0.4c-0.3-0.1-0.6-0.1-0.8-0.2c-0.2-0.1-0.4-0.1-0.7-0.2
			c-0.2-0.1-0.4-0.1-0.6-0.2c-0.1-0.1-0.3-0.1-0.4-0.2c-0.1-0.1-0.2-0.2-0.3-0.3c-0.1-0.1-0.1-0.2-0.2-0.4c0-0.1-0.1-0.3-0.1-0.4
			c0-0.5,0.2-0.9,0.6-1.2c0.4-0.3,1-0.4,1.8-0.4c0.7,0,1.3,0.1,1.9,0.4c0.6,0.3,1.1,0.5,1.3,0.8l0.9-1.5c-1.2-0.9-2.6-1.4-4-1.4
			c-0.6,0-1.2,0.1-1.7,0.2c-0.5,0.2-1,0.4-1.4,0.7c-0.4,0.3-0.7,0.7-0.9,1.1c-0.2,0.5-0.3,1-0.3,1.6c0,0.5,0.1,0.9,0.2,1.2
			c0.1,0.3,0.4,0.6,0.7,0.9c0.3,0.2,0.7,0.5,1.1,0.6c0.4,0.2,0.9,0.3,1.6,0.5c0.4,0.1,0.7,0.2,1,0.3c0.2,0.1,0.5,0.1,0.8,0.2
			c0.3,0.1,0.5,0.2,0.7,0.3c0.2,0.1,0.3,0.2,0.5,0.3c0.1,0.1,0.3,0.3,0.3,0.4c0.1,0.2,0.1,0.3,0.1,0.5c0,0.5-0.2,0.9-0.6,1.1
			c-0.4,0.3-1,0.4-1.7,0.4c-0.8,0-1.6-0.2-2.4-0.5c-0.8-0.3-1.3-0.7-1.7-1l-0.9,1.6c0.7,0.5,1.4,0.9,2.3,1.2
			c0.9,0.3,1.7,0.4,2.6,0.4c0.5,0,1,0,1.4-0.1c0.4-0.1,0.8-0.2,1.2-0.4c0.4-0.2,0.7-0.4,1-0.7c0.3-0.3,0.5-0.6,0.6-1
			c0.2-0.4,0.2-0.8,0.2-1.3c0-0.4-0.1-0.8-0.2-1.1C499.7,165.9,499.5,165.6,499.3,165.4 M504.2,160.4h4v10.3h1.9v-10.3h4v-1.7h-9.9
			V160.4z M527.3,164.8c0.4-0.7,0.6-1.4,0.6-2.2c0-0.5-0.1-0.9-0.3-1.4c-0.2-0.5-0.4-0.9-0.8-1.3c-0.3-0.4-0.7-0.7-1.2-0.9
			s-1-0.3-1.5-0.3H519v12h1.9v-4.2h2.8l2.6,4.2h2.1l-2.8-4.6C526.3,165.9,526.9,165.5,527.3,164.8 M524.2,164.9h-3.3v-4.5h3.2
			c0.5,0,1,0.2,1.3,0.7c0.4,0.4,0.6,1,0.6,1.6c0,0.6-0.2,1.1-0.5,1.6C525.2,164.6,524.7,164.9,524.2,164.9 M541.8,164.8
			c0,0.5,0,0.9-0.1,1.3s-0.2,0.8-0.3,1.2c-0.2,0.4-0.4,0.7-0.6,1c-0.2,0.3-0.6,0.5-0.9,0.6c-0.4,0.2-0.8,0.2-1.3,0.2
			c-0.5,0-0.9-0.1-1.3-0.2c-0.4-0.2-0.7-0.4-0.9-0.6c-0.2-0.3-0.4-0.6-0.6-1c-0.2-0.4-0.3-0.8-0.3-1.2c-0.1-0.4-0.1-0.8-0.1-1.3
			v-6.1h-1.9v6.1c0,0.6,0.1,1.2,0.2,1.8c0.1,0.6,0.3,1.1,0.6,1.6c0.3,0.5,0.6,1,1,1.3c0.4,0.4,0.9,0.7,1.5,0.9
			c0.6,0.2,1.3,0.3,2,0.3c0.9,0,1.7-0.2,2.4-0.5c0.7-0.3,1.2-0.7,1.6-1.3c0.4-0.6,0.7-1.2,0.9-1.9c0.2-0.7,0.3-1.5,0.3-2.3v-6.1
			h-1.9V164.8z M557,168.2c-0.4,0.3-0.7,0.5-1.1,0.7c-0.4,0.1-0.8,0.2-1.2,0.2c-0.7,0-1.4-0.2-2-0.6c-0.6-0.4-1.1-0.9-1.4-1.6
			s-0.5-1.4-0.5-2.2c0-0.4,0.1-0.8,0.2-1.3c0.1-0.4,0.3-0.8,0.5-1.2c0.2-0.4,0.5-0.7,0.8-1c0.3-0.3,0.7-0.5,1.1-0.7
			c0.4-0.2,0.9-0.3,1.4-0.3c0.3,0,0.6,0,0.9,0.1c0.3,0.1,0.6,0.2,0.9,0.3c0.3,0.1,0.5,0.3,0.8,0.6c0.2,0.3,0.4,0.6,0.6,0.9l1.5-1
			c-0.4-0.8-1-1.4-1.8-1.9c-0.8-0.5-1.7-0.7-2.8-0.7c-0.7,0-1.4,0.1-2,0.3c-0.6,0.2-1.2,0.5-1.6,0.9c-0.5,0.4-0.8,0.8-1.2,1.3
			c-0.3,0.5-0.6,1-0.7,1.6c-0.2,0.6-0.2,1.2-0.2,1.7c0,0.7,0.1,1.4,0.4,2.1c0.3,0.7,0.6,1.3,1.1,1.9c0.5,0.6,1,1,1.7,1.4
			c0.7,0.4,1.4,0.6,2.1,0.7c0.6,0.4,0.9,0.8,0.9,1.3c0,0.3-0.1,0.5-0.3,0.6c-0.2,0.1-0.4,0.2-0.7,0.2c-0.4,0-0.8-0.1-1.2-0.4l-0.5,1
			c0.6,0.3,1.3,0.5,2,0.5c0.6,0,1-0.1,1.4-0.4c0.3-0.3,0.5-0.7,0.5-1.2c0-0.6-0.3-1.1-0.9-1.6c0.9-0.1,1.7-0.4,2.5-0.9
			c0.8-0.5,1.3-1.1,1.6-1.8l-1.6-0.9C557.6,167.6,557.3,167.9,557,168.2 M567.8,158.7l-4.7,12h2l1.3-3.3h4.6l1.3,3.3h2l-4.7-12
			H567.8z M566.7,166l2-5.2l1.9,5.2H566.7z M566.8,157.1c0-0.1,0-0.2,0.1-0.3c0-0.1,0.1-0.2,0.3-0.3c0.1-0.1,0.3-0.1,0.4-0.1
			c0.2,0,0.4,0.1,0.6,0.2c0.2,0.1,0.5,0.2,0.7,0.4c0.3,0.1,0.5,0.2,0.8,0.2c0.3,0,0.5-0.1,0.8-0.2c0.2-0.1,0.4-0.3,0.6-0.4
			c0.1-0.2,0.3-0.3,0.3-0.5c0.1-0.2,0.2-0.4,0.2-0.5c0-0.1,0.1-0.2,0.1-0.3h-1.1c0,0,0,0.1,0,0.1c0,0,0,0.1-0.1,0.2
			c0,0.1-0.1,0.2-0.2,0.2c-0.1,0.1-0.2,0.1-0.3,0.2c-0.1,0.1-0.3,0.1-0.4,0.1c-0.2,0-0.5-0.1-0.7-0.2c-0.2-0.1-0.5-0.2-0.7-0.4
			c-0.3-0.1-0.5-0.2-0.8-0.2c-0.3,0-0.5,0.1-0.7,0.2c-0.2,0.1-0.4,0.3-0.5,0.4c-0.1,0.2-0.2,0.3-0.3,0.5c-0.1,0.2-0.2,0.4-0.2,0.5
			c0,0.1,0,0.3,0,0.3h1C566.7,157.3,566.7,157.2,566.8,157.1 M588.9,162.5c-0.3-0.7-0.7-1.4-1.1-2c-0.5-0.6-1.1-1-1.8-1.4
			c-0.7-0.4-1.5-0.5-2.3-0.5c-0.8,0-1.6,0.2-2.3,0.5c-0.7,0.3-1.3,0.8-1.8,1.3c-0.5,0.6-0.9,1.2-1.2,1.9c-0.3,0.7-0.4,1.5-0.4,2.3
			c0,0.6,0.1,1.2,0.3,1.8c0.2,0.6,0.4,1.1,0.8,1.7s0.7,1,1.2,1.4c0.5,0.4,1,0.7,1.6,0.9c0.6,0.2,1.2,0.3,1.9,0.3
			c0.8,0,1.6-0.2,2.3-0.5c0.7-0.3,1.3-0.8,1.8-1.3c0.5-0.6,0.9-1.2,1.2-1.9c0.3-0.7,0.4-1.5,0.4-2.3
			C589.3,164,589.2,163.2,588.9,162.5 M587.2,166.3c-0.2,0.5-0.4,1-0.7,1.4c-0.3,0.4-0.7,0.7-1.2,1c-0.5,0.3-1,0.4-1.6,0.4
			c-0.8,0-1.4-0.2-2-0.6c-0.6-0.4-1-1-1.3-1.6c-0.3-0.7-0.5-1.4-0.5-2.1c0-0.5,0.1-1.1,0.3-1.6c0.2-0.5,0.4-1,0.7-1.4
			c0.3-0.4,0.7-0.7,1.2-1c0.5-0.2,1-0.4,1.6-0.4c0.6,0,1.1,0.1,1.6,0.4c0.5,0.2,0.9,0.6,1.2,1c0.3,0.4,0.6,0.9,0.8,1.4
			c0.2,0.5,0.3,1.1,0.3,1.6C587.4,165.3,587.3,165.8,587.2,166.3"/>
		<path d="M323.9,37.9h4.1c-0.4,1-1.4,1.8-3,1.8c-2.3,0-3.9-1.7-3.9-3.9c0-2.3,1.6-4.1,3.8-4.1c1.4,0,2.7,0.7,3.3,1.9l3.5-2.1
			c-1.4-2.4-4-3.8-6.8-3.8c-4.4,0-8,3.5-8,8c0,4.5,3.5,8,8,8c4.2,0,7.4-3.1,7.4-7.8v-1.2h-8.5V37.9z M346,27.7c-4.5,0-8,3.5-8,8
			c0,4.4,3.5,8,8,8c4.4,0,8-3.5,8-8C354,31.3,350.5,27.7,346,27.7 M346,39.5c-2,0-3.6-1.6-3.6-3.8c0-2.2,1.6-3.8,3.6-3.8
			c2,0,3.5,1.6,3.5,3.8C349.6,37.9,348,39.5,346,39.5 M365.8,37.5l-3.5-9.4h-4.4l5.9,15.3h4.1l6-15.3h-4.4L365.8,37.5z M379.2,43.3
			h10.9v-3.7h-6.8v-2.3h4.5v-3.3h-4.5v-2.3h6.8v-3.7h-10.9V43.3z M409.1,33c0-2.8-2.3-5-5.3-5h-7.4v15.3h4.1v-5.3h1.7l3,5.3h4.6
			l-3.4-5.9C408.1,36.6,409.1,35,409.1,33 M403.4,34.6h-2.9v-2.8h2.9c1,0,1.6,0.7,1.6,1.4C405,33.9,404.4,34.6,403.4,34.6
			 M425.1,36.1l-6.2-8.1h-3.5v15.3h4.1v-8l6.1,8h3.5V28.1h-4.1V36.1z M443.1,27.7c-4.5,0-8,3.5-8,8c0,4.4,3.5,8,8,8c4.4,0,8-3.5,8-8
			C451.1,31.3,447.5,27.7,443.1,27.7 M443.1,39.5c-2,0-3.6-1.6-3.6-3.8c0-2.2,1.6-3.8,3.6-3.8c2,0,3.5,1.6,3.5,3.8
			C446.6,37.9,445.1,39.5,443.1,39.5 M467.1,43.3h4.1v-5.6h4.5v-3.5h-4.5v-2.6h6.8v-3.7h-10.9V43.3z M484.2,43.3h10.9v-3.7h-6.8
			v-2.3h4.5v-3.3h-4.5v-2.3h6.8v-3.7h-10.9V43.3z M507.6,28.1h-6.2v15.3h6.2c4.6,0,8.1-3.3,8.1-7.6
			C515.8,31.3,512.3,28.1,507.6,28.1 M507.4,39.4h-1.9v-7.3h1.9c2.4,0,4.1,1.4,4.1,3.7C511.5,37.9,509.9,39.4,507.4,39.4
			 M521.7,43.3h10.9v-3.7h-6.8v-2.3h4.5v-3.3h-4.5v-2.3h6.8v-3.7h-10.9V43.3z M551.6,33c0-2.8-2.3-5-5.3-5H539v15.3h4.1v-5.3h1.7
			l3,5.3h4.6l-3.4-5.9C550.6,36.6,551.6,35,551.6,33 M545.9,34.6H543v-2.8h2.9c1,0,1.6,0.7,1.6,1.4
			C547.5,33.9,546.9,34.6,545.9,34.6 M563.2,28.1l-6.4,15.3h4.3l1.1-2.6h6l1.1,2.6h4.3l-6.4-15.3H563.2z M563.7,37.1l1.5-3.7
			l1.5,3.7H563.7z M583.2,39.4V28.1h-4.3v15.3h10.7v-3.9H583.2z"/>
		<path d="M590.2,113.8h-28.9V59.3h28.9V113.8z M562.5,112.6h26.6V60.4h-26.6V112.6z"/>
		<path d="M618,140.8h-28.9v-28.1H618V140.8z M590.2,139.6h26.6v-25.8h-26.6V139.6z"/>
		<path d="M590.2,140.8h-28.9v-28.1h28.9V140.8z M562.5,139.6h26.6v-25.8h-26.6V139.6z"/>
		<path d="M557.8,140.8h-28.9V59.3h28.9V140.8z M530,139.6h26.6V60.4H530V139.6z"/>
		<path d="M495.3,140.8h-27.4V95h27.4V140.8z M469,139.6h25.1V96.1H469V139.6z"/>
		<path d="M525.3,89.6h-31.2V59.3h31.2V89.6z M495.3,88.5h28.9V60.4h-28.9V88.5z"/>
		<path d="M503.9,140.8h-9.7V88.5h9.7c14.4,0,26.1,11.7,26.1,26.1C530,129,518.3,140.8,503.9,140.8 M495.3,139.6h8.6
			c13.8,0,25-11.2,25-25c0-13.8-11.2-25-25-25h-8.6V139.6z"/>
		<path d="M495.3,96.1h-9c-10.2,0-18.4-8.3-18.4-18.4c0-10.2,8.3-18.4,18.4-18.4h9V96.1z M486.3,60.4c-9.5,0-17.3,7.8-17.3,17.3
			c0,9.5,7.8,17.3,17.3,17.3h7.8V60.4H486.3z"/>
		<path d="M323.1,92.7h-7V59.3h7c9.2,0,16.7,7.5,16.7,16.7C339.7,85.2,332.3,92.7,323.1,92.7 M317.2,91.5h5.9
			c8.6,0,15.5-7,15.5-15.5c0-8.6-7-15.5-15.5-15.5h-5.9V91.5z"/>
		<path d="M317.2,92.7h-28.9V59.3h28.9V92.7z M289.4,91.5h26.6V60.4h-26.6V91.5z"/>
		<path d="M317.2,140.8h-28.9V91.5h28.9V140.8z M289.4,139.6h26.6v-47h-26.6V139.6z"/>
		<path d="M325.8,140.8h-9.7V91.5h9.7c13.6,0,24.6,11,24.6,24.6C350.4,129.7,339.3,140.8,325.8,140.8 M317.2,139.6h8.6
			c12.9,0,23.5-10.5,23.5-23.5c0-12.9-10.5-23.5-23.5-23.5h-8.6V139.6z"/>
		<path d="M403.1,140.8h-53.8v-32.9h32.4L403.1,140.8z M350.4,139.6H401L381,108.9h-30.6V139.6z"/>
		<path d="M483.3,140.8h-97.5l48.8-82L483.3,140.8z M387.8,139.6h93.5L434.6,61L387.8,139.6z"/>
		<path d="M483.3,140.8h-15.5v-26L483.3,140.8z M469,139.6h12.3L469,118.9V139.6z"/>
		<path d="M403.1,140.8h-17.3l8.2-13.9L403.1,140.8z M387.8,139.6H401l-6.9-10.6L387.8,139.6z"/>
		<path d="M464.4,140.8h-59.7v-0.6c0-16.5,13.4-29.9,29.9-29.9c16.5,0,29.9,13.4,29.9,29.9V140.8z M405.8,139.6h57.5
			c-0.3-15.6-13.1-28.2-28.7-28.2C418.9,111.4,406.2,124,405.8,139.6"/>
		<path d="M350.1,59.3h-0.9v49.7h33.1L350.1,59.3z M350.4,61.8l29.9,46h-29.9V61.8z"/>
		<path d="M381.3,59.3h-32.1V60l31.6,48.7l0.2,0.3h0.3c13.7,0,24.8-11.1,24.8-24.8S395,59.3,381.3,59.3 M381.6,107.8l-30.8-47.4
			h30.5c13.1,0,23.7,10.6,23.7,23.7C405,97.1,394.5,107.6,381.6,107.8"/>
	</g>
</g>
</svg>
