<?xml version="1.0" encoding="utf-8"?>
<!-- Generator: Adobe Illustrator 25.2.1, SVG Export Plug-In . SVG Version: 6.00 Build 0)  -->
<svg version="1.1" id="Layer_1" xmlns="http://www.w3.org/2000/svg" xmlns:xlink="http://www.w3.org/1999/xlink" x="0px" y="0px"
	 viewBox="0 0 120 80" style="enable-background:new 0 0 120 80;" xml:space="preserve">
<style type="text/css">
	.st0{fill-rule:evenodd;clip-rule:evenodd;fill:#222222;}
</style>
<g id="g10" transform="matrix(2.8249584,0,0,-2.8249584,-606.01855,163.1583)">
	<g id="g12">
		<g>
			<g id="g14">
				<path id="path20" class="st0" d="M230.1,42.3l-1.4,0.4c-0.9,0.3-1.5,1.1-1.5,2c0,1.3,1,2.1,2.1,2.1h2.8v-1h-1.9
					c-0.4,0-0.6-0.3-0.6-0.6c0-0.3,0.1-0.5,0.5-0.6l1.4-0.5c0.9-0.3,1.4-1.3,1.4-2.3c0-1.4-1.1-2.4-2.4-2.4h-2.9v1.1h2.5
					c0.4,0,0.8,0.4,0.8,0.9C230.7,41.8,230.4,42.2,230.1,42.3 M217.4,42.3l-1.4,0.4c-0.9,0.3-1.5,1.1-1.5,2c0,1.3,1,2.1,2.1,2.1h2.8
					v-1h-1.9c-0.4,0-0.8-0.3-0.8-0.6c0-0.3,0.1-0.5,0.5-0.6l1.4-0.5c0.9-0.3,1.4-1.3,1.4-2.3c0-1.4-1-2.4-2.4-2.4h-2.9v1.1h2.5
					c0.4,0,0.8,0.4,0.8,0.9C218,41.8,217.8,42.2,217.4,42.3 M223.7,39.3c-1.6,0-3,1.1-3,2.6v5h2.3v-5.1c0-0.6,0.6-1.1,1.3-1.1
					s1.3,0.5,1.3,1.1V47h1v-5C226.7,40.5,225.3,39.3,223.7,39.3"/>
				<path id="path22" class="st0" d="M248.9,39c0,0-3.9-0.3-7.1,0c0-4,0.5-6,0.6-6.4h7.1C249.2,34.6,249,38,248.9,39 M236.8,47.2
					c0.5,0,4.6-0.4,5-0.4l6.6-6.8h8.5v7.1H236.8L236.8,47.2z M242.3,47.6h7.1v7h-7.1V47.6z M242.3,45.6L242.3,45.6l-1,1
					c-1.3,0-5.3,0.4-6.5,0.6v-7.1c6.4-0.6,9.8-0.8,13.5-0.6l0,0L242.3,45.6L242.3,45.6z M248.9,39.6h0.9v-5.5c-0.1,0.6-0.4,4-0.4,5
					C249.2,39.2,248.9,39.6,248.9,39.6"/>
			</g>
		</g>
	</g>
</g>
<g>
</g>
<g>
</g>
<g>
</g>
<g>
</g>
<g>
</g>
<g>
</g>
<g>
</g>
<g>
</g>
<g>
</g>
<g>
</g>
<g>
</g>
<g>
</g>
<g>
</g>
<g>
</g>
<g>
</g>
</svg>
